<svg width="600" height="600" viewBox="0 0 600 600" fill="none" xmlns="http://www.w3.org/2000/svg">
<path d="M117.516 286.789H75.3237V300.217H117.516V286.789Z" fill="#EBEBEB"/>
<path d="M413.64 178.797H371.448V192.225H413.64V178.797Z" fill="#EBEBEB"/>
<path d="M93.984 317.143C86.952 317.263 69.228 317.563 62.436 317.635H51.792H51.252V317.083V303.655V303.055H51.852L72.948 303.139C78.192 303.139 88.788 303.295 94.044 303.367H94.332V303.655L94.056 317.083L93.984 317.143ZM93.984 317.143L93.696 303.715L93.984 304.003C88.716 304.075 78.144 304.183 72.888 304.231L51.792 304.315L52.392 303.715V317.143L51.84 316.591L62.292 316.651C68.976 316.723 87.108 317.023 94.032 317.143H93.984Z" fill="#EBEBEB"/>
<path d="M294.6 406.248C287.568 406.368 269.844 406.668 263.052 406.74H252.408H251.868V406.2V392.772V392.172H252.468L273.564 392.256C278.82 392.256 289.404 392.412 294.66 392.484H294.948V392.772L294.66 406.2L294.6 406.248ZM294.6 406.248L294.312 392.82L294.6 393.096C289.344 393.18 278.772 393.288 273.504 393.336L252.408 393.42L253.008 392.82V406.248L252.456 405.696H262.908C269.604 405.78 287.736 406.08 294.648 406.2L294.6 406.248Z" fill="#EBEBEB"/>
<path d="M271.068 423.175C264.036 423.295 246.312 423.595 239.52 423.667H228.876H228.336V423.127L228.276 409.699V409.195H228.876L249.972 409.279C255.228 409.279 265.812 409.435 271.068 409.507H271.356V409.795L271.068 423.223V423.175ZM271.068 423.175L270.78 409.747L271.068 410.023L260.52 410.155C253.824 410.251 235.8 410.323 228.876 410.347L229.476 409.747V423.175L228.924 422.623H239.376C246.06 422.707 264.204 423.007 271.116 423.127L271.068 423.175Z" fill="#EBEBEB"/>
<path d="M247.632 392.82H205.44V406.248H247.632V392.82Z" fill="#EBEBEB"/>
<path d="M548.208 303.719H506.016V317.147H548.208V303.719Z" fill="#EBEBEB"/>
<path d="M524.676 53.9141H482.484V67.3421H524.676V53.9141Z" fill="#EBEBEB"/>
<path d="M548.208 84.2713C541.176 84.3913 523.452 84.6913 516.66 84.7753H506.016H505.476V84.2233L505.416 70.7953V70.1953H506.016L527.112 70.2793C532.368 70.2793 542.952 70.4353 548.208 70.5193H548.496V70.7953L548.208 84.2233V84.2713ZM548.208 84.2713L547.92 70.7953L548.208 71.0833C542.94 71.1553 532.38 71.2753 527.112 71.3113L506.016 71.3953L506.616 70.7953V84.2233L506.064 83.6833H516.516C523.212 83.7553 541.344 84.0673 548.256 84.1753L548.208 84.2713Z" fill="#EBEBEB"/>
<path d="M117.516 67.3416C110.484 67.4616 92.7602 67.7616 85.9682 67.8456H75.3242H74.7842V67.2936V53.8656V53.2656H75.3842L96.4802 53.3496C101.736 53.3496 112.32 53.5056 117.576 53.5896H117.864V53.8656L117.576 67.2936L117.516 67.3416ZM117.516 67.3416L117.228 53.9136L117.516 54.2016C112.248 54.2736 101.676 54.3936 96.4202 54.4296L75.3242 54.5136L75.9242 53.9136V67.3416L75.3722 66.8016H85.8242C92.5082 66.8736 110.64 67.1856 117.564 67.2936L117.516 67.3416Z" fill="#EBEBEB"/>
<path d="M56.9282 470.581C212.652 469.837 387.348 469.837 543.072 470.581C387.348 471.313 212.652 471.313 56.9282 470.581Z" fill="#263238"/>
<path d="M300 518.784C355.982 518.784 401.364 510.623 401.364 500.556C401.364 490.489 355.982 482.328 300 482.328C244.018 482.328 198.636 490.489 198.636 500.556C198.636 510.623 244.018 518.784 300 518.784Z" fill="#455A64"/>
<path opacity="0.1" d="M401.364 500.544C401.364 502.824 399.048 504.996 394.8 507.012C320.772 493.812 276.06 503.208 245.148 515.88C217.164 512.628 198.636 506.976 198.636 500.544C198.636 490.488 244.02 482.328 300 482.328C355.98 482.328 401.364 490.488 401.364 500.544Z" fill="black"/>
<path d="M195.06 500.557C195.792 493.261 212.196 489.757 218.22 488.101C262.932 478.501 309.42 478.909 354.744 483.577C421.836 491.209 422.028 509.869 354.744 517.861C309.396 522.481 262.908 522.541 218.184 513.061C211.992 511.357 195.792 507.877 195.024 500.605L195.06 500.557ZM195.18 500.557C195.9 507.649 212.364 511.189 218.292 512.689C236.148 516.553 254.412 518.089 272.628 518.941C299.984 520.28 327.403 519.546 354.648 516.745C420.876 509.317 421.104 491.809 354.648 484.021C318.283 480.401 281.646 480.453 245.292 484.177C236.22 485.081 227.206 486.492 218.292 488.401C212.196 489.937 195.936 493.441 195.18 500.545V500.557Z" fill="#455A64"/>
<path d="M408 500.553C407.292 508.533 391.128 512.445 384.612 514.401C338.484 525.321 290.124 524.841 243.24 519.549C174.648 510.957 174.456 490.161 243.24 481.209C280.937 476.617 319.055 476.681 356.736 481.401C366.145 482.582 375.471 484.349 384.66 486.693C391.332 488.685 407.292 492.549 408.048 500.553H408ZM407.88 500.553C407.136 492.717 390.996 488.805 384.528 487.005C366.12 482.577 347.184 480.813 328.32 479.805C299.972 478.259 271.544 479.094 243.336 482.301C175.584 490.701 175.368 510.357 243.336 519.069C280.988 523.239 318.987 523.19 356.628 518.925C366.029 517.897 375.359 516.294 384.564 514.125C391.164 512.301 407.16 508.389 407.916 500.589L407.88 500.553Z" fill="#455A64"/>
<path d="M408 500.553C407.412 476.757 407.4 450.573 408 426.789C408.588 450.573 408.588 476.757 408 500.553Z" fill="#455A64"/>
<path d="M330.816 480.326C330.228 456.542 330.216 430.358 330.816 406.562C331.416 430.358 331.404 456.542 330.816 480.326Z" fill="#455A64"/>
<path d="M192 500.553C191.412 461.445 191.412 417.561 192 378.453C192.588 417.561 192.588 461.445 192 500.553Z" fill="#455A64"/>
<path d="M398.124 492.648C397.536 463.248 397.524 430.248 398.124 400.836C398.712 430.248 398.7 463.236 398.124 492.648Z" fill="#455A64"/>
<path d="M246.876 475.204C246.276 457.384 246.288 438.664 246.876 420.82C247.476 438.664 247.488 457.384 246.876 475.204Z" fill="#455A64"/>
<path d="M360 483.77C359.412 461.942 359.412 437.93 360 416.102C360.6 437.93 360.588 461.942 360 483.77Z" fill="#455A64"/>
<path d="M212.832 490.234C212.244 460.822 212.232 427.834 212.832 398.422C213.42 427.822 213.408 460.822 212.832 490.234Z" fill="#455A64"/>
<path d="M408 392.062C408.612 401.184 408.612 410.337 408 419.458C407.382 410.337 407.382 401.184 408 392.062Z" fill="#455A64"/>
<path d="M228.552 447.82C229.164 456.942 229.164 466.095 228.552 475.216C227.934 466.095 227.934 456.942 228.552 447.82Z" fill="#455A64"/>
<path d="M384.156 432.578C384.768 441.704 384.768 450.86 384.156 459.986C383.538 450.861 383.538 441.704 384.156 432.578Z" fill="#455A64"/>
<path d="M265.08 451.203C265.698 460.325 265.698 469.478 265.08 478.599C264.468 469.477 264.468 460.325 265.08 451.203Z" fill="#455A64"/>
<path d="M348.9 449.188C349.518 458.313 349.518 467.47 348.9 476.595C348.288 467.47 348.288 458.313 348.9 449.188Z" fill="#455A64"/>
<path d="M341.616 514.045C344.496 513.685 366.6 510.793 355.056 506.977C348.768 504.925 339.168 504.361 332.544 503.617C340.164 504.037 347.868 504.193 355.236 506.413C356.772 506.881 360.468 508.405 358.344 510.349C356.722 511.442 354.885 512.175 352.956 512.497C349.219 513.288 345.429 513.806 341.616 514.045Z" fill="white"/>
<path d="M320.64 515.002C325.956 514.594 331.236 514.438 336.564 514.474C331.292 515.243 325.951 515.42 320.64 515.002Z" fill="white"/>
<path d="M291.72 512.969C295.303 513.166 298.867 513.611 302.388 514.301C298.784 514.43 295.182 513.98 291.72 512.969Z" fill="white"/>
<path d="M320.64 503.327C314.088 503.567 307.548 503.831 301.032 504.455C297.768 504.743 294.516 505.127 291.3 505.655C288.552 506.219 285.564 506.555 283.188 508.139C283.017 508.251 282.872 508.4 282.764 508.574C282.657 508.748 282.588 508.944 282.564 509.147C282.577 508.938 282.636 508.734 282.735 508.55C282.834 508.366 282.973 508.205 283.14 508.079C285.444 506.315 288.456 505.847 291.216 505.199C294.444 504.551 297.708 504.167 300.972 503.843C307.511 503.261 314.079 503.081 320.64 503.303V503.327Z" fill="white"/>
<path d="M335.748 512.018C337.572 511.742 353.748 509.978 345.216 507.974C340.08 506.702 334.476 506.522 329.208 505.922C335.208 506.186 341.568 505.922 347.34 508.07C352.14 511.178 337.284 512.006 335.748 512.018Z" fill="white"/>
<path d="M320.64 512.58C324.442 512.062 328.288 511.958 332.112 512.268C328.31 512.779 324.464 512.884 320.64 512.58Z" fill="white"/>
<path d="M299.82 511.39C302.405 511.23 304.999 511.489 307.5 512.158C304.916 512.312 302.323 512.053 299.82 511.39Z" fill="white"/>
<path d="M320.64 505.752C315.984 506.196 311.304 506.112 306.66 506.592C302.988 507.024 297.144 507.024 293.772 508.548C293.637 508.6 293.516 508.684 293.42 508.793C293.324 508.901 293.255 509.031 293.22 509.172C293.244 509.024 293.302 508.882 293.39 508.76C293.477 508.637 293.592 508.536 293.724 508.464C297.66 506.436 302.292 506.556 306.612 505.992C311.268 505.584 315.972 505.716 320.64 505.752Z" fill="white"/>
<path d="M377.736 301.201C377.736 301.201 391.176 324.589 400.236 337.537C409.296 350.485 419.244 378.709 421.164 381.445C423.084 384.181 426.444 520.021 426.444 520.021C426.444 520.021 404.436 522.757 399.828 523.009C395.22 523.261 373.272 528.937 373.272 528.937L417.672 525.337L399.96 528.937C399.96 528.937 429.504 527.653 430.92 527.533C432.336 527.413 442.764 528.061 443.268 527.689C443.772 527.317 445.332 525.037 444.876 524.089C444.42 523.141 436.092 519.649 436.092 519.649C436.092 519.649 438.852 386.917 438.672 384.589C438.492 382.261 441.072 378.781 439.584 376.465C438.096 374.149 433.188 371.977 432.456 370.321C431.724 368.665 424.776 324.349 424.056 304.441C423.78 295.645 382.212 288.865 377.736 301.201Z" fill="#0972D3"/>
<path opacity="0.7" d="M377.736 301.201C377.736 301.201 391.176 324.589 400.236 337.537C409.296 350.485 419.244 378.709 421.164 381.445C423.084 384.181 426.444 520.021 426.444 520.021C426.444 520.021 404.436 522.757 399.828 523.009C395.22 523.261 373.272 528.937 373.272 528.937L417.672 525.337L399.96 528.937C399.96 528.937 429.504 527.653 430.92 527.533C432.336 527.413 442.764 528.061 443.268 527.689C443.772 527.317 445.332 525.037 444.876 524.089C444.42 523.141 436.092 519.649 436.092 519.649C436.092 519.649 438.852 386.917 438.672 384.589C438.492 382.261 441.072 378.781 439.584 376.465C438.096 374.149 433.188 371.977 432.456 370.321C431.724 368.665 424.776 324.349 424.056 304.441C423.78 295.645 382.212 288.865 377.736 301.201Z" fill="white"/>
<path d="M426.972 334.285L383.184 310.501C379.944 305.077 377.736 301.225 377.736 301.225C382.212 288.853 423.768 295.645 424.104 304.453C424.38 312.085 425.568 323.281 426.972 334.285Z" fill="#0972D3"/>
<path d="M432.612 407.794C432.612 407.794 434.832 408.046 438.36 408.358C438.36 408.166 438.36 407.974 438.36 407.794H432.612ZM415.32 367.978C415.512 368.422 415.704 368.866 415.884 369.31C419.39 369.145 422.877 368.699 426.312 367.978H415.32ZM425.568 322.45C425.568 322.45 425.568 322.318 425.568 322.258H419.328C419.328 322.258 420.3 322.378 421.992 322.534L425.592 322.87C425.604 322.726 425.58 322.594 425.568 322.45ZM404.16 343.954C404.268 344.17 404.388 344.386 404.508 344.602C405.708 344.422 406.908 344.206 408.036 343.954H404.16ZM428.16 343.306H424.968C424.968 343.306 426.168 343.45 428.196 343.642L428.16 343.306ZM429.528 352.906H417.168C417.168 352.906 422.448 353.518 429.708 353.986C429.6 353.59 429.6 353.23 429.6 352.87L429.528 352.906ZM400.008 337.306L400.212 337.594L400.608 338.17L401.004 338.758C405.439 338.675 409.857 338.189 414.204 337.306H400.008ZM428.64 423.358C428.64 423.358 432.36 423.694 438.048 424.054C438.048 423.814 438.048 423.598 438.048 423.358H428.64ZM430.332 466.966C432.593 467.489 434.88 467.89 437.184 468.166C437.184 467.794 437.184 467.386 437.184 466.966H430.332ZM405.456 331.846C405.456 331.846 413.196 335.326 417.108 331.846H405.456ZM426.336 427.954C426.336 427.954 434.064 431.434 437.976 427.954H426.336ZM422.088 390.418C422.088 390.922 422.16 391.438 422.184 391.966C425.153 392.063 428.109 391.535 430.86 390.418H422.088ZM422.448 396.85C422.448 396.958 422.448 397.054 422.448 397.162L424.716 396.802L422.448 396.85ZM426.048 504.694C426.048 504.886 426.048 505.09 426.048 505.282C427.476 505.114 428.832 504.91 430.116 504.694H426.048ZM430.668 452.038C430.668 452.038 433.284 452.266 437.508 452.554C437.508 452.386 437.508 452.206 437.508 452.038H430.668ZM425.724 492.394C425.724 492.658 425.724 492.91 425.724 493.162C427.74 492.946 429.648 492.694 431.388 492.394H425.724ZM425.472 483.658V484.858C429.064 484.66 432.642 484.259 436.188 483.658H425.472Z" fill="#0972D3"/>
<path d="M405.18 301.2C405.18 301.2 425.664 326.676 434.724 339.6C443.784 352.524 463.884 378.684 465.816 381.42C467.748 384.156 496.8 520.044 496.8 520.044C496.8 520.044 474.792 522.78 470.184 523.032C465.576 523.284 443.616 528.96 443.616 528.96L488.016 525.36L470.316 528.96C470.316 528.96 499.86 527.676 501.276 527.556C502.692 527.436 513.12 528.084 513.624 527.712C514.128 527.34 515.676 525.06 515.22 524.112C514.764 523.164 506.448 519.672 506.448 519.672C506.448 519.672 483.6 386.94 483.372 384.612C483.144 382.284 485.772 378.804 484.284 376.488C482.796 374.172 477.876 372 477.144 370.344C476.412 368.688 452.28 324.372 451.548 304.464C451.2 295.644 409.668 288.864 405.18 301.2Z" fill="#0972D3"/>
<path opacity="0.7" d="M405.18 301.2C405.18 301.2 425.664 326.676 434.724 339.6C443.784 352.524 463.884 378.684 465.816 381.42C467.748 384.156 496.8 520.044 496.8 520.044C496.8 520.044 474.792 522.78 470.184 523.032C465.576 523.284 443.616 528.96 443.616 528.96L488.016 525.36L470.316 528.96C470.316 528.96 499.86 527.676 501.276 527.556C502.692 527.436 513.12 528.084 513.624 527.712C514.128 527.34 515.676 525.06 515.22 524.112C514.764 523.164 506.448 519.672 506.448 519.672C506.448 519.672 483.6 386.94 483.372 384.612C483.144 382.284 485.772 378.804 484.284 376.488C482.796 374.172 477.876 372 477.144 370.344C476.412 368.688 452.28 324.372 451.548 304.464C451.2 295.644 409.668 288.864 405.18 301.2Z" fill="white"/>
<path d="M487.2 407.795H483.252C483.252 407.795 484.752 407.963 487.26 408.191C487.296 408.059 487.272 407.927 487.2 407.795ZM455.604 367.979C455.908 368.363 456.196 368.763 456.468 369.179C459.153 368.967 461.819 368.566 464.448 367.979H455.604ZM455.088 321.035C455.08 321.007 455.08 320.978 455.088 320.951L454.98 320.639H448.8C448.8 320.639 450.588 320.843 453.528 321.119L455.208 321.263C455.175 321.19 455.151 321.113 455.136 321.035H455.088ZM436.236 341.855C436.476 342.203 436.74 342.575 437.016 342.935L437.16 343.139C440.415 342.954 443.653 342.524 446.844 341.855H436.236ZM470.652 357.671H465.612C465.612 357.671 467.64 357.911 470.916 358.187C470.868 358.019 470.784 357.851 470.7 357.671H470.652ZM432.984 337.271C433.344 337.763 433.692 338.243 434.016 338.711C438.326 338.613 442.619 338.131 446.844 337.271H432.984ZM489.972 424.019C489.816 423.779 489.636 423.563 489.456 423.323H479.304C479.304 423.323 483.564 423.707 489.996 424.103C489.996 424.103 490.056 424.043 490.02 424.019H489.972ZM500.004 482.327H494.172C494.172 482.327 496.416 482.519 500.088 482.783C500.112 482.639 500.088 482.483 500.052 482.327H500.004ZM504.612 508.991C504.612 508.775 504.528 508.547 504.492 508.319H496.476C499.193 508.936 501.946 509.377 504.72 509.639L504.612 508.991ZM501.096 488.591H491.748C494.909 489.299 498.117 489.772 501.348 490.007C501.3 489.599 501.216 489.095 501.144 488.615L501.096 488.591ZM457.668 328.235C457.572 327.995 457.488 327.767 457.404 327.527H441.732C446.055 328.559 450.487 329.067 454.932 329.039L455.988 328.979C456.612 328.979 457.188 328.883 457.836 328.799L457.668 328.235ZM477.024 427.955C477.024 427.955 484.764 431.435 488.676 427.955H477.024ZM416.4 315.383L417.6 316.895C420.066 317.029 422.54 316.868 424.968 316.415C425.57 316.304 426.163 316.152 426.744 315.959C427.248 315.805 427.742 315.617 428.22 315.395L416.4 315.383ZM468.228 390.419C468.312 390.767 468.396 391.115 468.492 391.475L468.564 391.787C472.944 392.159 478.068 392.075 481.548 390.419H468.228ZM469.752 396.851C469.752 397.091 469.872 397.355 469.932 397.607C471.888 397.403 473.736 397.151 475.44 396.851H469.752ZM494.832 452.051H481.368L482.088 452.111C483.864 452.255 488.676 452.651 494.964 452.987C494.94 452.663 494.88 452.399 494.832 452.039V452.051ZM483.132 456.851L483.24 457.331C484.32 457.187 485.34 457.031 486.336 456.851H483.132ZM493.2 503.135C493.272 503.487 493.344 503.823 493.416 504.143C496.368 503.903 499.116 503.579 501.576 503.135H493.2ZM485.016 465.383C485.1 465.743 485.172 466.103 485.256 466.463C488.556 466.211 491.628 465.863 494.352 465.383H485.016Z" fill="#0972D3"/>
<path d="M338.268 373.548C338.268 382.86 338.196 391.66 338.052 399.948C337.5 432.996 335.952 458.244 334.356 476.4C332.676 495.456 330.924 506.712 330.204 510.96C325.464 511.224 320.604 511.428 315.564 511.56C316.392 507.588 318.84 495.12 321.036 475.728C323.681 451.655 324.999 427.454 324.984 403.236C324.984 398.028 324.928 392.676 324.816 387.18C324.736 382.812 324.604 378.356 324.42 373.812C324.42 373.704 324.42 373.608 324.42 373.5L338.268 373.548Z" fill="#0972D3"/>
<path opacity="0.7" d="M338.268 373.548C338.268 382.86 338.196 391.66 338.052 399.948C337.5 432.996 335.952 458.244 334.356 476.4C332.676 495.456 330.924 506.712 330.204 510.96C325.464 511.224 320.604 511.428 315.564 511.56C316.392 507.588 318.84 495.12 321.036 475.728C323.681 451.655 324.999 427.454 324.984 403.236C324.984 398.028 324.928 392.676 324.816 387.18C324.736 382.812 324.604 378.356 324.42 373.812C324.42 373.704 324.42 373.608 324.42 373.5L338.268 373.548Z" fill="white"/>
<path d="M317.232 486.149C319.355 484.973 320.957 483.04 321.72 480.737C321.949 479.953 322.106 479.149 322.188 478.337C322.188 478.217 322.02 478.205 321.996 478.337C321.801 479.087 321.528 479.815 321.18 480.509C320.858 481.198 320.481 481.86 320.052 482.489C319.22 483.741 318.205 484.862 317.04 485.813C316.872 486.005 317.052 486.257 317.232 486.149Z" fill="#0972D3"/>
<path d="M322.032 473.463C323.135 472.95 324.056 472.113 324.672 471.063C324.976 470.554 325.217 470.01 325.392 469.443C325.593 468.899 325.682 468.319 325.656 467.739C325.656 467.643 325.512 467.655 325.476 467.739C325.248 468.231 325.104 468.759 324.864 469.263C324.622 469.759 324.337 470.233 324.012 470.679C323.7 471.111 323.376 471.531 323.028 471.879C322.656 472.306 322.255 472.707 321.828 473.079C321.777 473.107 321.739 473.153 321.722 473.208C321.706 473.263 321.711 473.323 321.738 473.373C321.765 473.424 321.812 473.462 321.867 473.479C321.922 473.496 321.981 473.49 322.032 473.463Z" fill="white"/>
<path d="M333.024 473.53C333.625 474.677 334.569 475.608 335.724 476.194C335.791 476.232 335.87 476.243 335.944 476.225C336.019 476.207 336.084 476.16 336.125 476.096C336.167 476.031 336.182 475.953 336.168 475.878C336.153 475.802 336.11 475.735 336.048 475.69C335.199 474.873 334.398 474.007 333.648 473.098C332.912 472.159 332.363 471.088 332.028 469.942C332.028 469.846 331.824 469.882 331.848 469.942C332.004 471.203 332.403 472.422 333.024 473.53Z" fill="#0972D3"/>
<path d="M330 463.755C330.103 464.284 330.244 464.805 330.42 465.315C330.604 466.26 331.151 467.096 331.944 467.643C332.34 467.847 332.592 467.259 332.232 467.031C331.909 466.795 331.656 466.475 331.5 466.107C331.292 465.717 331.103 465.316 330.936 464.907C330.768 464.463 330.588 464.019 330.444 463.562C330.3 463.107 330.168 462.615 330 462.159C330 462.133 329.99 462.109 329.972 462.091C329.954 462.073 329.93 462.063 329.904 462.062C329.879 462.063 329.854 462.073 329.836 462.091C329.818 462.109 329.808 462.133 329.808 462.159C329.812 462.696 329.877 463.231 330 463.755Z" fill="white"/>
<path d="M338.304 462.156C338.628 462.264 338.748 461.772 338.484 461.616C336.004 460.303 334.142 458.065 333.3 455.388C333.3 455.28 333.108 455.316 333.12 455.388C333.246 456.894 333.801 458.333 334.72 459.532C335.639 460.732 336.883 461.643 338.304 462.156Z" fill="#0972D3"/>
<path d="M334.62 454.681C334.848 454.921 335.256 454.549 335.052 454.297C333.822 452.9 333.182 451.081 333.264 449.221C333.264 449.196 333.254 449.171 333.236 449.153C333.218 449.135 333.194 449.125 333.168 449.125C333.143 449.125 333.118 449.135 333.1 449.153C333.082 449.171 333.072 449.196 333.072 449.221C332.9 450.189 332.95 451.183 333.218 452.129C333.486 453.075 333.965 453.948 334.62 454.681Z" fill="white"/>
<path d="M321.288 459.292C322.505 458.84 323.576 458.064 324.384 457.048C325.206 456.031 325.818 454.86 326.184 453.604C326.184 453.484 326.052 453.448 326.004 453.604C325.542 454.758 324.852 455.807 323.976 456.688C323.565 457.11 323.132 457.51 322.68 457.888C322.188 458.284 321.648 458.596 321.132 458.956C320.952 459.016 321.036 459.364 321.288 459.292Z" fill="#0972D3"/>
<path d="M322.368 462.159C322.932 461.705 323.443 461.19 323.892 460.623C324.327 460.047 324.728 459.446 325.092 458.823C325.097 458.803 325.095 458.782 325.088 458.763C325.08 458.744 325.067 458.728 325.049 458.717C325.032 458.707 325.011 458.702 324.991 458.703C324.971 458.705 324.951 458.713 324.936 458.727C324.097 459.875 323.139 460.933 322.08 461.883C322.043 461.921 322.023 461.972 322.024 462.025C322.026 462.078 322.048 462.128 322.086 462.165C322.124 462.201 322.175 462.221 322.228 462.22C322.281 462.219 322.331 462.197 322.368 462.159Z" fill="#0972D3"/>
<path d="M320.472 445.33C321.783 444.503 322.877 443.376 323.664 442.042C324.446 440.556 325.042 438.981 325.44 437.35C325.44 437.242 325.296 437.194 325.26 437.35C324.715 438.852 324.02 440.295 323.184 441.658C322.364 442.922 321.374 444.069 320.244 445.066C320.233 445.099 320.231 445.135 320.238 445.169C320.245 445.203 320.261 445.235 320.284 445.262C320.307 445.289 320.336 445.309 320.369 445.321C320.402 445.332 320.438 445.336 320.472 445.33Z" fill="#0972D3"/>
<path d="M321.216 449.027C322.126 448.332 322.889 447.463 323.46 446.471C324.015 445.472 324.419 444.396 324.66 443.279C324.66 443.159 324.516 443.135 324.48 443.279C324.103 444.32 323.587 445.305 322.944 446.207C322.339 447.098 321.661 447.937 320.916 448.715C320.712 448.871 321 449.195 321.216 449.027Z" fill="#0972D3"/>
<path d="M330.84 446.986C330.96 447.142 331.26 446.986 331.164 446.818C329.939 444.712 329.336 442.303 329.424 439.87C329.424 439.75 329.256 439.714 329.244 439.87C328.992 442.294 329.172 445.018 330.84 446.986Z" fill="white"/>
<path d="M337.2 437.509C337.249 437.54 337.307 437.553 337.365 437.547C337.422 437.542 337.477 437.517 337.519 437.478C337.561 437.438 337.589 437.386 337.599 437.329C337.608 437.271 337.599 437.213 337.572 437.161C336.501 435.673 335.52 434.122 334.632 432.517C333.772 430.876 333.103 429.14 332.64 427.345C332.64 427.237 332.46 427.285 332.46 427.345C332.648 431.224 334.35 434.873 337.2 437.509Z" fill="#0972D3"/>
<path d="M334.176 439.286C334.368 439.43 334.692 439.19 334.5 438.986C333.99 438.454 333.547 437.862 333.18 437.222C332.82 436.552 332.615 435.81 332.58 435.05C332.58 434.93 332.388 434.954 332.388 435.05C332.34 435.846 332.477 436.642 332.787 437.377C333.097 438.112 333.573 438.765 334.176 439.286Z" fill="white"/>
<path d="M326.004 430.214C328.481 427.472 329.775 423.862 329.604 420.17C329.604 420.074 329.436 420.062 329.424 420.17C328.853 423.67 327.632 427.032 325.824 430.082C325.74 430.202 325.908 430.31 326.004 430.214Z" fill="#0972D3"/>
<path d="M328.8 432.002C328.996 431.643 329.153 431.265 329.268 430.874C329.375 430.505 329.451 430.127 329.496 429.746C329.496 429.374 329.568 429.002 329.568 428.63C329.568 428.258 329.568 428.246 329.568 428.054C329.55 427.818 329.55 427.581 329.568 427.346C329.568 427.202 329.352 427.214 329.388 427.346C329.412 427.553 329.412 427.762 329.388 427.97L329.316 428.546C329.256 428.918 329.196 429.302 329.112 429.674C329.028 430.046 328.932 430.418 328.836 430.79C328.74 431.162 328.656 431.534 328.548 431.894C328.44 432.254 328.8 432.17 328.8 432.002Z" fill="white"/>
<path d="M338.256 418.452C338.484 418.56 338.712 418.236 338.508 418.08C336.405 416.153 334.919 413.648 334.236 410.88C334.236 410.784 334.044 410.82 334.056 410.88C334.572 413.832 335.364 417.108 338.256 418.452Z" fill="#0972D3"/>
<path d="M340.32 409.572C340.366 409.565 340.409 409.544 340.443 409.511C340.477 409.479 340.5 409.437 340.509 409.391C340.518 409.345 340.513 409.298 340.494 409.255C340.475 409.212 340.444 409.176 340.404 409.152C339.125 408.74 337.913 408.146 336.804 407.388C335.674 406.577 334.777 405.485 334.2 404.22C334.2 404.112 333.984 404.22 334.032 404.22C334.896 406.944 337.368 409.488 340.32 409.572Z" fill="#0972D3"/>
<path d="M319.2 415.693C321.209 414.389 322.914 412.668 324.199 410.647C325.485 408.626 326.322 406.353 326.652 403.981C326.658 403.966 326.659 403.951 326.657 403.935C326.655 403.92 326.65 403.905 326.641 403.893C326.632 403.88 326.62 403.87 326.607 403.862C326.593 403.855 326.578 403.852 326.562 403.852C326.547 403.852 326.531 403.855 326.518 403.862C326.504 403.87 326.492 403.88 326.483 403.893C326.474 403.905 326.469 403.92 326.467 403.935C326.465 403.951 326.467 403.966 326.472 403.981C325.274 408.5 322.647 412.511 318.984 415.417C318.967 415.45 318.959 415.487 318.963 415.524C318.966 415.561 318.98 415.596 319.003 415.625C319.026 415.654 319.056 415.676 319.091 415.688C319.126 415.7 319.164 415.702 319.2 415.693Z" fill="#0972D3"/>
<path d="M322.152 419.181C323.514 418.585 324.676 417.61 325.5 416.373C326.381 415.185 326.998 413.823 327.312 412.377C327.305 412.356 327.291 412.338 327.273 412.325C327.254 412.312 327.232 412.305 327.21 412.305C327.188 412.305 327.166 412.312 327.147 412.325C327.129 412.338 327.115 412.356 327.108 412.377C326.62 413.724 325.919 414.984 325.032 416.109C324.604 416.653 324.131 417.159 323.616 417.621C323.088 418.113 322.524 418.557 322.008 419.037C321.912 419.073 322.032 419.217 322.152 419.181Z" fill="white"/>
<path d="M323.304 424.605C324.366 423.489 325.021 422.047 325.164 420.513C325.164 420.393 325.008 420.369 324.984 420.513C324.8 421.222 324.542 421.91 324.216 422.565C323.861 423.213 323.46 423.835 323.016 424.425C322.992 424.463 322.984 424.51 322.995 424.553C323.005 424.597 323.032 424.635 323.07 424.659C323.108 424.683 323.154 424.691 323.198 424.681C323.242 424.671 323.28 424.643 323.304 424.605Z" fill="#0972D3"/>
<path d="M331.2 409.643C331.296 409.811 331.584 409.643 331.512 409.475C331.154 408.59 330.861 407.679 330.636 406.751C330.418 405.803 330.338 404.83 330.396 403.859C330.396 403.751 330.216 403.739 330.204 403.859C329.892 405.844 330.242 407.877 331.2 409.643Z" fill="#0972D3"/>
<path d="M339 397.384C339.288 397.468 339.396 397.06 339.156 396.916C338.044 396.323 337.048 395.535 336.216 394.588C335.387 393.593 334.863 392.381 334.704 391.096C334.704 391.071 334.694 391.046 334.676 391.028C334.658 391.01 334.634 391 334.608 391C334.583 391 334.558 391.01 334.54 391.028C334.522 391.046 334.512 391.071 334.512 391.096C334.632 393.736 336.336 396.7 339 397.384Z" fill="#0972D3"/>
<path d="M322.056 395.747C324.354 393.935 326.148 391.563 327.264 388.859C327.273 388.848 327.279 388.835 327.283 388.821C327.286 388.807 327.286 388.792 327.283 388.778C327.28 388.764 327.274 388.751 327.265 388.74C327.256 388.729 327.245 388.72 327.232 388.713C327.219 388.707 327.205 388.703 327.191 388.703C327.177 388.703 327.163 388.706 327.15 388.712C327.137 388.718 327.125 388.726 327.116 388.737C327.107 388.748 327.1 388.761 327.096 388.775C325.7 391.275 323.918 393.538 321.816 395.483C321.66 395.627 321.888 395.867 322.056 395.747Z" fill="#0972D3"/>
<path d="M323.436 398.115C324.649 396.761 325.615 395.206 326.292 393.519C326.294 393.499 326.29 393.478 326.279 393.461C326.269 393.444 326.253 393.43 326.234 393.422C326.216 393.414 326.195 393.412 326.175 393.416C326.155 393.421 326.138 393.432 326.124 393.447C325.236 394.995 324.156 396.411 323.172 397.887C323.154 397.923 323.149 397.964 323.157 398.003C323.165 398.042 323.185 398.077 323.216 398.104C323.246 398.13 323.284 398.145 323.324 398.147C323.364 398.149 323.403 398.138 323.436 398.115Z" fill="#0972D3"/>
<path d="M341.148 386.882C341.328 386.882 341.472 386.618 341.256 386.546C340.079 386.237 338.977 385.689 338.021 384.936C337.065 384.182 336.275 383.239 335.7 382.166C335.7 382.058 335.472 382.106 335.52 382.166C336.432 384.542 338.52 386.738 341.148 386.882Z" fill="#0972D3"/>
<path d="M337.44 382.054C337.752 382.462 338.097 382.843 338.472 383.194C338.856 383.546 339.278 383.852 339.732 384.106C339.912 384.214 340.056 383.914 339.876 383.806C339.46 383.551 339.059 383.27 338.676 382.966C338.279 382.668 337.917 382.325 337.596 381.946C337.512 381.862 337.356 381.958 337.44 382.054Z" fill="#0972D3"/>
<path d="M322.8 387.603C324.279 386.692 325.378 385.277 325.896 383.619C325.904 383.597 325.903 383.572 325.893 383.551C325.882 383.53 325.864 383.513 325.842 383.505C325.831 383.501 325.819 383.5 325.808 383.5C325.796 383.501 325.784 383.504 325.774 383.509C325.752 383.519 325.736 383.537 325.728 383.559C325.148 385.139 324.07 386.487 322.656 387.399C322.5 387.507 322.632 387.711 322.8 387.603Z" fill="#0972D3"/>
<path d="M334.296 491.713C334.325 491.738 334.358 491.758 334.394 491.77C334.429 491.783 334.467 491.788 334.505 491.786C334.543 491.783 334.58 491.774 334.614 491.757C334.649 491.741 334.679 491.717 334.704 491.689C334.73 491.661 334.749 491.628 334.761 491.592C334.774 491.556 334.779 491.518 334.777 491.48C334.775 491.442 334.765 491.405 334.748 491.371C334.732 491.337 334.709 491.306 334.68 491.281C333.451 490.003 332.364 488.595 331.44 487.081C330.548 485.523 329.935 483.822 329.628 482.053C329.628 481.945 329.436 481.957 329.448 482.053C329.592 485.677 331.2 489.601 334.296 491.713Z" fill="#0972D3"/>
<path d="M329.304 494.29C329.338 494.33 329.386 494.355 329.437 494.36C329.489 494.364 329.541 494.348 329.58 494.314C329.62 494.281 329.645 494.233 329.649 494.181C329.654 494.13 329.638 494.078 329.604 494.038C328.392 492.566 327.696 490.736 327.624 488.83C327.624 488.805 327.614 488.781 327.596 488.763C327.578 488.744 327.554 488.734 327.528 488.734C327.503 488.734 327.478 488.744 327.46 488.763C327.442 488.781 327.432 488.805 327.432 488.83C327.331 489.822 327.446 490.823 327.769 491.766C328.092 492.709 328.616 493.57 329.304 494.29Z" fill="white"/>
<path d="M320.58 496.8C323.074 493.913 324.627 490.334 325.032 486.54C325.032 486.432 324.876 486.396 324.852 486.54C323.739 490.058 322.208 493.43 320.292 496.584C320.184 496.704 320.4 496.968 320.58 496.8Z" fill="#0972D3"/>
<path d="M321.372 501.813C321.968 501.045 322.445 500.191 322.788 499.281C323.104 498.374 323.302 497.431 323.376 496.473C323.381 496.459 323.383 496.443 323.381 496.428C323.379 496.412 323.374 496.398 323.365 496.385C323.356 496.372 323.344 496.362 323.33 496.355C323.317 496.347 323.301 496.344 323.286 496.344C323.27 496.344 323.255 496.347 323.241 496.355C323.228 496.362 323.216 496.372 323.207 496.385C323.198 496.398 323.193 496.412 323.191 496.428C323.189 496.443 323.191 496.459 323.196 496.473C323.007 497.387 322.726 498.28 322.356 499.137C321.995 499.994 321.566 500.821 321.072 501.609C321.045 501.649 321.035 501.698 321.044 501.745C321.053 501.792 321.08 501.834 321.12 501.861C321.16 501.888 321.209 501.898 321.256 501.889C321.303 501.88 321.345 501.853 321.372 501.813Z" fill="white"/>
<path d="M314.94 498.002C316.211 497.301 317.324 496.346 318.21 495.196C319.096 494.046 319.735 492.726 320.088 491.318C320.088 491.296 320.079 491.275 320.064 491.259C320.048 491.243 320.027 491.234 320.004 491.234C319.982 491.234 319.961 491.243 319.945 491.259C319.929 491.275 319.92 491.296 319.92 491.318C319.391 492.623 318.662 493.837 317.76 494.918C316.846 495.959 315.829 496.903 314.724 497.738C314.714 497.771 314.712 497.805 314.719 497.838C314.725 497.871 314.74 497.903 314.761 497.929C314.782 497.955 314.81 497.975 314.841 497.988C314.873 498.001 314.907 498.006 314.94 498.002Z" fill="#0972D3"/>
<path d="M315.78 512.176C316.942 511.374 317.883 510.293 318.516 509.032C319.196 507.8 319.659 506.46 319.884 505.072C319.884 504.964 319.74 504.928 319.704 505.072C319.294 506.371 318.722 507.612 318 508.768C317.292 509.968 316.368 510.904 315.6 511.984C315.594 512.009 315.594 512.036 315.6 512.061C315.607 512.086 315.619 512.11 315.637 512.129C315.655 512.148 315.678 512.162 315.703 512.171C315.728 512.179 315.754 512.18 315.78 512.176Z" fill="white"/>
<path d="M331.2 509.556C331.368 509.652 331.62 509.436 331.452 509.268C330.097 507.993 328.923 506.54 327.96 504.948C327.011 503.326 326.411 501.524 326.196 499.656C326.189 499.638 326.177 499.622 326.161 499.611C326.145 499.6 326.126 499.594 326.106 499.594C326.087 499.594 326.067 499.6 326.051 499.611C326.035 499.622 326.023 499.638 326.016 499.656C326.148 503.436 327.864 507.6 331.2 509.556Z" fill="#0972D3"/>
<path d="M330 503.283C330.234 503.648 330.504 503.989 330.804 504.303C331.119 504.621 331.479 504.892 331.872 505.107C332.112 505.251 332.364 504.903 332.124 504.747C330.707 503.851 329.685 502.447 329.268 500.823C329.268 500.797 329.258 500.773 329.24 500.755C329.222 500.737 329.198 500.727 329.172 500.727C329.147 500.727 329.122 500.737 329.104 500.755C329.086 500.773 329.076 500.797 329.076 500.823C329.213 501.697 329.527 502.534 330 503.283Z" fill="#0972D3"/>
<path d="M478.38 311.868C504 315.6 527.928 293.76 534.288 280.452C540.648 267.144 545.016 248.868 543.228 244.296C541.44 239.724 529.32 263.772 529.32 263.772C529.32 263.772 541.236 222.456 537.072 216.3C532.908 210.144 512.64 255.6 512.64 255.6C512.64 255.6 521.652 223.368 517.332 222.708C510.336 221.64 496.704 262.392 496.704 262.392C496.704 262.392 500.712 245.472 496.548 246.468C489.888 248.076 468.96 310.5 478.38 311.868Z" fill="#263238"/>
<path d="M478.38 311.866C494.832 314.158 510.984 306.166 522.78 295.138C526.788 291.453 530.244 287.209 533.04 282.538C535.549 277.71 537.617 272.665 539.22 267.466C540.929 262.306 542.201 257.011 543.024 251.638C543.444 249.337 543.444 246.979 543.024 244.678C542.412 242.098 538.224 248.926 537.66 249.718C534.768 254.314 532.2 259.126 529.74 263.962L528.924 263.65C530.712 256.822 541.092 219.682 536.124 216.286C534.924 216.55 533.928 217.846 533.064 218.818C529.368 223.522 526.584 228.91 523.74 234.178C520.008 241.282 516.54 248.578 513.204 255.85L512.16 255.478C513.924 249.082 515.532 242.638 516.792 236.146C517.473 232.924 517.902 229.654 518.076 226.366C518.076 225.334 518.148 223.966 517.464 223.246C514.02 222.754 509.712 232.078 508.212 234.85C503.94 243.823 500.198 253.039 497.004 262.45L496.524 262.306C501.06 242.554 496.416 241.198 488.592 259.762C485.496 266.278 470.172 309.346 478.44 311.818L478.38 311.866ZM478.38 311.866C470.076 309.466 485.328 266.17 488.352 259.738C496.2 240.37 501.468 242.446 496.944 262.474L496.464 262.342C499.58 252.86 503.246 243.568 507.444 234.514C508.852 231.473 510.518 228.558 512.424 225.802C513.36 224.303 514.711 223.106 516.312 222.358C521.22 220.87 518.016 233.95 517.752 236.338C516.552 242.89 514.908 249.346 513.168 255.766L512.136 255.394C515.436 248.038 518.904 240.766 522.636 233.614C526.104 227.482 529.08 220.714 534.348 215.854C542.472 210.814 536.304 237.334 535.704 240.454C534 248.338 531.96 256.138 529.704 263.89L528.9 263.566C530.1 261.622 541.548 238.282 543.588 244.486C544.034 246.865 544.034 249.306 543.588 251.686C541.808 262.485 538.329 272.935 533.28 282.646C522.072 300.418 499.98 314.794 478.404 311.83L478.38 311.866Z" fill="#455A64"/>
<path d="M534.288 280.451C532.268 284.388 529.707 288.024 526.68 291.251C533.796 282.971 540.276 259.571 537.312 258.551C534.348 257.531 524.16 274.799 524.16 274.799C524.16 274.799 527.52 253.451 523.14 252.359C518.76 251.267 509.208 268.187 509.208 268.187C509.208 268.187 509.688 251.183 506.808 251.483C503.928 251.783 495.312 272.147 495.312 272.147C495.312 272.147 495.54 260.015 492.912 260.147C490.284 260.279 484.392 271.955 482.112 276.947C486.912 261.803 493.308 247.331 496.512 246.587C500.568 245.615 496.872 261.623 496.68 262.475C497.136 261.131 510.42 221.771 517.296 222.875C521.508 223.511 513.036 254.159 512.616 255.707C513.432 253.919 532.944 210.395 537.036 216.443C541.128 222.491 529.596 262.811 529.284 263.891C529.632 263.231 541.428 239.891 543.18 244.451C544.932 249.011 540.648 267.143 534.288 280.451Z" fill="#EBEBEB"/>
<path d="M324.432 369.315C317.46 375.375 312.432 389.331 314.364 391.971C316.296 394.611 321.312 381.831 321.312 381.831C321.312 381.831 315.792 409.683 320.94 409.491C324.288 409.371 327.384 394.611 327.384 394.611C327.384 394.611 328.524 417.483 334.332 416.211C338.808 415.215 335.532 394.491 335.532 394.491C335.532 394.491 339.876 406.287 343.224 404.919C346.572 403.551 339.876 386.055 339.876 386.055C339.876 386.055 343.224 392.763 345.084 391.203C346.944 389.643 342.768 373.431 338.22 369.327C333.672 365.223 324.432 369.315 324.432 369.315Z" fill="#EBEBEB"/>
<path d="M324.48 377.125C324.66 381.925 324.288 389.569 325.836 389.377C327.384 389.185 328.368 377.125 328.368 377.125C328.368 377.125 329.328 393.457 330.888 393.457C332.448 393.457 334.2 378.877 334.2 378.877C334.2 378.877 334.824 389.173 336.6 388.789C338.376 388.405 339.504 345.661 338.928 332.389C338.208 315.481 350.352 311.401 368.82 312.373C387.288 313.345 448.128 316.645 464.82 316.453C481.512 316.261 497.22 312.181 497.676 309.649C498.132 307.117 472.992 241.417 450.24 222.757C427.488 204.097 393.096 187.201 349.944 190.129C306.792 193.057 297.888 204.529 302.316 238.525C304.716 256.993 318.696 294.625 323.016 329.017C325.704 350.401 324.06 366.085 324.48 377.125Z" fill="#263238"/>
<path d="M378.12 221.127C367.548 232.743 367.452 247.251 393.288 281.127C419.124 315.003 453.744 336.915 458.016 336.519C462.288 336.123 449.616 323.115 449.616 323.115C449.616 323.115 475.86 348.183 479.544 346.443C483.228 344.703 467.544 319.227 467.544 319.227C467.544 319.227 478.092 331.227 480.3 329.331C482.508 327.435 469.5 304.059 469.5 304.059C469.5 304.059 475.5 313.587 478.056 312.459C481.8 310.707 474.6 267.375 458.94 241.659C443.28 215.943 387.072 211.311 378.12 221.127Z" fill="#263238"/>
<path d="M378.12 221.126C369.876 229.694 370.188 240.554 374.688 250.91C378.828 260.75 384.96 269.606 391.284 278.162C404.111 295.245 419.294 310.423 436.38 323.246C441.989 327.597 447.959 331.463 454.224 334.802C456.24 335.714 460.152 337.742 457.728 333.602C455.276 329.926 452.462 326.505 449.328 323.39L450 322.802C456.264 328.67 462.636 334.454 469.332 339.818C472.024 342.111 474.966 344.091 478.104 345.722C478.692 345.986 479.448 346.082 479.496 345.878C479.669 345.343 479.669 344.768 479.496 344.234C478.536 340.834 477.187 337.556 475.476 334.466C472.86 329.402 469.992 324.434 467.076 319.538L468 318.854C470.944 322.383 474.291 325.557 477.972 328.31C478.524 328.646 479.448 329.186 479.952 328.958C480.288 327.602 479.328 325.646 478.896 324.254C476.025 317.416 472.756 310.752 469.104 304.298L469.896 303.83C470.724 305.15 477.372 315.014 478.296 311.198C478.674 308.515 478.674 305.792 478.296 303.11C477.476 295.823 476.137 288.605 474.288 281.51C470.604 267.362 465.792 253.274 458.1 240.782C454.044 234.674 448.008 230.126 441.564 226.718C428.532 219.974 413.76 216.806 399.132 216.434C395.463 216.349 391.794 216.578 388.164 217.118C384.564 217.754 380.748 218.534 378.096 221.15L378.12 221.126ZM378.12 221.126C380.76 218.498 384.636 217.694 388.176 217.034C391.813 216.48 395.49 216.231 399.168 216.29C419.412 216.782 446.244 223.034 458.508 240.506C466.32 253.034 471.192 267.122 474.972 281.306C475.8 284.522 485.136 321.998 474.216 310.874C472.306 308.845 470.595 306.639 469.104 304.286L469.884 303.806C473.594 310.283 476.916 316.975 479.832 323.846C480.538 325.404 480.946 327.081 481.032 328.79C479.688 334.01 468.684 321.254 467.076 319.574L468 318.89C470.592 323.378 482.736 342.614 480.264 346.49C477.252 350.486 452.88 326.51 449.316 323.354L450 322.802C453.146 325.984 455.961 329.478 458.4 333.23C463.044 342.47 446.796 331.442 444.648 330.026C418.03 311.916 395.693 288.207 379.2 260.558C372.072 248.102 366.576 232.886 378.084 221.126H378.12Z" fill="#455A64"/>
<path d="M467.544 319.2C467.976 319.896 483.24 344.676 479.544 346.392C475.848 348.108 451.488 324.852 449.724 323.184C450.924 324.384 462.024 336.108 457.968 336.48C454.62 336.792 432.624 323.376 410.844 301.272C420.444 310.26 438.78 321.816 441.756 321.672C444.732 321.528 441.876 312.936 441.756 312.576C442.248 312.972 458.676 326.136 462.504 325.104C466.332 324.072 459.6 306.912 459.6 306.912C459.6 306.912 468.108 315.312 470.04 314.82C471.972 314.328 464.292 295.356 464.04 294.828C464.232 295.032 471.048 302.328 473.292 301.68C476.892 300.636 475.248 284.508 475.248 284.508L475.512 285.072C478.98 299.76 479.928 311.472 478.008 312.384C475.668 313.488 470.16 305.184 469.524 304.128C470.424 305.772 482.4 327.432 480.324 329.328C478.248 331.224 468 319.644 467.544 319.2Z" fill="#EBEBEB"/>
<path d="M300 73.4873C355.982 73.4873 401.364 65.3263 401.364 55.2592C401.364 45.1922 355.982 37.0312 300 37.0312C244.018 37.0312 198.636 45.1922 198.636 55.2592C198.636 65.3263 244.018 73.4873 300 73.4873Z" fill="#0972D3"/>
<path opacity="0.1" d="M198.636 55.2579C198.636 52.9779 200.952 50.8059 205.2 48.7899C279.228 61.9899 323.94 52.5939 354.852 39.9219C382.8 43.1979 401.364 48.8259 401.364 55.2579C401.364 65.3139 355.98 73.4739 300 73.4739C244.02 73.4739 198.636 65.3139 198.636 55.2579Z" fill="black"/>
<path d="M195.06 55.2633C195.792 47.9673 212.196 44.4633 218.22 42.8193C262.932 33.2193 309.42 33.6153 354.744 38.2833C421.836 45.9273 422.028 64.5753 354.744 72.5793C309.396 77.1873 262.908 77.2473 218.184 67.7793C211.992 66.0753 195.792 62.6073 195.024 55.3233L195.06 55.2633ZM195.18 55.2633C195.9 62.3673 212.364 65.8953 218.292 67.3953C236.148 71.2593 254.412 72.7953 272.628 73.6593C299.984 74.9945 327.403 74.2564 354.648 71.4513C420.876 64.0233 421.104 46.5273 354.648 38.7393C318.283 35.1212 281.647 35.1695 245.292 38.8833C236.209 39.7963 227.183 41.2104 218.256 43.1193C212.16 44.6553 195.9 48.1593 195.144 55.2633H195.18Z" fill="#0972D3"/>
<path d="M408 55.2613C407.34 63.2413 391.2 67.2013 384.66 69.1093C338.532 80.0293 290.172 79.5493 243.288 74.2693C174.696 65.6653 174.504 44.8693 243.288 35.9293C280.984 31.3391 319.102 31.3996 356.784 36.1093C366.192 37.2959 375.518 39.0632 384.708 41.4013C391.38 43.3933 407.34 47.2693 408.096 55.2613H408ZM407.88 55.2613C407.136 47.4253 390.996 43.5253 384.528 41.7253C366.12 37.2973 347.184 35.5333 328.32 34.5253C299.972 32.9833 271.544 33.8222 243.336 37.0333C175.584 45.4333 175.368 65.0773 243.336 73.8013C280.988 77.9595 318.986 77.9112 356.628 73.6573C366.029 72.6292 375.359 71.0262 384.564 68.8573C391.164 67.0333 407.16 63.1213 407.916 55.3093L407.88 55.2613Z" fill="#0972D3"/>
<path d="M192 56.7031C192.588 80.4991 192.6 106.683 192 130.467C191.412 106.683 191.412 80.4991 192 56.7031Z" fill="#0972D3"/>
<path d="M269.184 76.9219C269.772 100.718 269.784 126.902 269.184 150.686C268.584 126.902 268.596 100.718 269.184 76.9219Z" fill="#0972D3"/>
<path d="M408 56.7031C408.588 95.8111 408.588 139.695 408 178.803C407.412 139.695 407.412 95.8111 408 56.7031Z" fill="#0972D3"/>
<path d="M201.876 64.6094C202.464 94.0094 202.476 127.009 201.876 156.421C201.288 127.009 201.3 94.0214 201.876 64.6094Z" fill="#0972D3"/>
<path d="M353.124 82.0469C353.724 99.8669 353.712 118.587 353.124 136.419C352.524 118.587 352.512 99.8669 353.124 82.0469Z" fill="#0972D3"/>
<path d="M240.06 73.4922C240.648 95.3082 240.648 119.332 240.06 141.16C239.46 119.332 239.472 95.3082 240.06 73.4922Z" fill="#0972D3"/>
<path d="M387.168 67.0234C387.756 96.4234 387.768 129.423 387.168 158.835C386.58 129.435 386.592 96.4354 387.168 67.0234Z" fill="#0972D3"/>
<path d="M192 165.193C191.388 156.071 191.388 146.919 192 137.797C192.618 146.918 192.618 156.071 192 165.193Z" fill="#0972D3"/>
<path d="M371.448 109.443C370.836 100.321 370.836 91.1686 371.448 82.0469C372.066 91.1684 372.066 100.321 371.448 109.443Z" fill="#0972D3"/>
<path d="M215.844 124.669C215.232 115.548 215.232 106.395 215.844 97.2734C216.462 106.395 216.462 115.548 215.844 124.669Z" fill="#0972D3"/>
<path d="M334.92 106.068C334.302 96.9463 334.302 87.7934 334.92 78.6719C335.532 87.7936 335.532 96.9461 334.92 106.068Z" fill="#0972D3"/>
<path d="M251.1 108.06C250.482 98.9385 250.482 89.7856 251.1 80.6641C251.712 89.7858 251.712 98.9383 251.1 108.06Z" fill="#0972D3"/>
<path d="M345.6 54.5921C348.48 54.2321 370.572 51.3281 359.04 47.5241C352.752 45.4601 343.152 44.8961 336.528 44.1641C344.148 44.5721 351.84 44.7401 359.22 46.9601C360.756 47.4281 364.452 48.9401 362.328 50.8961C360.706 51.989 358.869 52.7214 356.94 53.0441C353.203 53.8352 349.412 54.3525 345.6 54.5921Z" fill="white"/>
<path d="M324.564 55.5516C329.88 55.1436 335.16 54.9756 340.488 55.0236C335.216 55.793 329.875 55.9701 324.564 55.5516Z" fill="white"/>
<path d="M295.644 53.5078C299.226 53.7054 302.791 54.1504 306.312 54.8398C302.708 54.9688 299.106 54.5191 295.644 53.5078Z" fill="white"/>
<path d="M324.564 43.8772C318.012 44.1172 311.472 44.3812 304.956 45.0052C301.692 45.2932 298.44 45.6772 295.224 46.2052C292.476 46.7572 289.488 47.1052 287.1 48.6892C286.934 48.8026 286.793 48.95 286.688 49.1217C286.582 49.2933 286.514 49.4854 286.488 49.6852C286.501 49.479 286.558 49.278 286.655 49.0958C286.753 48.9136 286.888 48.7544 287.052 48.6292C289.356 46.8652 292.38 46.3972 295.14 45.7492C298.368 45.1012 301.632 44.7172 304.896 44.3812C311.435 43.8033 318.004 43.627 324.564 43.8532V43.8772Z" fill="white"/>
<path d="M339.672 52.5647C341.496 52.2887 357.672 50.5247 349.14 48.5087C344.004 47.2487 338.4 47.0568 333.132 46.4688C339.132 46.7327 345.492 46.4687 351.264 48.6167C356.064 51.7127 341.208 52.5527 339.672 52.5647Z" fill="white"/>
<path d="M324.564 53.1253C328.353 52.6053 332.187 52.4967 336 52.8013C332.202 53.313 328.36 53.4176 324.54 53.1133L324.564 53.1253Z" fill="white"/>
<path d="M303.744 51.9235C306.329 51.7739 308.922 52.0372 311.424 52.7035C308.839 52.8596 306.245 52.5962 303.744 51.9235Z" fill="white"/>
<path d="M324.564 46.2963C319.908 46.7403 315.228 46.6563 310.572 47.1363C306.912 47.5683 301.068 47.5563 297.684 49.0803C297.456 49.2243 297.18 49.4043 297.144 49.7043C297.17 49.5594 297.228 49.422 297.313 49.3018C297.398 49.1815 297.508 49.0814 297.636 49.0083C301.584 46.9803 306.216 47.1003 310.524 46.5363C315.192 46.1283 319.884 46.2483 324.564 46.2963Z" fill="white"/>
<path d="M332.4 49.0584C330.552 60.1824 327.996 73.7904 326.04 83.9304C325.74 85.4664 325.464 86.9184 325.188 88.2744C324.912 89.6304 324.66 91.0344 324.42 92.2104C324.42 92.3184 324.42 92.4144 324.36 92.5104C324.264 93.0384 324.156 93.5424 324.072 94.0104C323.988 94.4784 323.928 94.7064 323.868 95.0304C323.808 95.3544 323.784 95.4264 323.748 95.6184L323.16 98.5824L309.492 96.8904V96.7344C309.588 96.1824 309.96 94.2144 310.512 91.2504C310.572 90.9744 310.62 90.6864 310.68 90.3864L310.824 89.6184C310.884 89.2344 310.956 88.8504 311.04 88.4184C311.268 87.2184 311.508 85.8384 311.772 84.3984C313.596 74.4624 316.128 60.3024 318.024 48.3984C323.004 48.5424 327.804 48.7704 332.4 49.0584Z" fill="#0972D3"/>
<path opacity="0.7" d="M332.4 49.0584C330.552 60.1824 327.996 73.7904 326.04 83.9304C325.74 85.4664 325.464 86.9184 325.188 88.2744C324.912 89.6304 324.66 91.0344 324.42 92.2104C324.42 92.3184 324.42 92.4144 324.36 92.5104C324.264 93.0384 324.156 93.5424 324.072 94.0104C323.988 94.4784 323.928 94.7064 323.868 95.0304C323.808 95.3544 323.784 95.4264 323.748 95.6184L323.16 98.5824L309.492 96.8904V96.7344C309.588 96.1824 309.96 94.2144 310.512 91.2504C310.572 90.9744 310.62 90.6864 310.68 90.3864L310.824 89.6184C310.884 89.2344 310.956 88.8504 311.04 88.4184C311.268 87.2184 311.508 85.8384 311.772 84.3984C313.596 74.4624 316.128 60.3024 318.024 48.3984C323.004 48.5424 327.804 48.7704 332.4 49.0584Z" fill="white"/>
<path d="M325.2 88.2734C324 94.4894 323.16 98.5814 323.16 98.5814L309.492 96.8894C309.492 96.8894 310.116 93.6014 311.064 88.4894L325.2 88.2734Z" fill="#0972D3"/>
<path d="M330.864 79.2033C329.298 79.6784 327.859 80.4985 326.652 81.6033C326.071 82.2339 325.604 82.9607 325.272 83.7513C325.104 84.1593 324.924 84.5673 324.78 84.9513C324.59 85.4443 324.369 85.9252 324.12 86.3913C324.06 86.4993 324.228 86.5833 324.288 86.4753C324.481 86.0539 324.714 85.652 324.984 85.2753L325.776 84.2193C326.239 83.5549 326.74 82.9178 327.276 82.3113C328.408 81.2408 329.68 80.3286 331.056 79.5993C331.087 79.5638 331.106 79.5203 331.112 79.4739C331.118 79.4276 331.11 79.3805 331.09 79.3384C331.07 79.2964 331.037 79.2612 330.997 79.2372C330.957 79.2132 330.911 79.2014 330.864 79.2033Z" fill="#0972D3"/>
<path d="M329.412 76.045C328.275 76.7036 327.283 77.5853 326.496 78.637C326.108 79.1528 325.755 79.694 325.44 80.257C325.142 80.8301 324.886 81.4236 324.672 82.033C324.672 82.141 324.804 82.201 324.852 82.105C325.158 81.5509 325.494 81.014 325.86 80.497C326.222 79.9714 326.623 79.474 327.06 79.009C327.883 78.066 328.769 77.18 329.712 76.357C329.832 76.201 329.592 75.925 329.412 76.045Z" fill="white"/>
<path d="M310.896 68.2069C310.596 68.0869 310.356 68.5549 310.596 68.7469C313.116 70.7989 315.228 73.5469 315.396 76.8589C315.396 76.8844 315.406 76.9088 315.424 76.9268C315.442 76.9448 315.467 76.9549 315.492 76.9549C315.517 76.9549 315.542 76.9448 315.56 76.9268C315.578 76.9088 315.588 76.8844 315.588 76.8589C315.936 73.4269 314.292 69.4789 310.896 68.2069Z" fill="#0972D3"/>
<path d="M320.016 67.4038C319.846 66.1674 319.282 65.0187 318.408 64.1278C318.372 64.0953 318.326 64.0755 318.277 64.0712C318.228 64.0669 318.179 64.0784 318.138 64.1039C318.096 64.1295 318.064 64.1678 318.045 64.2131C318.027 64.2585 318.024 64.3085 318.036 64.3558C318.492 65.4144 318.892 66.4959 319.236 67.5958C319.387 68.1468 319.495 68.7084 319.56 69.2758C319.56 69.5758 319.56 69.8638 319.62 70.1638C319.596 70.4233 319.596 70.6844 319.62 70.9438C319.63 70.9587 319.643 70.9708 319.659 70.9793C319.675 70.9877 319.692 70.9921 319.71 70.9921C319.728 70.9921 319.746 70.9877 319.761 70.9793C319.777 70.9708 319.79 70.9587 319.8 70.9438C320.026 70.4044 320.141 69.8247 320.136 69.2398C320.166 68.6252 320.126 68.0092 320.016 67.4038Z" fill="white"/>
<path d="M331.788 59.2297C330.096 60.1398 328.644 61.4392 327.553 63.0207C326.462 64.6023 325.762 66.4206 325.512 68.3257C325.512 68.4577 325.692 68.5057 325.74 68.3857C326.411 66.6955 327.268 65.0856 328.296 63.5857C329.376 62.0947 330.624 60.7336 332.016 59.5297C332.172 59.3617 331.968 59.1457 331.788 59.2297Z" fill="#0972D3"/>
<path d="M328.164 57.0865C327.316 57.7286 326.65 58.5806 326.232 59.5585C326.017 60.0263 325.845 60.5122 325.716 61.0105C325.56 61.5246 325.475 62.0575 325.464 62.5945C325.464 62.7145 325.632 62.7265 325.68 62.5945C325.836 62.1265 325.932 61.6345 326.112 61.1785C326.297 60.6951 326.518 60.2258 326.772 59.7745C327.24 58.8985 327.864 58.1305 328.416 57.2905C328.512 57.1705 328.308 56.9785 328.164 57.0865Z" fill="white"/>
<path d="M320.328 57.108C320.239 56.2558 320.033 55.4199 319.716 54.624C319.063 53.0484 317.945 51.709 316.512 50.784C316.344 50.676 316.164 50.928 316.308 51.06C317.394 52.0972 318.291 53.3153 318.96 54.66C319.285 55.3216 319.546 56.0128 319.74 56.724C319.847 57.1188 319.931 57.5195 319.992 57.924C319.992 58.248 320.184 58.836 319.992 59.124C319.92 59.22 319.992 59.34 320.124 59.256C320.22 59.1445 320.293 59.0149 320.338 58.8747C320.384 58.7346 320.401 58.5868 320.388 58.44C320.404 57.9951 320.384 57.5497 320.328 57.108Z" fill="#0972D3"/>
<path d="M318.696 83.4858C318.633 82.6477 318.286 81.8562 317.712 81.2418C317.532 81.0858 317.184 81.2418 317.28 81.5058C317.608 82.1594 317.885 82.8374 318.108 83.5338C318.292 84.2632 318.332 85.0211 318.228 85.7659C318.228 85.8619 318.36 85.9458 318.396 85.8378C318.686 85.09 318.789 84.2826 318.696 83.4858Z" fill="white"/>
<path d="M312.576 82.9304C312.032 82.0351 311.304 81.266 310.44 80.6744C310.248 80.5424 310.092 80.8304 310.212 80.9744C310.836 81.7358 311.409 82.5375 311.928 83.3744C312.446 84.2001 312.911 85.0578 313.32 85.9424C313.32 86.0384 313.536 85.9424 313.524 85.8704C313.427 84.8329 313.103 83.8293 312.576 82.9304Z" fill="#0972D3"/>
<path d="M336.42 134.103C335.016 136.983 338.448 148.335 335.64 151.095C327.912 158.703 312.396 158.703 303.84 157.095C295.284 155.487 280.836 149.895 276.384 139.959C274.776 136.359 282.084 127.047 281.832 123.855C281.58 120.663 274.26 118.467 276.48 107.487C278.7 96.5075 290.64 91.2035 297.504 90.7955C309.967 90.2538 322.387 92.5859 333.804 97.6115C340.044 100.491 349.26 109.767 347.34 120.795C345.42 131.823 337.812 131.235 336.42 134.103Z" fill="#0972D3"/>
<path opacity="0.7" d="M336.42 134.103C335.016 136.983 338.448 148.335 335.64 151.095C327.912 158.703 312.396 158.703 303.84 157.095C295.284 155.487 280.836 149.895 276.384 139.959C274.776 136.359 282.084 127.047 281.832 123.855C281.58 120.663 274.26 118.467 276.48 107.487C278.7 96.5075 290.64 91.2035 297.504 90.7955C309.967 90.2538 322.387 92.5859 333.804 97.6115C340.044 100.491 349.26 109.767 347.34 120.795C345.42 131.823 337.812 131.235 336.42 134.103Z" fill="white"/>
<path d="M334.692 125.788L284.4 116.404C285.036 114.532 301.116 106.42 311.928 108.448C322.74 110.476 334.8 123.82 334.692 125.788Z" fill="#0972D3"/>
<path opacity="0.1" d="M334.692 125.787L284.4 116.403C284.907 115.704 285.574 115.136 286.344 114.747C289.325 113.988 292.412 113.74 295.476 114.015C301.32 114.855 305.544 118.131 309.96 118.959C314.376 119.787 319.5 118.263 325.248 119.607C328.196 120.47 330.978 121.821 333.48 123.603C334.053 124.223 334.468 124.972 334.692 125.787Z" fill="black"/>
<path d="M338.208 127.961C338.004 128.273 333.096 125.705 328.836 125.837C322.668 126.029 316.38 132.917 307.62 131.273C298.86 129.629 295.512 120.929 289.824 118.505C285.912 116.837 280.392 117.461 280.32 117.077C280.248 116.693 289.392 114.365 295.2 115.205C301.008 116.045 305.208 119.657 309.6 120.485C313.992 121.313 319.2 119.513 324.96 120.809C330.72 122.105 338.4 127.637 338.208 127.961Z" fill="#0972D3"/>
<path opacity="0.1" d="M303.84 127.851C301.788 128.175 299.424 123.675 301.752 123.183C304.08 122.691 304.932 127.683 303.84 127.851Z" fill="black"/>
<path opacity="0.1" d="M312.384 129.461C314.184 130.505 318.012 127.169 315.984 125.861C313.956 124.553 311.436 128.909 312.384 129.461Z" fill="black"/>
<path d="M327.096 136.527C327.096 136.623 327.312 136.455 327.324 136.359C327.78 134.019 328.68 131.415 330.924 131.115C330.996 131.115 331.02 130.995 330.924 130.983C328.32 130.803 327.156 134.235 327.096 136.527Z" fill="#263238"/>
<path d="M329.844 140.691C335.352 141.963 336.924 133.323 331.812 132.135C326.7 130.947 325.2 139.623 329.844 140.691Z" fill="#263238"/>
<path d="M332.016 140.662C332.916 140.29 333.864 139.534 334.848 139.618C335.832 139.702 336.636 140.818 337.176 141.898C337.176 142.006 337.332 141.898 337.356 141.826C337.716 140.086 337.356 138.226 335.568 137.542C333.78 136.858 332.376 138.286 331.608 139.942C331.464 140.266 331.656 140.806 332.016 140.662Z" fill="#263238"/>
<path d="M289.584 129.485C289.584 129.569 289.416 129.341 289.428 129.245C289.86 126.845 289.956 124.145 287.952 123.041C287.88 123.041 287.952 122.885 287.952 122.909C290.532 123.665 290.4 127.325 289.584 129.485Z" fill="#263238"/>
<path d="M285.516 132.359C279.924 131.543 281.592 122.926 286.788 123.67C291.984 124.414 290.22 133.043 285.516 132.359Z" fill="#263238"/>
<path d="M283.5 131.543C282.804 130.883 282.192 129.827 281.244 129.551C280.296 129.275 279.132 130.043 278.244 130.835C278.148 130.907 278.076 130.835 278.1 130.703C278.4 128.939 279.396 127.271 281.316 127.355C283.236 127.439 284.028 129.203 284.136 131.039C284.16 131.387 283.788 131.819 283.5 131.543Z" fill="#263238"/>
<path d="M303.432 145.729C302.424 148.789 301.071 151.723 299.4 154.477C297.784 157.25 295.834 159.813 293.592 162.109C293.508 162.193 293.592 162.289 293.7 162.229C296.259 160.172 298.457 157.702 300.204 154.921C301.865 152.096 303.018 149.001 303.612 145.777C303.612 145.756 303.605 145.735 303.592 145.718C303.58 145.701 303.561 145.688 303.541 145.683C303.52 145.677 303.498 145.679 303.478 145.687C303.459 145.696 303.442 145.71 303.432 145.729Z" fill="#0972D3"/>
<path d="M305.484 150.148C304.404 158.212 300.42 165.844 295.524 172.252C295.512 172.265 295.502 172.28 295.495 172.297C295.488 172.313 295.484 172.331 295.484 172.348C295.484 172.366 295.488 172.384 295.495 172.4C295.502 172.417 295.512 172.432 295.524 172.444C295.537 172.457 295.552 172.467 295.568 172.474C295.585 172.481 295.602 172.484 295.62 172.484C295.638 172.484 295.656 172.481 295.672 172.474C295.689 172.467 295.704 172.457 295.716 172.444C301.956 166.624 304.968 158.548 305.664 150.16C305.676 150.064 305.496 150.004 305.484 150.148Z" fill="#0972D3"/>
<path d="M303.456 152.268C302.923 153.898 302.227 155.47 301.38 156.96C300.549 158.462 299.598 159.895 298.536 161.244C298.536 161.316 298.536 161.388 298.62 161.328C299.892 160.131 300.969 158.742 301.812 157.212C302.627 155.665 303.24 154.02 303.636 152.316C303.636 152.295 303.63 152.274 303.617 152.257C303.604 152.24 303.586 152.228 303.565 152.222C303.544 152.216 303.522 152.218 303.503 152.226C303.483 152.235 303.467 152.25 303.456 152.268Z" fill="white"/>
<path d="M313.116 160.611C310.948 157.891 309.363 154.753 308.46 151.395C308.46 151.311 308.292 151.323 308.304 151.395C308.436 153.166 308.913 154.894 309.708 156.483C310.543 158.079 311.647 159.521 312.972 160.743C313.068 160.863 313.2 160.719 313.116 160.611Z" fill="#0972D3"/>
<path d="M315.168 151.202C314.628 150.062 314.136 148.934 313.704 147.758C313.238 146.603 312.924 145.394 312.768 144.158C312.768 144.014 312.552 144.026 312.528 144.158C312.292 145.442 312.391 146.764 312.816 147.998C313.289 149.24 314.008 150.375 314.928 151.334C315.024 151.394 315.24 151.31 315.168 151.202Z" fill="white"/>
<path d="M300 137.605C299.796 137.929 299.544 138.205 299.352 138.529L298.704 139.513C298.272 140.161 297.828 140.785 297.396 141.409C296.964 142.033 296.544 142.609 296.112 143.233C295.68 143.857 295.176 144.433 294.756 145.117C294.743 145.144 294.739 145.174 294.744 145.204C294.749 145.233 294.763 145.26 294.784 145.281C294.805 145.302 294.832 145.316 294.862 145.321C294.891 145.326 294.921 145.322 294.948 145.309C296.181 144.345 297.247 143.186 298.104 141.877C298.553 141.231 298.954 140.553 299.304 139.849C299.484 139.489 299.652 139.141 299.808 138.781C299.964 138.421 300.048 138.049 300.18 137.677C300.216 137.569 300.06 137.521 300 137.605Z" fill="white"/>
<path d="M295.98 147.947C295.696 148.23 295.391 148.491 295.068 148.727C294.756 149.003 294.42 149.267 294.084 149.519C293.444 149.99 292.775 150.419 292.08 150.803C290.68 151.593 289.209 152.252 287.688 152.771C287.656 152.771 287.626 152.784 287.603 152.807C287.581 152.829 287.568 152.86 287.568 152.891C287.568 152.923 287.581 152.954 287.603 152.976C287.626 152.999 287.656 153.011 287.688 153.011C289.355 152.883 290.969 152.37 292.404 151.511C293.111 151.082 293.775 150.583 294.384 150.023C294.684 149.747 294.984 149.447 295.272 149.135C295.56 148.823 295.788 148.415 296.076 148.079C296.196 147.983 296.052 147.851 295.98 147.947Z" fill="#0972D3"/>
<path d="M339.108 152.583C338.731 152.254 338.33 151.953 337.908 151.683C337.452 151.359 337.02 150.999 336.588 150.639C335.745 149.926 334.944 149.165 334.188 148.359C333.44 147.556 332.743 146.706 332.1 145.815C331.491 144.898 330.938 143.944 330.444 142.959C330.384 142.851 330.216 142.959 330.24 143.043C330.827 145.27 331.933 147.326 333.468 149.043C334.22 149.865 335.07 150.591 336 151.203C336.902 151.92 337.945 152.439 339.06 152.727C339.074 152.723 339.086 152.715 339.097 152.704C339.107 152.694 339.115 152.681 339.119 152.667C339.124 152.653 339.125 152.639 339.123 152.624C339.122 152.609 339.116 152.596 339.108 152.583Z" fill="#0972D3"/>
<path d="M327.96 148.957C326.153 146.431 324.924 143.539 324.36 140.485C324.344 140.443 324.315 140.408 324.277 140.386C324.238 140.363 324.193 140.355 324.149 140.362C324.105 140.369 324.065 140.391 324.036 140.424C324.006 140.458 323.989 140.5 323.988 140.545C324.16 143.757 325.515 146.792 327.792 149.065C327.876 149.149 328.02 149.041 327.96 148.957Z" fill="white"/>
<path d="M333.348 156.779C331.828 155.674 330.381 154.471 329.016 153.179C327.68 151.826 326.452 150.369 325.344 148.823C325.33 148.8 325.311 148.781 325.29 148.765C325.268 148.749 325.243 148.738 325.217 148.732C325.191 148.726 325.163 148.725 325.137 148.729C325.11 148.734 325.085 148.743 325.062 148.757C325.039 148.772 325.019 148.79 325.004 148.812C324.988 148.834 324.977 148.858 324.971 148.885C324.965 148.911 324.964 148.938 324.968 148.965C324.972 148.991 324.982 149.016 324.996 149.039C325.862 150.804 327.05 152.392 328.5 153.719C329.888 155.066 331.516 156.141 333.3 156.887C333.348 156.971 333.42 156.839 333.348 156.779Z" fill="#0972D3"/>
<path d="M287.244 134.64C283.534 137.764 278.89 139.562 274.044 139.752C273.888 139.752 273.852 139.992 274.044 140.016C279 140.784 284.532 139.032 287.508 134.832C287.52 134.724 287.352 134.556 287.244 134.64Z" fill="#0972D3"/>
<path d="M291.492 132.623C290.981 133.721 290.345 134.756 289.596 135.707C288.867 136.664 288.065 137.563 287.196 138.395C287.064 138.515 287.196 138.719 287.388 138.635C288.469 137.991 289.405 137.129 290.136 136.103C290.849 135.069 291.37 133.915 291.672 132.695C291.696 132.599 291.6 132.527 291.492 132.623Z" fill="white"/>
<path d="M287.064 140.401C285.9 141.74 284.531 142.887 283.008 143.797C281.514 144.739 279.899 145.474 278.208 145.981C278.148 145.981 278.208 146.089 278.208 146.077C280.026 145.861 281.774 145.251 283.332 144.289C284.866 143.291 286.194 142.008 287.244 140.509C287.28 140.401 287.136 140.317 287.064 140.401Z" fill="#0972D3"/>
<path d="M322.032 150.313C321.523 149.317 321.074 148.291 320.688 147.241C320.688 147.121 320.496 147.241 320.508 147.241C320.706 148.37 321.053 149.467 321.54 150.505C322.041 151.526 322.706 152.458 323.508 153.265C323.568 153.337 323.688 153.265 323.628 153.169C323.052 152.281 322.536 151.297 322.032 150.313Z" fill="white"/>
<path d="M317.304 145.426C315.448 142.591 314.141 139.432 313.452 136.114C313.452 136.018 313.308 136.054 313.296 136.114C313.186 137.876 313.49 139.639 314.184 141.262C314.884 142.865 315.896 144.313 317.16 145.522C317.176 145.531 317.193 145.536 317.212 145.535C317.23 145.535 317.247 145.529 317.262 145.519C317.277 145.509 317.289 145.495 317.297 145.479C317.304 145.462 317.307 145.444 317.304 145.426Z" fill="#0972D3"/>
<path d="M349.812 119.736C348.489 121.169 347.082 122.524 345.6 123.792C344.09 125.048 342.443 126.131 340.692 127.02C340.572 127.08 340.692 127.284 340.788 127.248C344.686 126.064 347.972 123.414 349.956 119.856C350.004 119.76 349.884 119.664 349.812 119.736Z" fill="#0972D3"/>
<path d="M283.284 120.001C282.552 119.785 281.772 119.677 281.028 119.485C280.284 119.293 279.528 119.089 278.784 118.849C278.04 118.609 277.272 118.357 276.528 118.045C275.784 117.733 275.112 117.373 274.392 117.085C274.365 117.066 274.332 117.059 274.299 117.064C274.266 117.07 274.237 117.088 274.218 117.115C274.199 117.142 274.192 117.176 274.197 117.209C274.203 117.241 274.221 117.27 274.248 117.289C275.468 118.395 276.919 119.215 278.496 119.689C280.032 120.241 281.68 120.41 283.296 120.181C283.392 120.121 283.368 120.001 283.284 120.001Z" fill="#0972D3"/>
<path d="M279.18 115.97C278.103 115.177 277.11 114.276 276.216 113.282C275.363 112.253 274.611 111.144 273.972 109.97C273.9 109.838 273.732 109.97 273.756 110.066C274.033 111.458 274.672 112.753 275.61 113.819C276.548 114.886 277.75 115.685 279.096 116.138C279.118 116.143 279.14 116.141 279.16 116.132C279.18 116.123 279.196 116.107 279.206 116.088C279.216 116.068 279.219 116.046 279.214 116.024C279.209 116.003 279.197 115.983 279.18 115.97Z" fill="#0972D3"/>
<path d="M347.82 110.041C347.82 109.933 347.616 109.957 347.616 110.041C347.693 111.834 347.466 113.628 346.944 115.345C346.459 117.118 345.582 118.758 344.376 120.145C344.365 120.163 344.36 120.185 344.362 120.206C344.365 120.228 344.375 120.248 344.39 120.263C344.405 120.278 344.425 120.288 344.447 120.29C344.468 120.293 344.49 120.288 344.508 120.277C345.201 119.634 345.832 118.927 346.392 118.165C346.903 117.365 347.307 116.502 347.592 115.597C348.214 113.808 348.294 111.875 347.82 110.041Z" fill="#0972D3"/>
<path d="M295.932 92.1944C295.585 91.8236 295.18 91.5115 294.732 91.2704C294.284 91.0236 293.803 90.8418 293.304 90.7304C293.236 90.7033 293.159 90.7046 293.092 90.7338C293.024 90.7631 292.971 90.8179 292.944 90.8864C292.917 90.9548 292.918 91.0312 292.948 91.0987C292.977 91.1662 293.032 91.2193 293.1 91.2464C293.517 91.4395 293.918 91.6642 294.3 91.9184C294.672 92.1704 295.044 92.4104 295.392 92.6984C296.113 93.2921 296.729 94.0019 297.216 94.7984C297.232 94.8125 297.252 94.8217 297.272 94.8248C297.293 94.8279 297.315 94.8247 297.334 94.8158C297.353 94.8068 297.369 94.7925 297.38 94.7744C297.391 94.7564 297.397 94.7355 297.396 94.7144C297.126 93.7652 296.623 92.8988 295.932 92.1944Z" fill="#0972D3"/>
<path d="M280.404 96.4489C280.41 96.409 280.403 96.3682 280.383 96.3331C280.363 96.2981 280.332 96.2707 280.294 96.2555C280.257 96.2403 280.215 96.238 280.177 96.2492C280.138 96.2603 280.104 96.2842 280.08 96.3169C279.329 97.6772 278.96 99.2157 279.012 100.769C279.084 102.296 279.494 103.788 280.212 105.137C280.226 105.152 280.243 105.163 280.263 105.167C280.283 105.172 280.304 105.17 280.323 105.162C280.341 105.154 280.357 105.14 280.367 105.123C280.378 105.105 280.382 105.085 280.38 105.065C279.59 102.246 279.598 99.2632 280.404 96.4489Z" fill="#0972D3"/>
<path d="M282.492 103.383C282.492 103.294 282.457 103.208 282.394 103.145C282.331 103.082 282.245 103.047 282.156 103.047C282.067 103.047 281.982 103.082 281.919 103.145C281.856 103.208 281.82 103.294 281.82 103.383C281.791 104.472 281.989 105.556 282.403 106.564C282.816 107.572 283.435 108.483 284.22 109.239C284.304 109.311 284.424 109.239 284.364 109.119C283.346 107.359 282.708 105.405 282.492 103.383Z" fill="white"/>
<path d="M309.312 97.9216C309.282 97.8762 309.236 97.8432 309.183 97.8286C309.131 97.814 309.075 97.8188 309.025 97.842C308.976 97.8653 308.937 97.9055 308.914 97.9553C308.892 98.0051 308.888 98.0613 308.904 98.1136C309.272 99.4488 309.569 100.803 309.792 102.17C309.972 103.568 309.972 104.983 309.792 106.382C309.792 106.478 309.924 106.562 309.972 106.454C310.571 105.087 310.825 103.593 310.71 102.105C310.595 100.617 310.115 99.1801 309.312 97.9216Z" fill="#0972D3"/>
<path d="M315.6 95.3757C314.684 96.4003 313.985 97.6007 313.548 98.9037C313.133 100.217 312.907 101.583 312.876 102.96C312.876 102.985 312.886 103.01 312.904 103.028C312.922 103.046 312.946 103.056 312.972 103.056C312.997 103.056 313.022 103.046 313.04 103.028C313.058 103.01 313.068 102.985 313.068 102.96C313.316 101.648 313.698 100.365 314.208 99.1317C314.7 97.9317 315.204 96.7317 315.792 95.5317C315.804 95.3997 315.6 95.2677 315.6 95.3757Z" fill="white"/>
<path d="M317.256 100.582C316.387 101.772 315.729 103.104 315.312 104.518C315.312 104.614 315.444 104.686 315.48 104.59C316.085 103.275 316.787 102.008 317.58 100.798C317.688 100.63 317.4 100.402 317.256 100.582Z" fill="#0972D3"/>
<path d="M329.52 93.9831C327.941 94.263 326.456 94.931 325.2 95.9271C323.979 96.9652 323.022 98.2768 322.404 99.7551C322.391 99.7774 322.388 99.8038 322.395 99.8285C322.401 99.8533 322.418 99.8744 322.44 99.8871C322.462 99.8998 322.489 99.9032 322.513 99.8964C322.538 99.8897 322.559 99.8734 322.572 99.8511C323.407 98.5641 324.458 97.4314 325.68 96.5031C326.861 95.5369 328.179 94.7523 329.592 94.1751C329.617 94.1655 329.638 94.1463 329.649 94.1215C329.66 94.0968 329.661 94.0686 329.652 94.0431C329.642 94.0176 329.623 93.997 329.598 93.9858C329.574 93.9745 329.545 93.9735 329.52 93.9831Z" fill="#0972D3"/>
<path d="M344.028 115.598C343.56 116.39 343.032 117.158 342.516 117.914C342.005 118.692 341.396 119.402 340.704 120.026C340.632 120.026 340.704 120.23 340.824 120.17C341.582 119.601 342.286 118.962 342.924 118.262C343.554 117.553 344.057 116.741 344.412 115.862C344.508 115.55 344.172 115.346 344.028 115.598Z" fill="white"/>
<path d="M344.664 106.501C344.592 106.201 344.184 106.309 344.172 106.573C344.172 107.053 344.172 107.533 344.172 108.001C344.141 108.484 344.081 108.965 343.992 109.441C343.8 110.392 343.46 111.308 342.984 112.153C342.984 112.237 343.068 112.345 343.14 112.261C343.745 111.448 344.2 110.534 344.484 109.561C344.808 108.574 344.87 107.519 344.664 106.501Z" fill="#0972D3"/>
<path d="M334.476 110.641C333.81 112.4 332.927 114.069 331.848 115.609C331.776 115.705 331.848 115.825 331.98 115.741C333.422 114.421 334.427 112.692 334.86 110.785C334.896 110.569 334.584 110.401 334.476 110.641Z" fill="white"/>
<path d="M333.096 104.555C332.832 105.563 332.58 106.583 332.268 107.591C331.953 108.607 331.552 109.595 331.068 110.543C331.054 110.568 331.05 110.598 331.058 110.626C331.066 110.654 331.084 110.678 331.11 110.693C331.135 110.707 331.165 110.711 331.194 110.703C331.222 110.695 331.246 110.676 331.26 110.651C332.577 108.898 333.405 106.828 333.66 104.651C333.696 104.279 333.18 104.243 333.096 104.555Z" fill="#0972D3"/>
<path d="M329.268 100.371C328.357 100.998 327.595 101.818 327.036 102.771C326.457 103.692 326.02 104.696 325.74 105.747C325.738 105.768 325.743 105.788 325.753 105.805C325.764 105.823 325.779 105.837 325.798 105.845C325.817 105.853 325.837 105.854 325.857 105.85C325.877 105.845 325.895 105.835 325.908 105.819C326.388 104.869 326.954 103.965 327.6 103.119C328.224 102.267 328.932 101.499 329.58 100.719C329.652 100.503 329.472 100.239 329.268 100.371Z" fill="white"/>
<path d="M297.696 99.4423C297.2 97.983 296.25 96.7211 294.984 95.8423C294.888 95.7823 294.744 95.9263 294.816 96.0223C295.249 96.6036 295.65 97.2085 296.016 97.8343C296.412 98.4463 296.796 99.0343 297.132 99.7303C297.795 101.032 298.268 102.422 298.536 103.858C298.536 103.884 298.546 103.908 298.564 103.926C298.582 103.944 298.606 103.954 298.632 103.954C298.657 103.954 298.682 103.944 298.7 103.926C298.718 103.908 298.728 103.884 298.728 103.858C298.633 102.339 298.284 100.846 297.696 99.4423Z" fill="#0972D3"/>
<path d="M291.744 98.4765C291.521 98.0383 291.273 97.6135 291 97.2045C290.516 96.3467 289.827 95.6213 288.996 95.0925C288.961 95.0734 288.921 95.0664 288.882 95.0724C288.843 95.0785 288.807 95.0974 288.779 95.1262C288.752 95.1549 288.735 95.1919 288.73 95.2314C288.726 95.2709 288.735 95.3107 288.756 95.3445C289.247 96.0946 289.797 96.8048 290.4 97.4685C290.676 97.8285 290.952 98.1765 291.216 98.5485C291.348 98.7405 291.48 98.9325 291.6 99.1365C291.76 99.3341 291.886 99.5572 291.972 99.7965C291.972 99.8925 292.164 99.8805 292.152 99.7965C292.103 99.3343 291.964 98.8861 291.744 98.4765Z" fill="white"/>
<path d="M301.404 92.4759C300.559 91.1105 299.403 89.9636 298.032 89.1279C298.013 89.1179 297.99 89.1148 297.969 89.1191C297.948 89.1234 297.928 89.1349 297.914 89.1517C297.9 89.1685 297.893 89.1896 297.892 89.2114C297.892 89.2333 297.899 89.2546 297.912 89.2719C299.071 90.3364 300.088 91.5465 300.936 92.8719C301.811 94.1769 302.456 95.6217 302.844 97.1439C302.844 97.2639 303.036 97.1439 303.024 97.1439C302.814 95.4923 302.262 93.9027 301.404 92.4759Z" fill="white"/>
<path d="M310.104 142.66C309.601 141.592 309.199 140.479 308.904 139.336C308.584 138.209 308.36 137.057 308.232 135.892C308.223 135.862 308.205 135.836 308.18 135.818C308.155 135.799 308.125 135.789 308.094 135.789C308.063 135.789 308.033 135.799 308.008 135.818C307.983 135.836 307.965 135.862 307.956 135.892C307.823 137.099 307.921 138.321 308.244 139.492C308.601 140.664 309.175 141.759 309.936 142.72C310.02 142.864 310.152 142.804 310.104 142.66Z" fill="white"/>
<path d="M305.532 137.436C305.051 138.456 304.468 139.425 303.792 140.328C303.142 141.254 302.402 142.114 301.584 142.896C301.584 142.896 301.584 143.028 301.668 142.992C302.696 142.423 303.592 141.641 304.296 140.7C304.987 139.749 305.466 138.66 305.7 137.508C305.724 137.412 305.568 137.34 305.532 137.436Z" fill="#0972D3"/>
<path d="M224.88 551.579H222.636V555.527C222.636 555.794 222.53 556.051 222.341 556.24C222.152 556.429 221.895 556.535 221.628 556.535C221.361 556.535 221.104 556.429 220.915 556.24C220.726 556.051 220.62 555.794 220.62 555.527V544.799C220.62 544.667 220.646 544.537 220.697 544.415C220.748 544.293 220.822 544.183 220.916 544.09C221.01 543.998 221.121 543.925 221.243 543.875C221.366 543.826 221.496 543.801 221.628 543.803H224.88C225.41 543.773 225.94 543.852 226.438 544.035C226.936 544.217 227.391 544.499 227.777 544.864C228.162 545.228 228.469 545.667 228.678 546.155C228.888 546.642 228.996 547.167 228.996 547.697C228.996 548.227 228.888 548.752 228.678 549.239C228.469 549.726 228.162 550.166 227.777 550.53C227.391 550.894 226.936 551.177 226.438 551.359C225.94 551.541 225.41 551.62 224.88 551.591V551.579ZM222.636 549.599H224.88C225.377 549.599 225.853 549.402 226.204 549.051C226.555 548.7 226.752 548.223 226.752 547.727C226.752 547.23 226.555 546.754 226.204 546.403C225.853 546.052 225.377 545.855 224.88 545.855H222.636V549.599Z" fill="#263238"/>
<path d="M236.46 553.527H232.032L231.144 555.927C231.069 556.117 230.938 556.279 230.769 556.392C230.6 556.506 230.4 556.565 230.196 556.563C230.081 556.582 229.963 556.582 229.848 556.563C229.597 556.466 229.395 556.275 229.282 556.031C229.17 555.787 229.158 555.508 229.248 555.255L233.28 544.527C233.357 544.337 233.49 544.174 233.662 544.061C233.833 543.947 234.035 543.888 234.24 543.891C234.446 543.885 234.649 543.942 234.821 544.056C234.993 544.17 235.126 544.335 235.2 544.527L239.22 555.255C239.313 555.508 239.302 555.788 239.19 556.033C239.078 556.278 238.873 556.469 238.62 556.563C238.509 556.583 238.395 556.583 238.284 556.563C238.081 556.568 237.882 556.509 237.714 556.395C237.546 556.281 237.418 556.118 237.348 555.927L236.46 553.527ZM235.716 551.523L234.24 547.611L232.8 551.523H235.716Z" fill="#263238"/>
<path d="M240.576 549.995C240.606 548.747 240.981 547.533 241.661 546.487C242.341 545.44 243.298 544.603 244.425 544.069C245.553 543.536 246.807 543.325 248.047 543.463C249.287 543.6 250.465 544.079 251.448 544.847C251.558 544.929 251.651 545.033 251.72 545.152C251.79 545.271 251.835 545.402 251.852 545.538C251.87 545.675 251.861 545.813 251.824 545.946C251.788 546.079 251.725 546.203 251.64 546.311C251.466 546.528 251.213 546.667 250.937 546.698C250.66 546.73 250.383 546.651 250.164 546.479C249.343 545.843 248.335 545.497 247.296 545.495C246.688 545.484 246.085 545.597 245.522 545.826C244.959 546.054 244.448 546.395 244.02 546.827C243.588 547.23 243.244 547.718 243.008 548.259C242.772 548.801 242.651 549.386 242.651 549.977C242.651 550.568 242.772 551.152 243.008 551.694C243.244 552.236 243.588 552.724 244.02 553.127C244.451 553.554 244.962 553.891 245.525 554.118C246.087 554.345 246.69 554.456 247.296 554.447C248.174 554.441 249.034 554.205 249.792 553.763V551.267H247.2C246.926 551.264 246.664 551.154 246.47 550.962C246.275 550.769 246.162 550.509 246.156 550.235C246.156 550.099 246.183 549.964 246.236 549.839C246.289 549.714 246.366 549.6 246.463 549.505C246.561 549.41 246.676 549.335 246.802 549.285C246.929 549.236 247.064 549.212 247.2 549.215H250.8C250.936 549.212 251.071 549.236 251.198 549.285C251.324 549.335 251.44 549.41 251.537 549.505C251.634 549.6 251.712 549.714 251.764 549.839C251.817 549.964 251.844 550.099 251.844 550.235V554.255C251.85 554.359 251.85 554.463 251.844 554.567C251.839 554.595 251.839 554.623 251.844 554.651C251.773 554.826 251.652 554.976 251.496 555.083C250.316 556.002 248.864 556.5 247.368 556.499C246.494 556.523 245.624 556.373 244.807 556.058C243.991 555.743 243.246 555.27 242.614 554.665C241.983 554.06 241.477 553.336 241.127 552.534C240.777 551.732 240.59 550.869 240.576 549.995Z" fill="#263238"/>
<path d="M255.96 555.529V544.801C255.958 544.669 255.983 544.537 256.034 544.415C256.084 544.293 256.158 544.182 256.252 544.089C256.346 543.996 256.458 543.923 256.581 543.874C256.704 543.825 256.836 543.802 256.968 543.805H262.968C263.232 543.805 263.486 543.91 263.672 544.097C263.859 544.283 263.964 544.537 263.964 544.801C263.964 545.067 263.86 545.323 263.674 545.514C263.488 545.704 263.234 545.815 262.968 545.821H258V549.157H262.236C262.503 549.157 262.76 549.263 262.949 549.452C263.138 549.641 263.244 549.898 263.244 550.165C263.244 550.432 263.138 550.689 262.949 550.878C262.76 551.067 262.503 551.173 262.236 551.173H258V554.521H262.932C263.199 554.521 263.456 554.627 263.645 554.816C263.834 555.005 263.94 555.262 263.94 555.529C263.94 555.796 263.834 556.053 263.645 556.242C263.456 556.431 263.199 556.537 262.932 556.537H256.932C256.671 556.528 256.424 556.417 256.242 556.229C256.061 556.041 255.96 555.79 255.96 555.529Z" fill="#263238"/>
<path d="M274.224 555.532C274.221 555.794 274.117 556.043 273.933 556.229C273.75 556.415 273.501 556.522 273.24 556.528C272.976 556.528 272.723 556.423 272.536 556.237C272.349 556.05 272.244 555.797 272.244 555.532V544.936C272.234 544.774 272.265 544.612 272.334 544.465C272.403 544.318 272.509 544.191 272.64 544.096C272.854 543.945 273.119 543.885 273.377 543.927C273.635 543.97 273.866 544.113 274.02 544.324L279.9 552.46V544.96C279.903 544.7 280.008 544.452 280.192 544.268C280.376 544.084 280.624 543.98 280.884 543.976C281.147 543.976 281.4 544.079 281.589 544.263C281.777 544.447 281.886 544.697 281.892 544.96V555.532C281.889 555.798 281.781 556.051 281.593 556.237C281.404 556.424 281.149 556.528 280.884 556.528C280.741 556.526 280.601 556.492 280.473 556.43C280.344 556.368 280.231 556.279 280.14 556.168L280.044 556.06L274.224 547.972V555.532Z" fill="#263238"/>
<path d="M295.392 545.378C296.577 546.617 297.238 548.266 297.238 549.98C297.238 551.694 296.577 553.343 295.392 554.582C294.843 555.19 294.173 555.676 293.425 556.011C292.677 556.346 291.868 556.521 291.048 556.526C290.211 556.524 289.383 556.35 288.615 556.016C287.847 555.682 287.156 555.194 286.584 554.582C285.426 553.329 284.783 551.686 284.783 549.98C284.783 548.274 285.426 546.631 286.584 545.378C287.15 544.758 287.84 544.263 288.609 543.926C289.378 543.589 290.209 543.418 291.048 543.422C291.869 543.424 292.681 543.599 293.429 543.936C294.178 544.273 294.847 544.765 295.392 545.378ZM295.164 549.974C295.173 548.802 294.746 547.668 293.964 546.794C293.596 546.385 293.147 546.059 292.644 545.835C292.142 545.611 291.598 545.496 291.048 545.496C290.498 545.496 289.955 545.611 289.452 545.835C288.95 546.059 288.5 546.385 288.132 546.794C287.347 547.665 286.918 548.801 286.932 549.974C286.913 551.144 287.342 552.278 288.132 553.142C288.498 553.554 288.947 553.884 289.45 554.11C289.952 554.335 290.497 554.452 291.048 554.452C291.599 554.452 292.144 554.335 292.647 554.11C293.149 553.884 293.598 553.554 293.964 553.142C294.762 552.28 295.204 551.148 295.2 549.974H295.164Z" fill="#263238"/>
<path d="M307.62 545.809H304.728V555.529C304.701 555.776 304.584 556.004 304.399 556.17C304.214 556.335 303.974 556.427 303.726 556.427C303.478 556.427 303.238 556.335 303.053 556.17C302.868 556.004 302.751 555.776 302.724 555.529V545.809H299.844C299.709 545.814 299.574 545.791 299.447 545.743C299.321 545.694 299.205 545.621 299.108 545.527C299.01 545.432 298.933 545.32 298.88 545.195C298.827 545.07 298.8 544.936 298.8 544.801C298.798 544.67 298.823 544.539 298.872 544.418C298.922 544.296 298.995 544.186 299.088 544.093C299.181 544 299.291 543.927 299.413 543.877C299.534 543.828 299.665 543.803 299.796 543.805H307.572C307.836 543.805 308.089 543.91 308.276 544.096C308.463 544.283 308.568 544.537 308.568 544.801C308.566 545.057 308.467 545.303 308.291 545.49C308.115 545.677 307.876 545.791 307.62 545.809Z" fill="#263238"/>
<path d="M317.088 555.529V544.801C317.088 544.537 317.193 544.283 317.38 544.096C317.566 543.91 317.82 543.805 318.084 543.805H324.084C324.351 543.805 324.608 543.911 324.797 544.1C324.986 544.289 325.092 544.545 325.092 544.813C325.092 545.08 324.986 545.336 324.797 545.525C324.608 545.714 324.351 545.821 324.084 545.821H319.152V549.157H323.4C323.667 549.157 323.924 549.263 324.113 549.452C324.302 549.641 324.408 549.897 324.408 550.165C324.408 550.432 324.302 550.688 324.113 550.877C323.924 551.066 323.667 551.173 323.4 551.173H319.152V555.541C319.146 555.807 319.035 556.06 318.845 556.246C318.654 556.433 318.398 556.537 318.132 556.537C317.996 556.543 317.86 556.522 317.733 556.474C317.606 556.426 317.49 556.353 317.392 556.258C317.294 556.164 317.217 556.05 317.165 555.925C317.112 555.799 317.086 555.665 317.088 555.529Z" fill="#263238"/>
<path d="M337.788 545.378C338.967 546.62 339.625 548.267 339.625 549.98C339.625 551.693 338.967 553.34 337.788 554.582C337.234 555.187 336.561 555.671 335.812 556.005C335.062 556.34 334.253 556.517 333.432 556.526C332.597 556.524 331.77 556.35 331.005 556.016C330.239 555.681 329.55 555.193 328.98 554.582C327.822 553.329 327.179 551.686 327.179 549.98C327.179 548.274 327.822 546.631 328.98 545.378C329.545 544.759 330.232 544.266 330.999 543.929C331.766 543.592 332.595 543.419 333.432 543.422C334.255 543.425 335.067 543.601 335.818 543.938C336.568 544.275 337.239 544.765 337.788 545.378ZM337.548 549.974C337.557 548.802 337.13 547.668 336.348 546.794C335.981 546.386 335.533 546.059 335.031 545.835C334.53 545.612 333.987 545.496 333.438 545.496C332.889 545.496 332.347 545.612 331.845 545.835C331.344 546.059 330.895 546.386 330.528 546.794C329.738 547.662 329.308 548.8 329.328 549.974C329.304 551.145 329.734 552.281 330.528 553.142C330.893 553.554 331.341 553.883 331.843 554.109C332.344 554.335 332.888 554.451 333.438 554.451C333.988 554.451 334.532 554.335 335.034 554.109C335.535 553.883 335.983 553.554 336.348 553.142C337.133 552.275 337.561 551.143 337.548 549.974Z" fill="#263238"/>
<path d="M347.676 556.525C346.985 556.527 346.301 556.392 345.663 556.128C345.024 555.865 344.444 555.477 343.956 554.989C343.468 554.501 343.08 553.921 342.817 553.282C342.553 552.644 342.418 551.96 342.42 551.269V544.801C342.418 544.67 342.443 544.539 342.493 544.418C342.542 544.296 342.615 544.186 342.708 544.093C342.801 544 342.911 543.927 343.033 543.877C343.154 543.828 343.285 543.803 343.416 543.805C343.548 543.803 343.68 543.828 343.803 543.877C343.926 543.926 344.038 543.999 344.132 544.092C344.227 544.184 344.303 544.294 344.355 544.416C344.407 544.538 344.434 544.669 344.436 544.801V551.281C344.436 552.14 344.777 552.964 345.385 553.572C345.993 554.18 346.817 554.521 347.676 554.521C348.535 554.521 349.359 554.18 349.967 553.572C350.575 552.964 350.916 552.14 350.916 551.281V544.801C350.916 544.668 350.942 544.537 350.994 544.414C351.046 544.292 351.121 544.181 351.216 544.088C351.311 543.995 351.424 543.922 351.547 543.874C351.671 543.825 351.803 543.802 351.936 543.805C352.067 543.803 352.197 543.828 352.319 543.877C352.441 543.927 352.551 544 352.644 544.093C352.737 544.186 352.81 544.296 352.859 544.418C352.909 544.539 352.934 544.67 352.932 544.801V551.281C352.929 552.673 352.374 554.007 351.388 554.99C350.403 555.973 349.068 556.525 347.676 556.525Z" fill="#263238"/>
<path d="M358.944 555.532C358.941 555.794 358.837 556.043 358.653 556.229C358.47 556.415 358.221 556.522 357.96 556.528C357.696 556.528 357.442 556.424 357.256 556.237C357.069 556.05 356.964 555.797 356.964 555.532V544.936C356.954 544.724 357.013 544.513 357.133 544.337C357.253 544.161 357.427 544.028 357.628 543.959C357.83 543.89 358.048 543.889 358.251 543.954C358.454 544.02 358.629 544.15 358.752 544.324L364.632 552.46V544.96C364.632 544.702 364.734 544.453 364.916 544.269C365.098 544.085 365.345 543.98 365.604 543.976C365.867 543.976 366.12 544.079 366.308 544.263C366.497 544.447 366.606 544.697 366.612 544.96V555.532C366.616 555.738 366.556 555.94 366.44 556.11C366.324 556.279 366.157 556.408 365.964 556.479C365.771 556.549 365.56 556.557 365.362 556.501C365.164 556.445 364.988 556.329 364.86 556.168C364.825 556.139 364.796 556.102 364.776 556.06L358.944 547.973V555.532Z" fill="#263238"/>
<path d="M370.08 555.529V544.801C370.079 544.67 370.103 544.539 370.153 544.418C370.202 544.296 370.275 544.186 370.368 544.093C370.461 544 370.572 543.927 370.693 543.877C370.815 543.828 370.945 543.803 371.076 543.805H373.2C374.841 543.876 376.39 544.578 377.526 545.764C378.662 546.95 379.296 548.529 379.296 550.171C379.296 551.813 378.662 553.392 377.526 554.578C376.39 555.764 374.841 556.465 373.2 556.537H371.052C370.79 556.53 370.541 556.421 370.359 556.232C370.177 556.044 370.077 555.791 370.08 555.529ZM372.096 554.509H373.2C374.314 554.45 375.364 553.966 376.132 553.157C376.899 552.348 377.328 551.274 377.328 550.159C377.328 549.043 376.899 547.97 376.132 547.16C375.364 546.351 374.314 545.867 373.2 545.809H372.072L372.096 554.509Z" fill="#263238"/>
<path d="M204 461.235C203.997 463.181 203.607 465.108 202.852 466.902C202.098 468.697 200.994 470.323 199.604 471.687C198.215 473.05 196.568 474.124 194.76 474.845C192.952 475.566 191.018 475.92 189.072 475.887H186.408V496.155C186.408 500.044 184.863 503.774 182.113 506.524C179.363 509.274 175.633 510.819 171.744 510.819C167.855 510.819 164.125 509.274 161.375 506.524C158.625 503.774 157.08 500.044 157.08 496.155V475.887H73.0801C69.7642 476.013 66.5247 474.871 64.0201 472.695C62.4762 471.534 61.1841 470.071 60.2222 468.396C59.2603 466.721 58.6486 464.868 58.4242 462.949C58.1998 461.03 58.3674 459.086 58.9167 457.234C59.4661 455.382 60.3858 453.661 61.6201 452.175L160.248 329.559C160.512 329.559 160.512 329.295 160.776 329.019C161.113 328.72 161.386 328.357 161.58 327.951C162.09 327.817 162.551 327.542 162.912 327.159C163.176 326.895 163.716 326.619 163.98 326.355C164.447 326.023 165.003 325.839 165.576 325.827C165.84 325.287 166.116 325.023 166.644 325.023C166.908 324.759 167.448 324.759 168.24 324.495C168.618 324.537 168.998 324.439 169.308 324.219H173.844C174.25 324.442 174.714 324.538 175.176 324.495C175.44 324.759 176.244 324.759 176.772 325.023C177.036 325.023 177.576 325.287 177.84 325.287C178.38 325.827 178.908 326.091 179.172 326.355C179.7 326.619 179.976 326.895 180.504 327.159C180.539 327.159 180.573 327.166 180.605 327.179C180.637 327.192 180.666 327.212 180.691 327.236C180.715 327.261 180.735 327.29 180.748 327.322C180.761 327.354 180.768 327.388 180.768 327.423C181.044 327.423 181.572 327.687 181.572 327.951L182.64 329.019C182.904 329.295 183.168 329.823 183.432 330.087C183.842 330.484 184.201 330.932 184.5 331.419C184.571 331.82 184.759 332.192 185.04 332.487C185.254 333.006 185.43 333.539 185.568 334.083C185.568 334.359 185.832 334.887 185.832 335.151C186.069 335.651 186.161 336.209 186.096 336.759C186.096 337.287 186.372 337.551 186.372 338.091V446.571H189.036C192.962 446.542 196.739 448.068 199.543 450.816C202.347 453.563 203.949 457.309 204 461.235ZM157.08 380.739L104.04 446.571H157.08V380.739Z" fill="#455A64"/>
<path d="M526.896 461.235C526.893 463.181 526.503 465.108 525.748 466.902C524.994 468.697 523.89 470.323 522.5 471.687C521.111 473.05 519.464 474.124 517.656 474.845C515.848 475.566 513.914 475.92 511.968 475.887H509.292V496.155C509.183 499.97 507.591 503.592 504.854 506.252C502.117 508.911 498.451 510.399 494.634 510.399C490.818 510.399 487.151 508.911 484.414 506.252C481.677 503.592 480.085 499.97 479.976 496.155V475.887H396C392.684 476.014 389.444 474.872 386.94 472.695C385.396 471.534 384.104 470.071 383.142 468.396C382.18 466.721 381.569 464.868 381.344 462.949C381.12 461.03 381.287 459.086 381.837 457.234C382.386 455.382 383.306 453.661 384.54 452.175L483.168 329.559C483.432 329.559 483.432 329.295 483.696 329.019C484.028 328.716 484.301 328.354 484.5 327.951C485.01 327.817 485.471 327.542 485.832 327.159C486.096 326.895 486.636 326.619 486.9 326.355C487.367 326.023 487.923 325.839 488.496 325.827C488.76 325.287 489.024 325.023 489.564 325.023C489.828 324.759 490.356 324.759 491.16 324.495C491.538 324.536 491.918 324.438 492.228 324.219H496.8C497.206 324.442 497.67 324.538 498.132 324.495C498.396 324.759 499.2 324.759 499.728 325.023C499.992 325.023 500.532 325.287 500.796 325.287C501.336 325.827 501.852 326.091 502.128 326.355C502.656 326.619 502.92 326.895 503.46 327.159C503.495 327.159 503.529 327.166 503.561 327.179C503.593 327.192 503.622 327.212 503.647 327.236C503.671 327.261 503.691 327.29 503.704 327.322C503.717 327.354 503.724 327.388 503.724 327.423C503.988 327.423 504.528 327.687 504.528 327.951L505.596 329.019C505.86 329.295 506.124 329.823 506.388 330.087C506.798 330.484 507.157 330.932 507.456 331.419C507.527 331.82 507.715 332.192 507.996 332.487C508.21 333.006 508.386 333.539 508.524 334.083C508.524 334.359 508.788 334.887 508.788 335.151C509.025 335.651 509.117 336.209 509.052 336.759C509.052 337.287 509.316 337.551 509.316 338.091V446.571H511.992C515.907 446.558 519.669 448.091 522.46 450.837C525.251 453.583 526.845 457.32 526.896 461.235ZM480 380.739L426.96 446.571H480V380.739Z" fill="#455A64"/>
<path d="M189.084 181.645C189.795 174.846 192.381 168.379 196.554 162.964C200.727 157.55 206.323 153.401 212.716 150.982C219.109 148.562 226.05 147.967 232.762 149.262C239.474 150.557 245.694 153.692 250.728 158.317L269.184 155.605L259.944 171.565C262.255 177.182 263.125 183.287 262.476 189.325C262.035 194.195 260.632 198.928 258.346 203.25C256.06 207.572 252.938 211.397 249.162 214.502C245.385 217.608 241.029 219.931 236.346 221.339C231.664 222.746 226.749 223.208 221.886 222.7C217.023 222.191 212.31 220.72 208.02 218.374C203.73 216.028 199.95 212.853 196.898 209.033C193.846 205.213 191.583 200.825 190.242 196.123C188.901 191.422 188.507 186.5 189.084 181.645Z" fill="white"/>
<path d="M189.084 181.643C189.795 174.845 192.37 168.375 196.524 162.947C198.542 160.193 200.97 157.765 203.724 155.747C206.441 153.685 209.434 152.017 212.616 150.791C215.802 149.537 219.146 148.73 222.552 148.391C224.256 148.233 225.968 148.201 227.676 148.295C229.392 148.333 231.101 148.509 232.788 148.823C239.591 150.074 245.911 153.195 251.04 157.835L250.596 157.703L269.04 154.871L270.372 154.667L269.7 155.867L260.52 171.851V171.227C262.673 176.467 263.602 182.13 263.237 187.783C262.872 193.437 261.222 198.933 258.414 203.853C255.605 208.773 251.712 212.988 247.03 216.177C242.347 219.367 236.999 221.446 231.393 222.258C225.786 223.07 220.068 222.592 214.673 220.862C209.278 219.131 204.35 216.194 200.261 212.272C196.173 208.35 193.032 203.548 191.079 198.23C189.125 192.912 188.41 187.219 188.988 181.583L189.084 181.643ZM189.084 181.643C188.539 187.213 189.262 192.834 191.202 198.084C193.141 203.334 196.245 208.077 200.28 211.955C204.339 215.781 209.201 218.651 214.512 220.355C219.824 221.985 225.436 222.395 230.928 221.555C236.395 220.742 241.604 218.689 246.156 215.555C250.662 212.402 254.429 208.307 257.196 203.555C259.916 198.776 261.516 193.442 261.876 187.955C262.224 182.468 261.338 176.974 259.284 171.875L259.152 171.551L259.332 171.251L268.62 155.327L269.28 156.299L250.8 158.831H250.548L250.368 158.663C245.441 154.046 239.324 150.896 232.704 149.567C231.051 149.231 229.374 149.026 227.688 148.955C226.01 148.835 224.326 148.835 222.648 148.955C219.279 149.209 215.963 149.936 212.796 151.115C209.607 152.266 206.607 153.884 203.892 155.915C201.141 157.884 198.712 160.268 196.692 162.983C192.48 168.38 189.847 174.839 189.084 181.643Z" fill="#263238"/>
<path d="M228.276 191.133V195.597C228.286 196.045 228.205 196.491 228.038 196.908C227.87 197.324 227.621 197.703 227.303 198.02C226.986 198.337 226.608 198.587 226.191 198.754C225.775 198.921 225.329 199.003 224.88 198.993C223.978 198.993 223.113 198.635 222.475 197.999C221.836 197.362 221.475 196.499 221.472 195.597V188.397C221.472 188.325 221.544 188.325 221.544 188.265C221.544 188.205 221.472 188.193 221.472 188.121C221.517 187.239 221.893 186.407 222.525 185.791C223.157 185.175 223.998 184.82 224.88 184.797C225.926 184.838 226.97 184.667 227.948 184.295C228.927 183.923 229.82 183.358 230.575 182.632C231.33 181.907 231.93 181.036 232.34 180.073C232.75 179.11 232.962 178.074 232.962 177.027C232.962 175.98 232.75 174.944 232.34 173.981C231.93 173.017 231.33 172.147 230.575 171.421C229.82 170.696 228.927 170.13 227.948 169.758C226.97 169.386 225.926 169.216 224.88 169.257C223.533 169.254 222.209 169.605 221.04 170.275C219.871 170.944 218.899 171.909 218.22 173.073C217.991 173.463 217.687 173.805 217.325 174.077C216.964 174.349 216.552 174.546 216.113 174.658C215.674 174.77 215.218 174.793 214.77 174.727C214.322 174.661 213.892 174.506 213.504 174.273C213.118 174.049 212.781 173.75 212.512 173.394C212.242 173.039 212.046 172.633 211.934 172.201C211.823 171.769 211.798 171.32 211.861 170.878C211.925 170.436 212.075 170.012 212.304 169.629C213.515 167.542 215.226 165.789 217.282 164.527C219.338 163.265 221.676 162.534 224.085 162.398C226.493 162.262 228.898 162.727 231.083 163.751C233.268 164.774 235.164 166.324 236.602 168.262C238.04 170.199 238.974 172.464 239.32 174.851C239.666 177.239 239.414 179.675 238.587 181.941C237.759 184.207 236.381 186.233 234.577 187.835C232.774 189.437 230.6 190.566 228.252 191.121L228.276 191.133ZM228.276 206.325V207.525C228.286 207.973 228.205 208.419 228.038 208.836C227.87 209.252 227.621 209.631 227.303 209.948C226.986 210.265 226.608 210.515 226.191 210.682C225.775 210.849 225.329 210.931 224.88 210.921C223.978 210.921 223.113 210.563 222.475 209.927C221.836 209.29 221.475 208.427 221.472 207.525V206.325C221.488 205.427 221.852 204.57 222.488 203.936C223.124 203.303 223.982 202.941 224.88 202.929C225.327 202.924 225.771 203.009 226.185 203.177C226.6 203.346 226.976 203.596 227.292 203.913C227.609 204.229 227.859 204.605 228.027 205.02C228.196 205.434 228.281 205.877 228.276 206.325Z" fill="#0972D3"/>
</svg>
