<svg width="32" height="32" viewBox="0 0 32 32" fill="none" xmlns="http://www.w3.org/2000/svg">
<path d="M6.17243 13.2758C7.60074 13.2758 9.27588 14.4337 9.27588 15.8621C9.27588 17.2904 7.60074 18.4482 6.17243 18.4482H1L2.03453 13.2758H6.17243ZM7.20689 5C8.6352 5 10.3103 6.15788 10.3103 7.58618C10.3103 9.01449 8.6352 10.1724 7.20689 10.1724L2.03453 10.1724L3.06899 5H7.20689ZM17.5518 5C18.9801 5 20.6551 6.15788 20.6551 7.58618C20.6551 9.01449 18.9801 10.1724 17.5518 10.1724L12.1207 10.1724L13.1552 5H17.5518ZM16.5172 13.2759C17.9455 13.2759 19.6207 14.4338 19.6207 15.8621C19.6207 17.2904 17.9455 18.4482 16.5172 18.4482H11.0862L12.1207 13.2759H16.5172ZM14.4483 21.5517C15.8766 21.5517 17.5518 22.7096 17.5518 24.1379C17.5518 25.5662 15.8766 26.7241 14.4483 26.7241H9.27588L10.3103 21.5517H14.4483ZM25.8276 18.4482C27.2559 18.4482 28.931 19.6061 28.931 21.0344C28.931 22.4627 27.2559 23.6207 25.8276 23.6207H20.6552L21.6897 18.4482H25.8276ZM27.8966 10.1724C29.3249 10.1724 31 11.3302 31 12.7586C31 14.1869 29.3249 15.3448 27.8966 15.3448H22.7241L23.7586 10.1724H27.8966Z" fill="#7D8998"/>
</svg>
