<svg width="284" height="92" viewBox="0 0 284 92" fill="none" xmlns="http://www.w3.org/2000/svg">
<rect width="283.515" height="92" rx="8" fill="#414D5C"/>
<path d="M27.9004 41.6816C27.4447 41.6816 27.0378 41.7793 26.6797 41.9746C26.3216 42.1634 26.0156 42.4401 25.7617 42.8047C25.5078 43.1693 25.3125 43.6152 25.1758 44.1426C25.0456 44.6634 24.9805 45.2559 24.9805 45.9199C24.9805 46.8184 25.0944 47.5736 25.3223 48.1855C25.5501 48.7975 25.8952 49.2598 26.3574 49.5723C26.8262 49.8848 27.4121 50.041 28.1152 50.041C28.7533 50.041 29.3652 49.9531 29.9512 49.7773C30.5436 49.6016 31.1393 49.39 31.7383 49.1426V52.4043C31.1068 52.6842 30.459 52.8861 29.7949 53.0098C29.1374 53.1335 28.4375 53.1953 27.6953 53.1953C26.1458 53.1953 24.8763 52.8893 23.8867 52.2773C22.9036 51.6589 22.1777 50.8027 21.709 49.709C21.2467 48.6152 21.0156 47.3457 21.0156 45.9004C21.0156 44.8197 21.1654 43.8301 21.4648 42.9316C21.7708 42.0332 22.2168 41.2552 22.8027 40.5977C23.3887 39.9336 24.1113 39.4225 24.9707 39.0645C25.8366 38.6999 26.8262 38.5176 27.9395 38.5176C28.6296 38.5176 29.3555 38.599 30.1172 38.7617C30.8854 38.918 31.6341 39.1719 32.3633 39.5234L31.1816 42.5605C30.6608 42.3132 30.1335 42.1048 29.5996 41.9355C29.0658 41.7663 28.4993 41.6816 27.9004 41.6816ZM44.673 47.4434C44.673 48.3678 44.5461 49.1882 44.2922 49.9043C44.0383 50.6204 43.6704 51.2227 43.1887 51.7109C42.7069 52.1992 42.1242 52.5703 41.4406 52.8242C40.757 53.0716 39.9855 53.1953 39.1262 53.1953C38.3254 53.1953 37.5897 53.0716 36.9191 52.8242C36.2551 52.5703 35.6757 52.1992 35.1809 51.7109C34.6861 51.2227 34.302 50.6204 34.0285 49.9043C33.7616 49.1882 33.6281 48.3678 33.6281 47.4434C33.6281 46.2194 33.8495 45.1842 34.2922 44.3379C34.7414 43.4915 35.3794 42.847 36.2063 42.4043C37.0396 41.9616 38.0324 41.7402 39.1848 41.7402C40.246 41.7402 41.19 41.9616 42.0168 42.4043C42.8436 42.847 43.4914 43.4915 43.9602 44.3379C44.4354 45.1842 44.673 46.2194 44.673 47.4434ZM37.5051 47.4434C37.5051 48.0749 37.5604 48.6087 37.6711 49.0449C37.7818 49.4746 37.9576 49.8034 38.1984 50.0312C38.4458 50.2526 38.7681 50.3633 39.1652 50.3633C39.5624 50.3633 39.8781 50.2526 40.1125 50.0312C40.3469 49.8034 40.5161 49.4746 40.6203 49.0449C40.731 48.6087 40.7863 48.0749 40.7863 47.4434C40.7863 46.8118 40.731 46.2845 40.6203 45.8613C40.5161 45.4382 40.3436 45.1191 40.1027 44.9043C39.8684 44.6895 39.5493 44.582 39.1457 44.582C38.5663 44.582 38.1464 44.8229 37.8859 45.3047C37.632 45.7865 37.5051 46.4993 37.5051 47.4434ZM60.1664 41.7402C61.4294 41.7402 62.393 42.0625 63.057 42.707C63.7276 43.3516 64.0629 44.3835 64.0629 45.8027V53H60.2445V46.9844C60.2445 46.1445 60.1306 45.5618 59.9027 45.2363C59.6814 44.9043 59.3493 44.7383 58.9066 44.7383C58.2882 44.7383 57.8585 45.0085 57.6176 45.5488C57.3832 46.0892 57.266 46.8542 57.266 47.8438V53H53.4379V46.9844C53.4379 46.4505 53.3891 46.0208 53.2914 45.6953C53.2003 45.3633 53.0603 45.1224 52.8715 44.9727C52.6827 44.8164 52.4451 44.7383 52.1586 44.7383C51.7224 44.7383 51.3806 44.8717 51.1332 45.1387C50.8923 45.3991 50.723 45.7832 50.6254 46.291C50.5277 46.7988 50.4789 47.4206 50.4789 48.1562V53H46.6605V41.9355H49.5414L50.098 43.3027H50.2055C50.4008 43.0033 50.6514 42.7363 50.9574 42.502C51.2699 42.2676 51.6378 42.082 52.0609 41.9453C52.4906 41.8086 52.9789 41.7402 53.5258 41.7402C54.3396 41.7402 55.0102 41.877 55.5375 42.1504C56.0648 42.4238 56.4945 42.8014 56.8266 43.2832H56.9438C57.2953 42.7884 57.7478 42.4076 58.3012 42.1406C58.8546 41.8737 59.4763 41.7402 60.1664 41.7402ZM79.9664 41.7402C81.2294 41.7402 82.193 42.0625 82.857 42.707C83.5276 43.3516 83.8629 44.3835 83.8629 45.8027V53H80.0445V46.9844C80.0445 46.1445 79.9306 45.5618 79.7027 45.2363C79.4814 44.9043 79.1494 44.7383 78.7066 44.7383C78.0882 44.7383 77.6585 45.0085 77.4176 45.5488C77.1832 46.0892 77.066 46.8542 77.066 47.8438V53H73.2379V46.9844C73.2379 46.4505 73.1891 46.0208 73.0914 45.6953C73.0003 45.3633 72.8603 45.1224 72.6715 44.9727C72.4827 44.8164 72.2451 44.7383 71.9586 44.7383C71.5224 44.7383 71.1806 44.8717 70.9332 45.1387C70.6923 45.3991 70.523 45.7832 70.4254 46.291C70.3277 46.7988 70.2789 47.4206 70.2789 48.1562V53H66.4605V41.9355H69.3414L69.898 43.3027H70.0055C70.2008 43.0033 70.4514 42.7363 70.7574 42.502C71.0699 42.2676 71.4378 42.082 71.8609 41.9453C72.2906 41.8086 72.7789 41.7402 73.3258 41.7402C74.1396 41.7402 74.8102 41.877 75.3375 42.1504C75.8648 42.4238 76.2945 42.8014 76.6266 43.2832H76.7438C77.0953 42.7884 77.5478 42.4076 78.1012 42.1406C78.6546 41.8737 79.2763 41.7402 79.9664 41.7402ZM97.0223 41.9355V53H94.1414L93.6629 51.623H93.4383C93.2104 51.9941 92.9207 52.2969 92.5691 52.5312C92.2241 52.7591 91.84 52.9251 91.4168 53.0293C90.9936 53.14 90.5542 53.1953 90.0984 53.1953C89.3758 53.1953 88.7215 53.0553 88.1355 52.7754C87.5561 52.4954 87.0939 52.056 86.7488 51.457C86.4103 50.8581 86.241 50.0866 86.241 49.1426V41.9355H90.0594V47.9805C90.0594 48.6966 90.1603 49.2435 90.3621 49.6211C90.5704 49.9922 90.909 50.1777 91.3777 50.1777C91.8595 50.1777 92.2306 50.0475 92.491 49.7871C92.7579 49.5267 92.9435 49.1426 93.0477 48.6348C93.1518 48.127 93.2039 47.5085 93.2039 46.7793V41.9355H97.0223ZM106.383 41.7402C107.522 41.7402 108.453 42.0625 109.176 42.707C109.898 43.3516 110.26 44.3835 110.26 45.8027V53H106.441V46.9648C106.441 46.2292 106.334 45.6758 106.119 45.3047C105.911 44.9271 105.572 44.7383 105.104 44.7383C104.381 44.7383 103.896 45.0345 103.648 45.627C103.401 46.2129 103.277 47.056 103.277 48.1562V53H99.459V41.9355H102.34L102.857 43.4004H103.004C103.238 43.0488 103.518 42.7493 103.844 42.502C104.169 42.2546 104.544 42.0658 104.967 41.9355C105.39 41.8053 105.862 41.7402 106.383 41.7402ZM116.495 41.9355V53H112.677V41.9355H116.495ZM114.601 37.4824C115.148 37.4824 115.623 37.5964 116.027 37.8242C116.437 38.0521 116.642 38.5046 116.642 39.1816C116.642 39.8392 116.437 40.2852 116.027 40.5195C115.623 40.7474 115.148 40.8613 114.601 40.8613C114.041 40.8613 113.562 40.7474 113.165 40.5195C112.775 40.2852 112.579 39.8392 112.579 39.1816C112.579 38.5046 112.775 38.0521 113.165 37.8242C113.562 37.5964 114.041 37.4824 114.601 37.4824ZM124.381 50.1777C124.726 50.1777 125.042 50.1419 125.329 50.0703C125.615 49.9987 125.914 49.9076 126.227 49.7969V52.5801C125.81 52.7624 125.368 52.9089 124.899 53.0195C124.437 53.1367 123.844 53.1953 123.121 53.1953C122.405 53.1953 121.774 53.0846 121.227 52.8633C120.68 52.6354 120.254 52.2448 119.948 51.6914C119.648 51.1315 119.498 50.3535 119.498 49.3574V44.7969H118.161V43.2441L119.86 42.043L120.846 39.7188H123.346V41.9355H126.061V44.7969H123.346V49.1035C123.346 49.4616 123.437 49.7318 123.62 49.9141C123.802 50.0898 124.056 50.1777 124.381 50.1777ZM126.623 41.9355H130.646L132.521 48.2832C132.547 48.3743 132.573 48.4883 132.599 48.625C132.625 48.7552 132.648 48.8952 132.668 49.0449C132.687 49.1947 132.7 49.3411 132.707 49.4844H132.785C132.817 49.2174 132.853 48.9863 132.892 48.791C132.938 48.5892 132.98 48.4264 133.019 48.3027L134.943 41.9355H138.839L134.464 53.7031C134.126 54.6016 133.732 55.3535 133.283 55.959C132.84 56.571 132.29 57.0299 131.632 57.3359C130.981 57.6484 130.171 57.8047 129.201 57.8047C128.849 57.8047 128.546 57.7852 128.293 57.7461C128.045 57.7135 127.827 57.6777 127.638 57.6387V54.6406C127.782 54.6667 127.957 54.6927 128.166 54.7188C128.374 54.7448 128.592 54.7578 128.82 54.7578C129.243 54.7578 129.585 54.6732 129.845 54.5039C130.112 54.3346 130.33 54.11 130.5 53.8301C130.669 53.5566 130.815 53.2604 130.939 52.9414L130.978 52.8438L126.623 41.9355Z" fill="white"/>
<g clip-path="url(#clip0_14698_130713)">
<path d="M254.644 72.4058L254.643 72.4427L256.509 92.0014H242.887L241.121 79.989L240.344 91.6934L226.355 91.5394L227.841 76.1727L229.105 69.05V69.0484L229.294 67.9766H254.273L254.305 68.3647L254.644 72.4058Z" fill="#2F2E41"/>
<path d="M218.644 83.7406C220.087 84.001 221.591 82.3912 222.004 80.1449C222.185 79.1616 222.127 78.2194 221.883 77.4489L222.104 76.154L225.816 58.7345C225.816 58.7345 232.653 45.1859 232.652 42.8337C232.652 40.4816 230.675 39.3281 230.675 39.3281L227.999 39.3529L219.608 59.658L218.097 74.6628L217.853 76.7214C217.35 77.3573 216.96 78.2185 216.78 79.2018C216.367 81.4481 217.201 83.4802 218.644 83.7406Z" fill="#FFB6B6"/>
<path d="M245.862 30.9404L243.375 25.2422L235.292 26.6282L234.748 33.3323L245.862 30.9404Z" fill="#FFB6B6"/>
<path opacity="0.1" d="M245.862 30.9404L243.375 25.2422L235.292 26.6282L234.748 33.3323L245.862 30.9404Z" fill="black"/>
<path d="M263.426 42.7952C263.426 42.7952 257.675 32.1688 256.587 31.0908C256.103 30.6109 255.341 30.6042 254.645 30.7441L246.639 28.0107L243.926 26.5L243.747 29.3741L234.838 30.9584C234.887 29.2057 235.137 28.539 235.137 28.539L231.873 32.3228L225.5 35.4029L225.503 35.4307C225.036 35.5924 224.592 35.8692 224.257 36.327C223.013 38.021 219.593 58.6578 219.593 58.6578L226.899 60.1978L227.893 54.0161L228.609 59.5818L229.153 69.9772C229.153 69.9772 239.101 78.4475 243.919 75.3674C248.738 72.2873 254.644 72.4413 254.644 72.4413L254.792 67.6228C254.896 67.4566 254.955 67.3591 254.955 67.3591L254.8 50.2669V45.7188C255.984 47.3533 257.413 48.759 259.074 49.4174C264.514 51.5735 263.426 42.7952 263.426 42.7952Z" fill="#E6E6E6"/>
<path d="M238.489 27.6254C242.596 27.6254 245.925 24.3269 245.925 20.258C245.925 16.1891 242.596 12.8906 238.489 12.8906C234.382 12.8906 231.053 16.1891 231.053 20.258C231.053 24.3269 234.382 27.6254 238.489 27.6254Z" fill="#FFB6B6"/>
<path d="M243.823 22.3419C243.823 22.3419 244.47 20.0997 245.925 20.2598C247.38 20.42 247.703 19.1387 247.38 18.4981C247.056 17.8574 246.41 14.6542 246.41 14.6542C246.41 14.6542 246.733 12.412 244.793 12.0916C242.853 11.7713 242.207 11.451 241.884 10.8104C241.56 10.1697 236.711 9.52907 235.094 10.49C233.478 11.451 232.185 13.2947 231.053 13.8143C229.922 14.3339 228.952 15.2949 229.598 16.8965C230.245 18.4981 231.183 21.6305 231.183 21.6305C231.183 21.6305 232.831 21.0606 233.155 22.0216C233.478 22.9826 232.185 21.7013 233.801 19.1387C235.418 16.5761 235.418 14.0136 238.004 14.9745C240.59 15.9355 243.5 15.6152 243.177 17.5371C242.853 19.459 243.823 22.3419 243.823 22.3419Z" fill="#2F2E41"/>
<path d="M243.369 80.7503H186.896C185.299 80.7503 184 79.4629 184 77.8807V48.1587C184 46.5765 185.299 45.2891 186.896 45.2891H243.369C244.966 45.2891 246.265 46.5765 246.265 48.1587V77.8807C246.265 79.4629 244.966 80.7503 243.369 80.7503Z" fill="white"/>
<path d="M243.369 80.7503H186.896C185.299 80.7503 184 79.4629 184 77.8807V48.1587C184 46.5765 185.299 45.2891 186.896 45.2891H243.369C244.966 45.2891 246.265 46.5765 246.265 48.1587V77.8807C246.265 79.4629 244.966 80.7503 243.369 80.7503ZM186.896 45.7683C185.566 45.7683 184.484 46.8406 184.484 48.1587V77.8807C184.484 79.1987 185.566 80.2711 186.896 80.2711H243.369C244.699 80.2711 245.781 79.1987 245.781 77.8807V48.1587C245.781 46.8406 244.699 45.7683 243.369 45.7683H186.896Z" fill="#3F3D56"/>
<path d="M239.01 48.8829C239.411 48.8829 239.736 48.5611 239.736 48.1641C239.736 47.7671 239.411 47.4453 239.01 47.4453C238.609 47.4453 238.285 47.7671 238.285 48.1641C238.285 48.5611 238.609 48.8829 239.01 48.8829Z" fill="#3F3D56"/>
<path d="M240.945 48.8829C241.345 48.8829 241.67 48.5611 241.67 48.1641C241.67 47.7671 241.345 47.4453 240.945 47.4453C240.544 47.4453 240.219 47.7671 240.219 48.1641C240.219 48.5611 240.544 48.8829 240.945 48.8829Z" fill="#3F3D56"/>
<path d="M242.879 48.8829C243.28 48.8829 243.605 48.5611 243.605 48.1641C243.605 47.7671 243.28 47.4453 242.879 47.4453C242.479 47.4453 242.154 47.7671 242.154 48.1641C242.154 48.5611 242.479 48.8829 242.879 48.8829Z" fill="#3F3D56"/>
<path d="M188.111 59.7812C187.911 59.7812 187.748 59.9425 187.748 60.1407C187.748 60.2373 187.786 60.3267 187.854 60.3927C187.923 60.4626 188.014 60.5001 188.111 60.5001H242.396C242.596 60.5001 242.758 60.3388 242.758 60.1407C242.758 60.044 242.721 59.9546 242.652 59.8887C242.583 59.8187 242.493 59.7812 242.396 59.7812H188.111Z" fill="#E6E6E6"/>
<path d="M235.624 59.6641V60.6225H188.111C187.978 60.6225 187.857 60.5698 187.77 60.4811C187.681 60.3948 187.627 60.275 187.627 60.1433C187.627 59.8797 187.845 59.6641 188.111 59.6641H235.624Z" fill="#0972D3"/>
<path d="M241.791 57.8699H236.954C236.421 57.8699 235.987 57.4401 235.987 56.9115C235.987 56.383 236.421 55.9531 236.954 55.9531H241.791C242.324 55.9531 242.758 56.383 242.758 56.9115C242.758 57.4401 242.324 57.8699 241.791 57.8699Z" fill="#E6E6E6"/>
<path d="M210.112 52.8387H188.474C187.94 52.8387 187.507 52.4089 187.507 51.8803C187.507 51.3517 187.94 50.9219 188.474 50.9219H210.112C210.645 50.9219 211.079 51.3517 211.079 51.8803C211.079 52.4089 210.645 52.8387 210.112 52.8387Z" fill="#E6E6E6"/>
<path d="M188.111 70.5703C187.911 70.5703 187.748 70.7315 187.748 70.9297C187.748 71.0264 187.786 71.1157 187.854 71.1817C187.923 71.2517 188.014 71.2891 188.111 71.2891H242.396C242.596 71.2891 242.758 71.1279 242.758 70.9297C242.758 70.8331 242.721 70.7437 242.652 70.6777C242.583 70.6078 242.493 70.5703 242.396 70.5703H188.111Z" fill="#E6E6E6"/>
<path d="M217.004 70.4453V71.4037H188.111C187.978 71.4037 187.857 71.351 187.77 71.2624C187.681 71.1761 187.627 71.0563 187.627 70.9245C187.627 70.661 187.845 70.4453 188.111 70.4453H217.004Z" fill="#0972D3"/>
<path d="M241.791 68.6512H236.954C236.421 68.6512 235.987 68.2214 235.987 67.6928C235.987 67.1642 236.421 66.7344 236.954 66.7344H241.791C242.324 66.7344 242.758 67.1642 242.758 67.6928C242.758 68.2214 242.324 68.6512 241.791 68.6512Z" fill="#E6E6E6"/>
<path d="M250.258 28.1921C254.441 28.1921 257.832 24.9031 257.832 20.846C257.832 16.7889 254.441 13.5 250.258 13.5C246.075 13.5 242.684 16.7889 242.684 20.846C242.684 24.9031 246.075 28.1921 250.258 28.1921Z" fill="#0972D3"/>
<path d="M252.829 17.1401C251.82 18.9592 250.812 20.7784 249.804 22.5975C249.161 21.4725 248.522 20.3455 247.878 19.2214C247.655 18.8331 247.05 19.1823 247.273 19.5715C248.02 20.8746 248.759 22.1821 249.506 23.4852C249.634 23.708 249.984 23.7132 250.11 23.4852C251.218 21.4869 252.326 19.4886 253.433 17.4902C253.65 17.0987 253.046 16.7482 252.829 17.1401Z" fill="white"/>
<path d="M260.714 40.2109L253.168 36.6344C253.168 36.6344 252.864 34.2406 251.449 33.3867C251.209 32.818 250.932 32.1933 250.681 31.6983C250.059 30.4741 250.991 28.1641 250.214 28.1641C249.437 28.1641 248.288 30.5936 248.349 31.2442C248.396 31.7436 248.812 32.6155 248.898 33.3788C247.951 33.733 247.186 34.34 246.683 34.8233C246.248 35.2415 246.087 35.8655 246.257 36.442C246.749 38.1125 247.981 41.5625 249.748 41.5625C252.079 41.5625 252.701 41.1005 252.701 41.1005C252.701 41.1005 257.52 47.1067 261.095 47.5688C264.67 48.0308 260.714 40.2109 260.714 40.2109Z" fill="#FFB6B6"/>
</g>
<defs>
<clipPath id="clip0_14698_130713">
<rect width="79.5152" height="82" fill="white" transform="translate(184 10)"/>
</clipPath>
</defs>
</svg>
