<svg width="280" height="92" viewBox="0 0 280 92" fill="none" xmlns="http://www.w3.org/2000/svg">
<rect x="0.333374" width="279.455" height="92" rx="8" fill="#414D5C"/>
<path d="M34.1127 53H30.2357V47.1797H25.7533V53H21.8763V38.7227H25.7533V44.0156H30.2357V38.7227H34.1127V53ZM41.7642 41.7402C42.8385 41.7402 43.7662 41.929 44.5474 42.3066C45.3287 42.6777 45.9309 43.2376 46.3541 43.9863C46.7773 44.735 46.9888 45.6725 46.9888 46.7988V48.498H40.1627C40.1952 49.0775 40.4101 49.5527 40.8072 49.9238C41.2108 50.2949 41.8033 50.4805 42.5845 50.4805C43.2747 50.4805 43.9062 50.4121 44.4791 50.2754C45.0585 50.1387 45.6542 49.9271 46.2662 49.6406V52.3848C45.7323 52.6647 45.1497 52.8698 44.5181 53C43.8866 53.1302 43.0891 53.1953 42.1256 53.1953C41.0123 53.1953 40.0162 52.9967 39.1373 52.5996C38.2584 52.2025 37.565 51.5872 37.0572 50.7539C36.5559 49.9206 36.3052 48.8496 36.3052 47.541C36.3052 46.2129 36.5331 45.1224 36.9888 44.2695C37.4446 43.4102 38.0826 42.7754 38.9029 42.3652C39.7232 41.9486 40.677 41.7402 41.7642 41.7402ZM41.901 44.3379C41.4517 44.3379 41.0741 44.4811 40.7681 44.7676C40.4687 45.0475 40.2929 45.4902 40.2408 46.0957H43.522C43.5155 45.7702 43.4504 45.474 43.3267 45.207C43.203 44.9401 43.0207 44.7285 42.7799 44.5723C42.5455 44.416 42.2525 44.3379 41.901 44.3379ZM52.7654 53H48.947V37.8047H52.7654V53ZM61.9697 41.7402C63.1937 41.7402 64.1539 42.2318 64.8506 43.2148C65.5472 44.1914 65.8955 45.6009 65.8955 47.4434C65.8955 48.6999 65.7197 49.7578 65.3681 50.6172C65.0166 51.4701 64.5348 52.1146 63.9228 52.5508C63.3174 52.9805 62.6273 53.1953 61.8525 53.1953C61.3317 53.1953 60.889 53.1302 60.5244 53C60.1663 52.8698 59.8668 52.707 59.626 52.5117C59.3916 52.3164 59.193 52.1178 59.0303 51.916H58.9131C58.9456 52.1699 58.9717 52.4434 58.9912 52.7363C59.0172 53.0293 59.0303 53.3711 59.0303 53.7617V57.8047H55.2119V41.9355H58.3174L58.8545 43.3418H59.0303C59.2125 43.0553 59.4339 42.7917 59.6943 42.5508C59.9547 42.3034 60.2705 42.1081 60.6416 41.9648C61.0192 41.8151 61.4619 41.7402 61.9697 41.7402ZM60.5342 44.7383C60.1631 44.7383 59.8701 44.8262 59.6553 45.002C59.4404 45.1777 59.2842 45.4447 59.1865 45.8027C59.0954 46.1543 59.0433 46.5938 59.0303 47.1211V47.4238C59.0303 48.0098 59.0758 48.5046 59.167 48.9082C59.2581 49.3053 59.4144 49.6081 59.6357 49.8164C59.8571 50.0182 60.1631 50.1191 60.5537 50.1191C60.8727 50.1191 61.1396 50.028 61.3545 49.8457C61.5693 49.6634 61.7321 49.3737 61.8428 48.9766C61.9534 48.5794 62.0088 48.0553 62.0088 47.4043C62.0088 46.4342 61.8818 45.7474 61.6279 45.3438C61.3805 44.9401 61.0159 44.7383 60.5342 44.7383Z" fill="white"/>
<g clip-path="url(#clip0_14698_130750)">
<path d="M182.005 89.0015C185.628 89.0015 188.565 86.1645 188.565 82.6648C188.565 79.1652 185.628 76.3281 182.005 76.3281C178.383 76.3281 175.446 79.1652 175.446 82.6648C175.446 86.1645 178.383 89.0015 182.005 89.0015Z" fill="#0972D3"/>
<path d="M253.423 77.6122C255.313 77.6122 256.845 76.132 256.845 74.3061C256.845 72.4802 255.313 71 253.423 71C251.532 71 250 72.4802 250 74.3061C250 76.132 251.532 77.6122 253.423 77.6122Z" fill="#F2F2F2"/>
<path d="M164.061 18.3153C165.951 18.3153 167.483 16.8351 167.483 15.0092C167.483 13.1833 165.951 11.7031 164.061 11.7031C162.171 11.7031 160.638 13.1833 160.638 15.0092C160.638 16.8351 162.171 18.3153 164.061 18.3153Z" fill="#F2F2F2"/>
<path d="M213.687 30.6669C215.577 30.6669 217.109 29.1867 217.109 27.3608C217.109 25.5349 215.577 24.0547 213.687 24.0547C211.797 24.0547 210.264 25.5349 210.264 27.3608C210.264 29.1867 211.797 30.6669 213.687 30.6669Z" fill="#F2F2F2"/>
<path d="M196.717 46.9169C198.607 46.9169 200.139 45.4367 200.139 43.6108C200.139 41.7849 198.607 40.3047 196.717 40.3047C194.827 40.3047 193.294 41.7849 193.294 43.6108C193.294 45.4367 194.827 46.9169 196.717 46.9169Z" fill="#F2F2F2"/>
<path d="M156.144 74.2919C158.034 74.2919 159.566 72.8117 159.566 70.9858C159.566 69.1599 158.034 67.6797 156.144 67.6797C154.253 67.6797 152.721 69.1599 152.721 70.9858C152.721 72.8117 154.253 74.2919 156.144 74.2919Z" fill="#F2F2F2"/>
<path d="M198 67.0341C199.89 67.0341 201.423 65.5539 201.423 63.728C201.423 61.9021 199.89 60.4219 198 60.4219C196.11 60.4219 194.578 61.9021 194.578 63.728C194.578 65.5539 196.11 67.0341 198 67.0341Z" fill="#F2F2F2"/>
<path d="M222.528 73.9169C224.419 73.9169 225.951 72.4367 225.951 70.6108C225.951 68.7849 224.419 67.3047 222.528 67.3047C220.638 67.3047 219.106 68.7849 219.106 70.6108C219.106 72.4367 220.638 73.9169 222.528 73.9169Z" fill="#F2F2F2"/>
<path d="M232.345 69.5732C234.235 69.5732 235.768 68.093 235.768 66.267C235.768 64.4411 234.235 62.9609 232.345 62.9609C230.455 62.9609 228.923 64.4411 228.923 66.267C228.923 68.093 230.455 69.5732 232.345 69.5732Z" fill="#F2F2F2"/>
<path d="M181.303 16.5395C171.051 16.6095 162.656 24.6574 162.511 34.5601C162.509 34.6515 162.509 35.2944 162.509 36.1352C162.509 37.368 163.016 38.5504 163.918 39.4221C164.821 40.2939 166.045 40.7837 167.321 40.7839C167.953 40.7837 168.58 40.6632 169.164 40.4291C169.749 40.195 170.28 39.852 170.727 39.4196C171.174 38.9872 171.528 38.474 171.77 37.9092C172.012 37.3445 172.136 36.7392 172.135 36.1281C172.135 35.5561 172.135 35.1602 172.135 35.1359C172.134 33.6055 172.546 32.1013 173.33 30.7714C174.114 29.4415 175.243 28.3316 176.606 27.5509C177.969 26.7703 179.518 26.3457 181.102 26.3191C182.686 26.2924 184.25 26.6646 185.641 27.3989C187.031 28.1333 188.199 29.2045 189.03 30.5073C189.862 31.81 190.328 33.2994 190.383 34.8289C190.437 36.3585 190.079 37.8754 189.343 39.2306C188.607 40.5858 187.518 41.7326 186.184 42.5581L186.186 42.56C186.186 42.56 179.337 46.8193 177.249 52.6623L177.25 52.6627C176.883 53.8597 176.697 55.1017 176.698 56.3501C176.698 56.8633 176.729 61.3536 176.79 64.9981C176.811 66.2555 177.343 67.4546 178.271 68.3366C179.199 69.2185 180.449 69.7126 181.751 69.7123C182.405 69.7123 183.053 69.5873 183.657 69.3446C184.261 69.1018 184.809 68.7461 185.27 68.2979C185.731 67.8496 186.096 67.3177 186.344 66.7328C186.591 66.1478 186.717 65.5214 186.713 64.8895C186.692 61.5518 186.68 57.6654 186.68 57.3833C186.68 53.7955 190.263 50.2208 193.206 47.8896C196.596 45.2052 199.034 41.547 200.014 37.4204C200.231 36.5708 200.35 35.7008 200.37 34.826C200.37 32.4134 199.876 30.0247 198.916 27.7974C197.956 25.5701 196.55 23.5483 194.777 21.8486C193.005 20.1488 190.902 18.8046 188.589 17.8934C186.277 16.9822 183.8 16.5221 181.303 16.5395Z" fill="#0972D3"/>
<path d="M227.191 38.4488C233.198 38.4488 238.068 33.9534 238.068 28.408C238.068 22.8626 233.198 18.3672 227.191 18.3672C221.183 18.3672 216.313 22.8626 216.313 28.408C216.313 33.9534 221.183 38.4488 227.191 38.4488Z" fill="#2F2E41"/>
<path d="M226.354 38.4472C231.899 38.4472 236.395 34.3264 236.395 29.2431C236.395 24.1599 231.899 20.0391 226.354 20.0391C220.808 20.0391 216.313 24.1599 216.313 29.2431C216.313 34.3264 220.808 38.4472 226.354 38.4472Z" fill="#A0616A"/>
<path d="M230.776 63.8239L234.471 55.2864C235.369 53.2836 235.626 51.05 235.207 48.8939C234.789 46.7379 233.715 44.7656 232.135 43.2493C231.81 42.9265 231.465 42.625 231.103 42.3465C229.279 40.9121 227.033 40.1304 224.718 40.125C223.162 40.1311 221.625 40.4748 220.213 41.1326C220.091 41.1867 219.974 41.2442 219.853 41.3017C219.621 41.4132 219.392 41.535 219.17 41.6601C217.723 42.4959 216.491 43.6621 215.574 45.0646C214.657 46.4671 214.081 48.0667 213.892 49.7344L212.261 63.4757C211.851 64.5543 197.219 103.506 202.336 133.244C202.391 133.561 202.545 133.853 202.776 134.076C203.007 134.3 203.303 134.443 203.62 134.485L208.808 135.195C209.187 135.247 209.571 135.153 209.884 134.931C210.196 134.71 210.414 134.377 210.493 134.001L219.197 92.2735C219.251 92.0143 219.391 91.7808 219.592 91.6104C219.794 91.44 220.047 91.3425 220.31 91.3335C220.573 91.3246 220.832 91.4046 221.045 91.561C221.257 91.7173 221.412 91.9408 221.483 92.1958L233.782 136.077C233.87 136.396 234.059 136.677 234.321 136.877C234.583 137.078 234.902 137.186 235.231 137.186C235.329 137.186 235.427 137.177 235.524 137.159L241.861 135.932C242.23 135.863 242.559 135.657 242.785 135.356C243.011 135.056 243.117 134.681 243.082 134.305C242.151 123.861 237.201 71.5433 230.776 63.8239Z" fill="#2F2E41"/>
<path d="M192.911 36.545C192.845 37.0502 192.903 37.5623 193.082 38.0451C193.26 38.5278 193.554 38.9696 193.943 39.3392C194.332 39.7088 194.806 39.9972 195.332 40.1843C195.859 40.3713 196.424 40.4523 196.989 40.4216L202.274 51.8379L206.272 46.511L200.64 36.4867C200.52 35.6371 200.057 34.8566 199.34 34.2932C198.622 33.7298 197.699 33.4226 196.747 33.4298C195.794 33.437 194.877 33.7581 194.17 34.3322C193.463 34.9064 193.015 35.6937 192.911 36.545Z" fill="#A0616A"/>
<path d="M225.243 75.246C225.745 75.1956 226.227 75.0533 226.657 74.8292C227.086 74.6051 227.451 74.3046 227.728 73.9489C228.004 73.5932 228.184 73.1909 228.255 72.7704C228.326 72.3499 228.287 71.9213 228.14 71.515L238.068 65.4363L232.091 63.5547L223.579 69.6156C222.783 69.8686 222.125 70.3583 221.731 70.9917C221.336 71.625 221.231 72.3582 221.436 73.0523C221.641 73.7463 222.142 74.3529 222.844 74.7572C223.545 75.1616 224.399 75.3355 225.243 75.246Z" fill="#A0616A"/>
<path d="M210.448 60.2066C210.056 60.2062 209.666 60.1618 209.282 60.074C208.354 59.8699 207.483 59.4053 206.747 58.7212C206.011 58.037 205.432 57.1542 205.061 56.1506L198.265 46.5817C198.122 46.3794 198.017 46.144 197.959 45.8912C197.9 45.6384 197.889 45.3742 197.926 45.1161C197.964 44.858 198.048 44.612 198.174 44.3947C198.3 44.1774 198.465 43.9938 198.658 43.856L203.493 40.4C203.671 40.2724 203.87 40.1868 204.077 40.1483C204.284 40.1098 204.496 40.1191 204.7 40.1756C204.905 40.2321 205.097 40.3348 205.267 40.4777C205.436 40.6205 205.58 40.8008 205.689 41.008L210.478 50.1202L219.651 42.2922C220.381 41.85 221.225 41.726 222.028 41.9428C222.831 42.1596 223.539 42.7028 224.024 43.4731C224.509 44.2434 224.737 45.1894 224.668 46.1383C224.599 47.0872 224.236 47.9756 223.647 48.6412L214.492 58.285C213.416 59.5164 211.962 60.2071 210.448 60.2066Z" fill="#2F2E41"/>
<path d="M234.225 70.2443C234.212 70.2443 234.199 70.2443 234.186 70.2439C233.951 70.2386 233.721 70.1873 233.508 70.0935C233.296 69.9996 233.108 69.8652 232.955 69.699L228.43 64.7737C228.276 64.6059 228.162 64.4096 228.095 64.1976C228.028 63.9856 228.011 63.7628 228.043 63.544C228.075 63.3251 228.157 63.1152 228.283 62.928C228.409 62.7408 228.575 62.5806 228.772 62.4581L237.245 57.1877L229.57 48.5774C229.123 47.8828 228.959 47.0616 229.108 46.2636C229.257 45.4657 229.708 44.7444 230.38 44.2315C231.052 43.7185 231.899 43.4482 232.767 43.47C233.634 43.4917 234.465 43.804 235.106 44.3498L244.435 52.8561C245.169 53.4819 245.729 54.2647 246.068 55.1371C246.407 56.0095 246.513 56.9456 246.379 57.865C246.245 58.7844 245.873 59.6596 245.296 60.4155C244.72 61.1714 243.955 61.7854 243.068 62.2049L235.443 69.7539C235.287 69.9086 235.098 70.032 234.889 70.1163C234.679 70.2006 234.454 70.2441 234.225 70.2443Z" fill="#2F2E41"/>
<path d="M223.832 51.8393C223.748 51.8393 223.664 51.8355 223.58 51.828C223.216 51.7965 222.872 51.6916 222.589 51.5257C222.306 51.3597 222.096 51.1397 221.984 50.8917L218.051 42.3408C217.952 42.1246 217.967 41.8904 218.093 41.6816C218.219 41.4727 218.448 41.3032 218.737 41.2045L218.864 41.1618C218.98 41.1228 219.094 41.0842 219.211 41.0472C221.046 40.4441 223.042 40.1295 225.064 40.125C227.688 40.1284 230.255 40.6752 232.447 41.6982C232.741 41.8369 232.946 42.0519 233.019 42.297C233.091 42.542 233.025 42.7975 232.835 43.0083L225.456 51.2049C225.283 51.3995 225.044 51.5598 224.759 51.6707C224.475 51.7817 224.156 51.8397 223.832 51.8393Z" fill="#E6E6E6"/>
<path d="M232.774 19.3999C233.547 19.3999 234.174 18.7945 234.174 18.0476C234.174 17.3008 233.547 16.6953 232.774 16.6953C232.001 16.6953 231.374 17.3008 231.374 18.0476C231.374 18.7945 232.001 19.3999 232.774 19.3999Z" fill="#2F2E41"/>
<path d="M226.673 16.6953C223.925 16.6953 221.29 17.6865 219.347 19.4507C217.404 21.215 216.313 23.6079 216.313 26.1029V30.0831H221.704L224.282 26.1029L225.055 30.0831H241.415L237.032 26.1029C237.032 23.6079 235.941 21.215 233.998 19.4507C232.055 17.6865 229.42 16.6953 226.673 16.6953Z" fill="#2F2E41"/>
<path d="M233.048 18.3223C233.387 17.2594 234.089 16.3503 235.03 15.755C235.971 15.1596 237.092 14.916 238.195 15.0671C240.148 15.3946 241.693 16.9693 242.614 18.728C243.534 20.4867 243.959 22.4551 244.578 24.3419C245.196 26.2287 246.074 28.1257 247.636 29.3471C249.198 30.5684 251.595 30.8997 253.129 29.6433C252.954 30.9527 252.373 32.1737 251.467 33.1337C250.562 34.0936 249.379 34.7439 248.085 34.9925C246.791 35.2411 245.451 35.0755 244.256 34.5191C243.061 33.9627 242.071 33.0437 241.425 31.892C240.616 30.4479 240.407 28.7554 240.167 27.1164C239.927 25.4774 239.615 23.7815 238.648 22.438C237.682 21.0944 235.873 20.2169 234.337 20.8289L233.048 18.3223Z" fill="#2F2E41"/>
<path d="M181.629 26.3314C183.104 26.3995 184.541 26.8124 185.815 27.5348C187.088 28.2572 188.162 29.2674 188.942 30.4788C189.723 31.6901 190.187 33.0663 190.296 34.4893C190.405 35.9123 190.154 37.3395 189.566 38.6484C190.417 37.6834 191.042 36.5526 191.399 35.333C191.757 34.1134 191.837 32.8337 191.636 31.5813C191.435 30.3288 190.956 29.133 190.233 28.0753C189.51 27.0176 188.56 26.123 187.447 25.4523C186.333 24.7817 185.083 24.3509 183.782 24.1892C182.48 24.0275 181.158 24.1388 179.905 24.5155C178.653 24.8922 177.499 25.5253 176.522 26.3719C175.546 27.2184 174.77 28.2584 174.247 29.4209C175.15 28.3943 176.286 27.5818 177.566 27.0461C178.846 26.5105 180.236 26.2659 181.629 26.3314Z" fill="#3F3D56"/>
<path d="M182.629 68.9637C181.327 68.964 180.077 68.4698 179.149 67.5879C178.221 66.7059 177.689 65.5069 177.667 64.2494C177.607 60.6049 177.576 56.1147 177.576 55.6015C177.575 54.3531 177.761 53.1111 178.128 51.9141L178.126 51.9137C178.343 51.3129 178.605 50.7281 178.91 50.1641C177.974 51.3686 177.229 52.7011 176.7 54.1177L176.702 54.1182C176.335 55.3151 176.149 56.5571 176.15 57.8056C176.15 58.3187 176.181 62.809 176.241 66.4535C176.262 67.7109 176.795 68.91 177.723 69.792C178.651 70.6739 179.901 71.168 181.203 71.1678C182.276 71.1676 183.321 70.8312 184.179 70.2091C185.038 69.5869 185.665 68.7126 185.966 67.7172C185.054 68.5207 183.863 68.9654 182.629 68.9637Z" fill="#3F3D56"/>
<path d="M180.56 87.4573C179.628 87.0652 178.804 86.4693 178.151 85.7166C177.498 84.9639 177.036 84.075 176.8 83.12C176.564 82.165 176.561 81.1701 176.791 80.2137C177.021 79.2574 177.478 78.3658 178.126 77.6094C177.375 78.1392 176.749 78.8174 176.289 79.5988C175.83 80.3803 175.548 81.2471 175.463 82.1418C175.377 83.0365 175.489 83.9387 175.791 84.7883C176.094 85.638 176.58 86.4158 177.218 87.07C177.855 87.7243 178.63 88.2401 179.49 88.5831C180.349 88.9262 181.275 89.0887 182.204 89.0599C183.134 89.031 184.047 88.8115 184.882 88.4159C185.717 88.0202 186.456 87.4575 187.049 86.7651C186.124 87.4179 185.038 87.8254 183.9 87.9468C182.762 88.0683 181.61 87.8995 180.56 87.4573Z" fill="#3F3D56"/>
</g>
<defs>
<clipPath id="clip0_14698_130750">
<rect width="120.455" height="82" fill="white" transform="translate(139.333 10)"/>
</clipPath>
</defs>
</svg>
