<svg width="280" height="93" viewBox="0 0 280 93" fill="none" xmlns="http://www.w3.org/2000/svg">
<rect x="0.666687" width="279.333" height="92" rx="8" fill="#414D5C"/>
<path d="M26.8874 38.7227C28.183 38.7227 29.2604 38.8822 30.1198 39.2012C30.9792 39.5137 31.6237 39.9824 32.0534 40.6074C32.4896 41.2324 32.7077 42.0104 32.7077 42.9414C32.7077 43.5208 32.61 44.0482 32.4147 44.5234C32.2194 44.9987 31.9395 45.4251 31.5749 45.8027C31.2168 46.1738 30.7871 46.4993 30.2858 46.7793L34.446 53H30.071L27.0436 47.8047H26.0671V53H22.2097V38.7227H26.8874ZM26.8288 41.6426H26.0671V44.9043H26.7897C27.3822 44.9043 27.8672 44.7741 28.2448 44.5137C28.6224 44.2533 28.8112 43.7878 28.8112 43.1172C28.8112 42.6549 28.655 42.2936 28.3425 42.0332C28.03 41.7728 27.5254 41.6426 26.8288 41.6426ZM40.3007 41.7402C41.3749 41.7402 42.3026 41.929 43.0839 42.3066C43.8651 42.6777 44.4673 43.2376 44.8905 43.9863C45.3137 44.735 45.5253 45.6725 45.5253 46.7988V48.498H38.6991C38.7317 49.0775 38.9465 49.5527 39.3436 49.9238C39.7473 50.2949 40.3397 50.4805 41.121 50.4805C41.8111 50.4805 42.4426 50.4121 43.0155 50.2754C43.5949 50.1387 44.1906 49.9271 44.8026 49.6406V52.3848C44.2688 52.6647 43.6861 52.8698 43.0546 53C42.4231 53.1302 41.6255 53.1953 40.662 53.1953C39.5487 53.1953 38.5526 52.9967 37.6737 52.5996C36.7948 52.2025 36.1015 51.5872 35.5936 50.7539C35.0923 49.9206 34.8417 48.8496 34.8417 47.541C34.8417 46.2129 35.0696 45.1224 35.5253 44.2695C35.981 43.4102 36.619 42.7754 37.4393 42.3652C38.2597 41.9486 39.2134 41.7402 40.3007 41.7402ZM40.4374 44.3379C39.9882 44.3379 39.6106 44.4811 39.3046 44.7676C39.0051 45.0475 38.8293 45.4902 38.7772 46.0957H42.0585C42.052 45.7702 41.9869 45.474 41.8632 45.207C41.7395 44.9401 41.5572 44.7285 41.3163 44.5723C41.0819 44.416 40.789 44.3379 40.4374 44.3379ZM51.3018 53H47.4835V37.8047H51.3018V53ZM58.7288 41.7402C59.803 41.7402 60.7307 41.929 61.512 42.3066C62.2932 42.6777 62.8955 43.2376 63.3186 43.9863C63.7418 44.735 63.9534 45.6725 63.9534 46.7988V48.498H57.1272C57.1598 49.0775 57.3746 49.5527 57.7718 49.9238C58.1754 50.2949 58.7679 50.4805 59.5491 50.4805C60.2392 50.4805 60.8707 50.4121 61.4436 50.2754C62.0231 50.1387 62.6188 49.9271 63.2307 49.6406V52.3848C62.6969 52.6647 62.1142 52.8698 61.4827 53C60.8512 53.1302 60.0537 53.1953 59.0901 53.1953C57.9768 53.1953 56.9807 52.9967 56.1018 52.5996C55.2229 52.2025 54.5296 51.5872 54.0218 50.7539C53.5205 49.9206 53.2698 48.8496 53.2698 47.541C53.2698 46.2129 53.4977 45.1224 53.9534 44.2695C54.4091 43.4102 55.0472 42.7754 55.8675 42.3652C56.6878 41.9486 57.6416 41.7402 58.7288 41.7402ZM58.8655 44.3379C58.4163 44.3379 58.0387 44.4811 57.7327 44.7676C57.4332 45.0475 57.2574 45.4902 57.2054 46.0957H60.4866C60.4801 45.7702 60.415 45.474 60.2913 45.207C60.1676 44.9401 59.9853 44.7285 59.7444 44.5723C59.51 44.416 59.2171 44.3379 58.8655 44.3379ZM71.312 41.7402C72.7117 41.7402 73.8055 42.0885 74.5933 42.7852C75.381 43.4753 75.7749 44.4616 75.7749 45.7441V53H73.1284L72.396 51.5352H72.3179C72.0054 51.9258 71.6831 52.2448 71.3511 52.4922C71.0255 52.7331 70.6512 52.9089 70.228 53.0195C69.8048 53.1367 69.2873 53.1953 68.6753 53.1953C68.0373 53.1953 67.4643 53.0651 66.9565 52.8047C66.4487 52.5443 66.0483 52.1504 65.7554 51.623C65.4624 51.0957 65.3159 50.4284 65.3159 49.6211C65.3159 48.4362 65.7261 47.5573 66.5464 46.9844C67.3667 46.4115 68.5548 46.0892 70.1108 46.0176L71.9565 45.959V45.8027C71.9565 45.3079 71.8328 44.9564 71.5854 44.748C71.3446 44.5397 71.019 44.4355 70.6089 44.4355C70.1727 44.4355 69.6844 44.5137 69.144 44.6699C68.6102 44.8197 68.0731 45.015 67.5327 45.2559L66.4292 42.7363C67.0672 42.4108 67.7899 42.1634 68.5972 41.9941C69.4044 41.8249 70.3094 41.7402 71.312 41.7402ZM71.9761 48.0586L71.0972 48.0977C70.394 48.1237 69.8992 48.2474 69.6128 48.4688C69.3328 48.6836 69.1929 48.9928 69.1929 49.3965C69.1929 49.7741 69.2938 50.054 69.4956 50.2363C69.6974 50.4121 69.9643 50.5 70.2964 50.5C70.7586 50.5 71.1525 50.3535 71.478 50.0605C71.81 49.7676 71.9761 49.3867 71.9761 48.918V48.0586ZM86.3952 49.6016C86.3952 50.3047 86.239 50.9264 85.9265 51.4668C85.614 52.0072 85.1127 52.4303 84.4225 52.7363C83.739 53.0423 82.8373 53.1953 81.7175 53.1953C80.9297 53.1953 80.2233 53.153 79.5983 53.0684C78.9798 52.9837 78.3516 52.821 77.7136 52.5801V49.5234C78.4102 49.8424 79.1198 50.0736 79.8425 50.2168C80.5651 50.3535 81.1348 50.4219 81.5515 50.4219C81.9811 50.4219 82.2936 50.3763 82.489 50.2852C82.6908 50.1875 82.7917 50.0443 82.7917 49.8555C82.7917 49.6927 82.7233 49.556 82.5866 49.4453C82.4564 49.3281 82.2188 49.1947 81.8737 49.0449C81.5352 48.8952 81.0567 48.6934 80.4382 48.4395C79.8262 48.1855 79.3151 47.9089 78.905 47.6094C78.5013 47.3099 78.1986 46.9518 77.9968 46.5352C77.7949 46.1185 77.694 45.6074 77.694 45.002C77.694 43.9212 78.1107 43.1074 78.944 42.5605C79.7774 42.0137 80.8809 41.7402 82.2546 41.7402C82.9837 41.7402 83.6706 41.8216 84.3151 41.9844C84.9597 42.1406 85.627 42.3717 86.3171 42.6777L85.2722 45.1387C84.7253 44.8913 84.1719 44.6927 83.612 44.543C83.0521 44.3932 82.6061 44.3184 82.2741 44.3184C81.9746 44.3184 81.7435 44.3574 81.5807 44.4355C81.418 44.5137 81.3366 44.6276 81.3366 44.7773C81.3366 44.9141 81.3919 45.0345 81.5026 45.1387C81.6198 45.2428 81.8379 45.3633 82.1569 45.5C82.4759 45.6367 82.9414 45.8288 83.5534 46.0762C84.1979 46.3366 84.7285 46.6165 85.1452 46.916C85.5684 47.209 85.8809 47.5671 86.0827 47.9902C86.291 48.4134 86.3952 48.9505 86.3952 49.6016ZM93.3046 41.7402C94.3788 41.7402 95.3065 41.929 96.0878 42.3066C96.869 42.6777 97.4712 43.2376 97.8944 43.9863C98.3176 44.735 98.5292 45.6725 98.5292 46.7988V48.498H91.703C91.7356 49.0775 91.9504 49.5527 92.3475 49.9238C92.7512 50.2949 93.3436 50.4805 94.1249 50.4805C94.815 50.4805 95.4465 50.4121 96.0194 50.2754C96.5989 50.1387 97.1946 49.9271 97.8065 49.6406V52.3848C97.2727 52.6647 96.69 52.8698 96.0585 53C95.427 53.1302 94.6295 53.1953 93.6659 53.1953C92.5526 53.1953 91.5565 52.9967 90.6776 52.5996C89.7987 52.2025 89.1054 51.5872 88.5975 50.7539C88.0962 49.9206 87.8456 48.8496 87.8456 47.541C87.8456 46.2129 88.0735 45.1224 88.5292 44.2695C88.9849 43.4102 89.6229 42.7754 90.4433 42.3652C91.2636 41.9486 92.2173 41.7402 93.3046 41.7402ZM93.4413 44.3379C92.9921 44.3379 92.6145 44.4811 92.3085 44.7676C92.009 45.0475 91.8332 45.4902 91.7811 46.0957H95.0624C95.0559 45.7702 94.9908 45.474 94.8671 45.207C94.7434 44.9401 94.5611 44.7285 94.3202 44.5723C94.0858 44.416 93.7929 44.3379 93.4413 44.3379ZM112.407 41.7402C113.546 41.7402 114.477 42.0625 115.2 42.707C115.922 43.3516 116.283 44.3835 116.283 45.8027V53H112.465V46.9648C112.465 46.2292 112.358 45.6758 112.143 45.3047C111.935 44.9271 111.596 44.7383 111.127 44.7383C110.405 44.7383 109.92 45.0345 109.672 45.627C109.425 46.2129 109.301 47.056 109.301 48.1562V53H105.483V41.9355H108.364L108.881 43.4004H109.028C109.262 43.0488 109.542 42.7493 109.867 42.502C110.193 42.2546 110.567 42.0658 110.991 41.9355C111.414 41.8053 111.886 41.7402 112.407 41.7402ZM129.248 47.4434C129.248 48.3678 129.121 49.1882 128.867 49.9043C128.613 50.6204 128.245 51.2227 127.763 51.7109C127.281 52.1992 126.699 52.5703 126.015 52.8242C125.332 53.0716 124.56 53.1953 123.701 53.1953C122.9 53.1953 122.164 53.0716 121.494 52.8242C120.83 52.5703 120.25 52.1992 119.755 51.7109C119.261 51.2227 118.876 50.6204 118.603 49.9043C118.336 49.1882 118.203 48.3678 118.203 47.4434C118.203 46.2194 118.424 45.1842 118.867 44.3379C119.316 43.4915 119.954 42.847 120.781 42.4043C121.614 41.9616 122.607 41.7402 123.759 41.7402C124.82 41.7402 125.764 41.9616 126.591 42.4043C127.418 42.847 128.066 43.4915 128.535 44.3379C129.01 45.1842 129.248 46.2194 129.248 47.4434ZM122.08 47.4434C122.08 48.0749 122.135 48.6087 122.246 49.0449C122.356 49.4746 122.532 49.8034 122.773 50.0312C123.02 50.2526 123.343 50.3633 123.74 50.3633C124.137 50.3633 124.453 50.2526 124.687 50.0312C124.921 49.8034 125.091 49.4746 125.195 49.0449C125.305 48.6087 125.361 48.0749 125.361 47.4434C125.361 46.8118 125.305 46.2845 125.195 45.8613C125.091 45.4382 124.918 45.1191 124.677 44.9043C124.443 44.6895 124.124 44.582 123.72 44.582C123.141 44.582 122.721 44.8229 122.46 45.3047C122.207 45.7865 122.08 46.4993 122.08 47.4434ZM136.655 50.1777C137 50.1777 137.316 50.1419 137.602 50.0703C137.889 49.9987 138.188 49.9076 138.501 49.7969V52.5801C138.084 52.7624 137.641 52.9089 137.173 53.0195C136.71 53.1367 136.118 53.1953 135.395 53.1953C134.679 53.1953 134.048 53.0846 133.501 52.8633C132.954 52.6354 132.527 52.2448 132.221 51.6914C131.922 51.1315 131.772 50.3535 131.772 49.3574V44.7969H130.434V43.2441L132.133 42.043L133.12 39.7188H135.62V41.9355H138.335V44.7969H135.62V49.1035C135.62 49.4616 135.711 49.7318 135.893 49.9141C136.076 50.0898 136.329 50.1777 136.655 50.1777ZM145.215 41.7402C146.289 41.7402 147.217 41.929 147.998 42.3066C148.779 42.6777 149.381 43.2376 149.805 43.9863C150.228 44.735 150.439 45.6725 150.439 46.7988V48.498H143.613C143.646 49.0775 143.861 49.5527 144.258 49.9238C144.661 50.2949 145.254 50.4805 146.035 50.4805C146.725 50.4805 147.357 50.4121 147.93 50.2754C148.509 50.1387 149.105 49.9271 149.717 49.6406V52.3848C149.183 52.6647 148.6 52.8698 147.969 53C147.337 53.1302 146.54 53.1953 145.576 53.1953C144.463 53.1953 143.467 52.9967 142.588 52.5996C141.709 52.2025 141.016 51.5872 140.508 50.7539C140.006 49.9206 139.756 48.8496 139.756 47.541C139.756 46.2129 139.984 45.1224 140.439 44.2695C140.895 43.4102 141.533 42.7754 142.353 42.3652C143.174 41.9486 144.127 41.7402 145.215 41.7402ZM145.351 44.3379C144.902 44.3379 144.525 44.4811 144.219 44.7676C143.919 45.0475 143.743 45.4902 143.691 46.0957H146.973C146.966 45.7702 146.901 45.474 146.777 45.207C146.654 44.9401 146.471 44.7285 146.23 44.5723C145.996 44.416 145.703 44.3379 145.351 44.3379ZM160.62 49.6016C160.62 50.3047 160.464 50.9264 160.151 51.4668C159.839 52.0072 159.338 52.4303 158.648 52.7363C157.964 53.0423 157.062 53.1953 155.942 53.1953C155.155 53.1953 154.448 53.153 153.823 53.0684C153.205 52.9837 152.577 52.821 151.939 52.5801V49.5234C152.635 49.8424 153.345 50.0736 154.067 50.2168C154.79 50.3535 155.36 50.4219 155.776 50.4219C156.206 50.4219 156.519 50.3763 156.714 50.2852C156.916 50.1875 157.017 50.0443 157.017 49.8555C157.017 49.6927 156.948 49.556 156.812 49.4453C156.681 49.3281 156.444 49.1947 156.099 49.0449C155.76 48.8952 155.282 48.6934 154.663 48.4395C154.051 48.1855 153.54 47.9089 153.13 47.6094C152.726 47.3099 152.424 46.9518 152.222 46.5352C152.02 46.1185 151.919 45.6074 151.919 45.002C151.919 43.9212 152.336 43.1074 153.169 42.5605C154.002 42.0137 155.106 41.7402 156.48 41.7402C157.209 41.7402 157.896 41.8216 158.54 41.9844C159.185 42.1406 159.852 42.3717 160.542 42.6777L159.497 45.1387C158.95 44.8913 158.397 44.6927 157.837 44.543C157.277 44.3932 156.831 44.3184 156.499 44.3184C156.2 44.3184 155.969 44.3574 155.806 44.4355C155.643 44.5137 155.562 44.6276 155.562 44.7773C155.562 44.9141 155.617 45.0345 155.728 45.1387C155.845 45.2428 156.063 45.3633 156.382 45.5C156.701 45.6367 157.166 45.8288 157.778 46.0762C158.423 46.3366 158.954 46.6165 159.37 46.916C159.793 47.209 160.106 47.5671 160.308 47.9902C160.516 48.4134 160.62 48.9505 160.62 49.6016Z" fill="white"/>
<g clip-path="url(#clip0_14698_130795)">
<path d="M255.312 84.3656L253.733 84.3654L252.982 78.2734L255.313 78.2736L255.312 84.3656Z" fill="#FFB8B8"/>
<path d="M237.078 68.7026H205.925C204.73 68.7012 203.585 68.1899 202.741 67.281C201.896 66.3721 201.421 65.1397 201.419 63.8543V14.8171C201.421 13.5317 201.896 12.2993 202.741 11.3904C203.585 10.4815 204.73 9.97021 205.925 9.96875H237.078C238.272 9.97021 239.417 10.4815 240.262 11.3904C241.107 12.2993 241.582 13.5317 241.583 14.8171V63.8543C241.582 65.1397 241.107 66.3721 240.262 67.281C239.417 68.1899 238.272 68.7012 237.078 68.7026Z" fill="white"/>
<path d="M231.394 47.5431H211.177C209.112 47.5308 209.103 43.6695 211.177 43.6563L231.394 43.6562C233.457 43.6681 233.469 47.5298 231.394 47.5431Z" fill="#CCCCCC"/>
<path d="M231.394 21.6268H211.177C209.112 21.616 209.103 18.1836 211.177 18.1719L231.394 18.1719C233.457 18.1824 233.469 21.615 231.394 21.6268Z" fill="#CCCCCC"/>
<path d="M231.394 53.1559H211.177C209.112 53.1464 209.103 50.1431 211.177 50.1328L231.394 50.1328C233.457 50.142 233.469 53.1456 231.394 53.1559Z" fill="#CCCCCC"/>
<path d="M231.394 59.2049H211.177C209.112 59.1941 209.103 55.7618 211.177 55.75L231.394 55.75C233.457 55.7606 233.469 59.1931 231.394 59.2049Z" fill="#CCCCCC"/>
<path d="M230.952 40.2013H211.619C211.09 40.2007 210.583 39.9861 210.209 39.6048C209.836 39.2234 209.625 38.7063 209.625 38.167V27.1202C209.625 26.5809 209.836 26.0638 210.209 25.6824C210.583 25.3011 211.09 25.0865 211.619 25.0859H230.952C231.481 25.0865 231.987 25.3011 232.361 25.6824C232.735 26.0638 232.945 26.5809 232.946 27.1202V38.167C232.945 38.7063 232.735 39.2234 232.361 39.6048C231.987 39.9861 231.481 40.2007 230.952 40.2013Z" fill="#0972D3"/>
<path d="M237.078 68.7026H205.925C204.73 68.7012 203.585 68.1899 202.741 67.281C201.896 66.3721 201.421 65.1397 201.419 63.8543V14.8171C201.421 13.5317 201.896 12.2993 202.741 11.3904C203.585 10.4815 204.73 9.97021 205.925 9.96875H237.078C238.272 9.97021 239.417 10.4815 240.262 11.3904C241.107 12.2993 241.582 13.5317 241.583 14.8171V63.8543C241.582 65.1397 241.107 66.3721 240.262 67.281C239.417 68.1899 238.272 68.7012 237.078 68.7026ZM205.925 10.7999C204.935 10.8011 203.986 11.2247 203.286 11.9778C202.587 12.7309 202.193 13.752 202.192 14.8171V63.8543C202.193 64.9194 202.587 65.9405 203.286 66.6936C203.986 67.4467 204.935 67.8703 205.925 67.8715H237.078C238.067 67.8703 239.016 67.4467 239.716 66.6936C240.416 65.9404 240.81 64.9194 240.811 63.8543V14.8171C240.81 13.752 240.416 12.7309 239.716 11.9778C239.016 11.2247 238.067 10.8011 237.078 10.7999H205.925Z" fill="#E6E6E6"/>
<path d="M260.937 89.7756C260.715 89.4588 260.55 89.083 260.453 88.6747C260.355 88.2663 260.328 87.8353 260.374 87.4121C260.419 86.9888 260.536 86.5836 260.715 86.2249C260.895 85.8663 261.133 85.5629 261.413 85.3362L260.56 78.7487L263.529 77.1016L264.633 86.4263C264.896 87.06 264.971 87.7967 264.842 88.4966C264.714 89.1966 264.391 89.8112 263.935 90.224C263.48 90.6369 262.923 90.8193 262.37 90.7366C261.818 90.654 261.308 90.312 260.937 89.7756Z" fill="#FFB8B8"/>
<path d="M235.744 86.86C236.013 86.6619 236.233 86.4112 236.387 86.1257C236.541 85.8401 236.626 85.5267 236.635 85.2074C236.645 84.888 236.579 84.5706 236.443 84.2775C236.306 83.9844 236.102 83.7227 235.845 83.5108L237.595 78.7902L234.77 77.1016L232.4 83.8003C232.046 84.2255 231.872 84.7567 231.911 85.2933C231.95 85.8299 232.199 86.3346 232.611 86.7117C233.023 87.0889 233.57 87.3123 234.147 87.3396C234.725 87.3669 235.293 87.1963 235.744 86.86Z" fill="#FFB8B8"/>
<path d="M251.249 46.3838C255.02 46.3838 258.077 43.5819 258.077 40.1255C258.077 36.6691 255.02 33.8672 251.249 33.8672C247.479 33.8672 244.422 36.6691 244.422 40.1255C244.422 43.5819 247.479 46.3838 251.249 46.3838Z" fill="#FFB8B8"/>
<path d="M235.953 82.7953C235.848 82.7952 235.743 82.7788 235.642 82.7464L233.856 82.1772C233.571 82.0857 233.33 81.8727 233.185 81.5847C233.041 81.2966 233.005 80.9569 233.085 80.6397L236.772 66.1921L241.913 52.184C242.425 50.7914 243.493 49.8782 244.701 49.8007C245.253 49.7707 245.8 49.919 246.278 50.2276C246.755 50.5362 247.142 50.9918 247.391 51.5392C247.667 52.1251 247.819 52.7735 247.834 53.4347C247.85 54.0959 247.729 54.7523 247.48 55.3533L241.636 69.5373L236.99 82.0242C236.906 82.2523 236.762 82.4473 236.577 82.5845C236.393 82.7218 236.175 82.7951 235.953 82.7953Z" fill="#3F3D56"/>
<path d="M255.26 45.1826L251.742 45.2451C251.376 45.2523 251.013 45.1734 250.683 45.0147C250.352 44.8561 250.064 44.6221 249.841 44.3317C249.618 44.0413 249.466 43.7026 249.398 43.3428C249.33 42.9831 249.347 42.6124 249.449 42.2607C249.524 42.0066 249.581 41.7473 249.618 41.485C249.658 41.1989 249.665 40.9093 249.641 40.6214C249.619 40.3332 249.499 40.0611 249.302 39.8498C249.104 39.6384 248.841 39.5004 248.555 39.4582C248.268 39.4161 247.976 39.4723 247.726 39.6178C247.476 39.7632 247.283 39.9893 247.178 40.2588C246.587 40.2672 245.327 40.0746 244.735 40.083C243.479 36.8669 246.216 32.6585 249.162 31.0778C252.166 29.4664 256.064 31.1058 257.216 34.4644C258.813 34.4931 260.112 36.0672 260.318 37.8392C260.524 39.6112 259.794 41.4615 258.677 42.8197C257.561 44.1778 256.095 45.1678 255.26 45.1826Z" fill="#2F2E41"/>
<path d="M243.494 127.171C243.206 127.17 242.928 127.062 242.713 126.869C242.498 126.676 242.362 126.411 242.33 126.124L241.008 81.6562L257.654 82.8423L257.667 82.9494C261.429 114.468 260.143 125.379 260.13 125.485C260.12 125.646 260.078 125.804 260.005 125.948C259.932 126.092 259.831 126.22 259.706 126.323C259.582 126.426 259.438 126.502 259.283 126.547C259.128 126.592 258.965 126.604 258.805 126.583L255.126 126.671C254.848 126.64 254.589 126.509 254.398 126.303C254.207 126.097 254.096 125.83 254.085 125.549L250.648 93.3416C250.627 93.2579 250.577 93.1844 250.507 93.134C250.437 93.0835 250.352 93.0594 250.266 93.0657C250.177 93.0654 250.091 93.0959 250.023 93.152C249.954 93.2081 249.907 93.2863 249.89 93.3732L248.562 125.686C248.576 125.986 248.475 126.28 248.278 126.507C248.082 126.734 247.806 126.877 247.508 126.906L243.611 127.165C243.572 127.169 243.533 127.171 243.494 127.171Z" fill="#2F2E41"/>
<path d="M249.4 87.344C249.296 87.344 249.191 87.3425 249.087 87.3394C244.07 87.193 240.145 83.5157 239.062 82.3921C238.924 82.2488 238.825 82.0747 238.773 81.8853C238.722 81.6958 238.719 81.4969 238.766 81.3064L241.66 69.4441L240.892 59.1314C240.772 57.7001 240.966 56.2603 241.461 54.9068C241.956 53.5533 242.742 52.3168 243.766 51.2787C244.619 50.4052 245.656 49.7197 246.807 49.2687C247.958 48.8176 249.196 48.6115 250.436 48.6644C255.319 48.8901 259.172 53.1193 259.207 58.2923C259.261 66.3043 259.017 66.8547 258.937 67.0356C256.5 72.5467 257.831 80.2825 258.297 82.5222C258.339 82.7221 258.327 82.9289 258.263 83.1231C258.199 83.3173 258.085 83.4924 257.931 83.6319C255.251 86.0961 252.382 87.3439 249.4 87.344Z" fill="#3F3D56"/>
<path d="M261.707 83.9281C261.434 83.9279 261.169 83.8355 260.955 83.6661C260.741 83.4966 260.592 83.2601 260.531 82.9953L257.6 70.2989L253.671 55.7871C253.503 55.1718 253.48 54.5264 253.602 53.9005C253.724 53.2747 253.989 52.6851 254.377 52.177C254.729 51.7008 255.212 51.3362 255.768 51.1273C256.324 50.9183 256.928 50.874 257.509 50.9996C258.779 51.2869 259.766 52.3438 260.086 53.7581L263.296 67.9686L264.897 82.3693C264.931 82.6851 264.839 83.0017 264.639 83.25C264.44 83.4982 264.15 83.6581 263.833 83.6947L261.846 83.9201C261.8 83.9254 261.754 83.9281 261.707 83.9281Z" fill="#3F3D56"/>
</g>
<defs>
<clipPath id="clip0_14698_130795">
<rect width="87.2371" height="82.0547" fill="white" transform="translate(177.667 9.96875)"/>
</clipPath>
</defs>
</svg>
