<svg width="280" height="93" viewBox="0 0 280 93" fill="none" xmlns="http://www.w3.org/2000/svg">
<rect x="0.666748" width="279.333" height="92" rx="8" fill="#EFF7FF"/>
<path d="M26.8875 38.7227C28.183 38.7227 29.2605 38.8822 30.1199 39.2012C30.9792 39.5137 31.6238 39.9824 32.0535 40.6074C32.4897 41.2324 32.7078 42.0104 32.7078 42.9414C32.7078 43.5208 32.6101 44.0482 32.4148 44.5234C32.2195 44.9987 31.9395 45.4251 31.575 45.8027C31.2169 46.1738 30.7872 46.4993 30.2859 46.7793L34.446 53H30.071L27.0437 47.8047H26.0671V53H22.2097V38.7227H26.8875ZM26.8289 41.6426H26.0671V44.9043H26.7898C27.3822 44.9043 27.8673 44.7741 28.2449 44.5137C28.6225 44.2533 28.8113 43.7878 28.8113 43.1172C28.8113 42.6549 28.655 42.2936 28.3425 42.0332C28.03 41.7728 27.5255 41.6426 26.8289 41.6426ZM40.3007 41.7402C41.375 41.7402 42.3027 41.929 43.0839 42.3066C43.8652 42.6777 44.4674 43.2376 44.8906 43.9863C45.3138 44.735 45.5253 45.6725 45.5253 46.7988V48.498H38.6992C38.7317 49.0775 38.9466 49.5527 39.3437 49.9238C39.7473 50.2949 40.3398 50.4805 41.121 50.4805C41.8111 50.4805 42.4427 50.4121 43.0156 50.2754C43.595 50.1387 44.1907 49.9271 44.8027 49.6406V52.3848C44.2688 52.6647 43.6861 52.8698 43.0546 53C42.4231 53.1302 41.6256 53.1953 40.6621 53.1953C39.5488 53.1953 38.5527 52.9967 37.6738 52.5996C36.7949 52.2025 36.1015 51.5872 35.5937 50.7539C35.0924 49.9206 34.8417 48.8496 34.8417 47.541C34.8417 46.2129 35.0696 45.1224 35.5253 44.2695C35.9811 43.4102 36.6191 42.7754 37.4394 42.3652C38.2597 41.9486 39.2135 41.7402 40.3007 41.7402ZM40.4375 44.3379C39.9882 44.3379 39.6106 44.4811 39.3046 44.7676C39.0052 45.0475 38.8294 45.4902 38.7773 46.0957H42.0585C42.052 45.7702 41.9869 45.474 41.8632 45.207C41.7395 44.9401 41.5572 44.7285 41.3164 44.5723C41.082 44.416 40.789 44.3379 40.4375 44.3379ZM51.3019 53H47.4835V37.8047H51.3019V53ZM58.7289 41.7402C59.8031 41.7402 60.7308 41.929 61.5121 42.3066C62.2933 42.6777 62.8955 43.2376 63.3187 43.9863C63.7419 44.735 63.9535 45.6725 63.9535 46.7988V48.498H57.1273C57.1598 49.0775 57.3747 49.5527 57.7718 49.9238C58.1755 50.2949 58.7679 50.4805 59.5492 50.4805C60.2393 50.4805 60.8708 50.4121 61.4437 50.2754C62.0231 50.1387 62.6188 49.9271 63.2308 49.6406V52.3848C62.697 52.6647 62.1143 52.8698 61.4828 53C60.8513 53.1302 60.0537 53.1953 59.0902 53.1953C57.9769 53.1953 56.9808 52.9967 56.1019 52.5996C55.223 52.2025 54.5296 51.5872 54.0218 50.7539C53.5205 49.9206 53.2699 48.8496 53.2699 47.541C53.2699 46.2129 53.4977 45.1224 53.9535 44.2695C54.4092 43.4102 55.0472 42.7754 55.8675 42.3652C56.6878 41.9486 57.6416 41.7402 58.7289 41.7402ZM58.8656 44.3379C58.4164 44.3379 58.0388 44.4811 57.7328 44.7676C57.4333 45.0475 57.2575 45.4902 57.2054 46.0957H60.4867C60.4802 45.7702 60.4151 45.474 60.2914 45.207C60.1677 44.9401 59.9854 44.7285 59.7445 44.5723C59.5101 44.416 59.2171 44.3379 58.8656 44.3379ZM71.3121 41.7402C72.7118 41.7402 73.8056 42.0885 74.5933 42.7852C75.3811 43.4753 75.775 44.4616 75.775 45.7441V53H73.1285L72.396 51.5352H72.3179C72.0054 51.9258 71.6832 52.2448 71.3511 52.4922C71.0256 52.7331 70.6513 52.9089 70.2281 53.0195C69.8049 53.1367 69.2873 53.1953 68.6753 53.1953C68.0373 53.1953 67.4644 53.0651 66.9566 52.8047C66.4488 52.5443 66.0484 52.1504 65.7554 51.623C65.4625 51.0957 65.316 50.4284 65.316 49.6211C65.316 48.4362 65.7261 47.5573 66.5464 46.9844C67.3667 46.4115 68.5549 46.0892 70.1109 46.0176L71.9566 45.959V45.8027C71.9566 45.3079 71.8329 44.9564 71.5855 44.748C71.3446 44.5397 71.0191 44.4355 70.6089 44.4355C70.1727 44.4355 69.6845 44.5137 69.1441 44.6699C68.6102 44.8197 68.0731 45.015 67.5328 45.2559L66.4292 42.7363C67.0673 42.4108 67.7899 42.1634 68.5972 41.9941C69.4045 41.8249 70.3095 41.7402 71.3121 41.7402ZM71.9761 48.0586L71.0972 48.0977C70.3941 48.1237 69.8993 48.2474 69.6128 48.4688C69.3329 48.6836 69.1929 48.9928 69.1929 49.3965C69.1929 49.7741 69.2938 50.054 69.4957 50.2363C69.6975 50.4121 69.9644 50.5 70.2964 50.5C70.7587 50.5 71.1526 50.3535 71.4781 50.0605C71.8101 49.7676 71.9761 49.3867 71.9761 48.918V48.0586ZM86.3953 49.6016C86.3953 50.3047 86.239 50.9264 85.9265 51.4668C85.614 52.0072 85.1127 52.4303 84.4226 52.7363C83.739 53.0423 82.8373 53.1953 81.7175 53.1953C80.9298 53.1953 80.2234 53.153 79.5984 53.0684C78.9799 52.9837 78.3516 52.821 77.7136 52.5801V49.5234C78.4102 49.8424 79.1199 50.0736 79.8425 50.2168C80.5652 50.3535 81.1348 50.4219 81.5515 50.4219C81.9812 50.4219 82.2937 50.3763 82.489 50.2852C82.6908 50.1875 82.7917 50.0443 82.7917 49.8555C82.7917 49.6927 82.7234 49.556 82.5867 49.4453C82.4565 49.3281 82.2188 49.1947 81.8738 49.0449C81.5352 48.8952 81.0567 48.6934 80.4382 48.4395C79.8263 48.1855 79.3152 47.9089 78.905 47.6094C78.5014 47.3099 78.1986 46.9518 77.9968 46.5352C77.795 46.1185 77.6941 45.6074 77.6941 45.002C77.6941 43.9212 78.1108 43.1074 78.9441 42.5605C79.7774 42.0137 80.8809 41.7402 82.2546 41.7402C82.9838 41.7402 83.6707 41.8216 84.3152 41.9844C84.9597 42.1406 85.627 42.3717 86.3171 42.6777L85.2722 45.1387C84.7253 44.8913 84.172 44.6927 83.6121 44.543C83.0522 44.3932 82.6062 44.3184 82.2742 44.3184C81.9747 44.3184 81.7436 44.3574 81.5808 44.4355C81.4181 44.5137 81.3367 44.6276 81.3367 44.7773C81.3367 44.9141 81.392 45.0345 81.5027 45.1387C81.6199 45.2428 81.838 45.3633 82.157 45.5C82.476 45.6367 82.9415 45.8288 83.5535 46.0762C84.198 46.3366 84.7286 46.6165 85.1453 46.916C85.5684 47.209 85.8809 47.5671 86.0828 47.9902C86.2911 48.4134 86.3953 48.9505 86.3953 49.6016ZM93.3046 41.7402C94.3789 41.7402 95.3066 41.929 96.0878 42.3066C96.8691 42.6777 97.4713 43.2376 97.8945 43.9863C98.3177 44.735 98.5293 45.6725 98.5293 46.7988V48.498H91.7031C91.7356 49.0775 91.9505 49.5527 92.3476 49.9238C92.7513 50.2949 93.3437 50.4805 94.125 50.4805C94.8151 50.4805 95.4466 50.4121 96.0195 50.2754C96.5989 50.1387 97.1946 49.9271 97.8066 49.6406V52.3848C97.2727 52.6647 96.6901 52.8698 96.0585 53C95.427 53.1302 94.6295 53.1953 93.666 53.1953C92.5527 53.1953 91.5566 52.9967 90.6777 52.5996C89.7988 52.2025 89.1054 51.5872 88.5976 50.7539C88.0963 49.9206 87.8457 48.8496 87.8457 47.541C87.8457 46.2129 88.0735 45.1224 88.5293 44.2695C88.985 43.4102 89.623 42.7754 90.4433 42.3652C91.2636 41.9486 92.2174 41.7402 93.3046 41.7402ZM93.4414 44.3379C92.9921 44.3379 92.6145 44.4811 92.3085 44.7676C92.0091 45.0475 91.8333 45.4902 91.7812 46.0957H95.0625C95.0559 45.7702 94.9908 45.474 94.8671 45.207C94.7434 44.9401 94.5612 44.7285 94.3203 44.5723C94.0859 44.416 93.7929 44.3379 93.4414 44.3379ZM112.407 41.7402C113.546 41.7402 114.477 42.0625 115.2 42.707C115.922 43.3516 116.284 44.3835 116.284 45.8027V53H112.465V46.9648C112.465 46.2292 112.358 45.6758 112.143 45.3047C111.935 44.9271 111.596 44.7383 111.127 44.7383C110.405 44.7383 109.92 45.0345 109.672 45.627C109.425 46.2129 109.301 47.056 109.301 48.1562V53H105.483V41.9355H108.364L108.881 43.4004H109.028C109.262 43.0488 109.542 42.7493 109.868 42.502C110.193 42.2546 110.567 42.0658 110.991 41.9355C111.414 41.8053 111.886 41.7402 112.407 41.7402ZM129.248 47.4434C129.248 48.3678 129.121 49.1882 128.867 49.9043C128.613 50.6204 128.245 51.2227 127.763 51.7109C127.281 52.1992 126.699 52.5703 126.015 52.8242C125.332 53.0716 124.56 53.1953 123.701 53.1953C122.9 53.1953 122.164 53.0716 121.494 52.8242C120.83 52.5703 120.25 52.1992 119.755 51.7109C119.261 51.2227 118.877 50.6204 118.603 49.9043C118.336 49.1882 118.203 48.3678 118.203 47.4434C118.203 46.2194 118.424 45.1842 118.867 44.3379C119.316 43.4915 119.954 42.847 120.781 42.4043C121.614 41.9616 122.607 41.7402 123.759 41.7402C124.821 41.7402 125.765 41.9616 126.591 42.4043C127.418 42.847 128.066 43.4915 128.535 44.3379C129.01 45.1842 129.248 46.2194 129.248 47.4434ZM122.08 47.4434C122.08 48.0749 122.135 48.6087 122.246 49.0449C122.356 49.4746 122.532 49.8034 122.773 50.0312C123.02 50.2526 123.343 50.3633 123.74 50.3633C124.137 50.3633 124.453 50.2526 124.687 50.0312C124.921 49.8034 125.091 49.4746 125.195 49.0449C125.306 48.6087 125.361 48.0749 125.361 47.4434C125.361 46.8118 125.306 46.2845 125.195 45.8613C125.091 45.4382 124.918 45.1191 124.677 44.9043C124.443 44.6895 124.124 44.582 123.72 44.582C123.141 44.582 122.721 44.8229 122.46 45.3047C122.207 45.7865 122.08 46.4993 122.08 47.4434ZM136.655 50.1777C137 50.1777 137.316 50.1419 137.602 50.0703C137.889 49.9987 138.188 49.9076 138.501 49.7969V52.5801C138.084 52.7624 137.641 52.9089 137.173 53.0195C136.71 53.1367 136.118 53.1953 135.395 53.1953C134.679 53.1953 134.048 53.0846 133.501 52.8633C132.954 52.6354 132.527 52.2448 132.221 51.6914C131.922 51.1315 131.772 50.3535 131.772 49.3574V44.7969H130.434V43.2441L132.134 42.043L133.12 39.7188H135.62V41.9355H138.335V44.7969H135.62V49.1035C135.62 49.4616 135.711 49.7318 135.893 49.9141C136.076 50.0898 136.33 50.1777 136.655 50.1777ZM145.215 41.7402C146.289 41.7402 147.217 41.929 147.998 42.3066C148.779 42.6777 149.381 43.2376 149.805 43.9863C150.228 44.735 150.439 45.6725 150.439 46.7988V48.498H143.613C143.646 49.0775 143.861 49.5527 144.258 49.9238C144.661 50.2949 145.254 50.4805 146.035 50.4805C146.725 50.4805 147.357 50.4121 147.93 50.2754C148.509 50.1387 149.105 49.9271 149.717 49.6406V52.3848C149.183 52.6647 148.6 52.8698 147.969 53C147.337 53.1302 146.54 53.1953 145.576 53.1953C144.463 53.1953 143.467 52.9967 142.588 52.5996C141.709 52.2025 141.016 51.5872 140.508 50.7539C140.006 49.9206 139.756 48.8496 139.756 47.541C139.756 46.2129 139.984 45.1224 140.439 44.2695C140.895 43.4102 141.533 42.7754 142.353 42.3652C143.174 41.9486 144.128 41.7402 145.215 41.7402ZM145.352 44.3379C144.902 44.3379 144.525 44.4811 144.219 44.7676C143.919 45.0475 143.743 45.4902 143.691 46.0957H146.973C146.966 45.7702 146.901 45.474 146.777 45.207C146.654 44.9401 146.471 44.7285 146.23 44.5723C145.996 44.416 145.703 44.3379 145.352 44.3379ZM160.62 49.6016C160.62 50.3047 160.464 50.9264 160.152 51.4668C159.839 52.0072 159.338 52.4303 158.648 52.7363C157.964 53.0423 157.062 53.1953 155.943 53.1953C155.155 53.1953 154.448 53.153 153.823 53.0684C153.205 52.9837 152.577 52.821 151.939 52.5801V49.5234C152.635 49.8424 153.345 50.0736 154.068 50.2168C154.79 50.3535 155.36 50.4219 155.777 50.4219C156.206 50.4219 156.519 50.3763 156.714 50.2852C156.916 50.1875 157.017 50.0443 157.017 49.8555C157.017 49.6927 156.948 49.556 156.812 49.4453C156.681 49.3281 156.444 49.1947 156.099 49.0449C155.76 48.8952 155.282 48.6934 154.663 48.4395C154.051 48.1855 153.54 47.9089 153.13 47.6094C152.726 47.3099 152.424 46.9518 152.222 46.5352C152.02 46.1185 151.919 45.6074 151.919 45.002C151.919 43.9212 152.336 43.1074 153.169 42.5605C154.002 42.0137 155.106 41.7402 156.48 41.7402C157.209 41.7402 157.896 41.8216 158.54 41.9844C159.185 42.1406 159.852 42.3717 160.542 42.6777L159.497 45.1387C158.95 44.8913 158.397 44.6927 157.837 44.543C157.277 44.3932 156.831 44.3184 156.499 44.3184C156.2 44.3184 155.969 44.3574 155.806 44.4355C155.643 44.5137 155.562 44.6276 155.562 44.7773C155.562 44.9141 155.617 45.0345 155.728 45.1387C155.845 45.2428 156.063 45.3633 156.382 45.5C156.701 45.6367 157.166 45.8288 157.778 46.0762C158.423 46.3366 158.954 46.6165 159.37 46.916C159.793 47.209 160.106 47.5671 160.308 47.9902C160.516 48.4134 160.62 48.9505 160.62 49.6016Z" fill="#000716"/>
<g clip-path="url(#clip0_14752_112890)">
<path d="M262.312 84.3656L260.733 84.3654L259.982 78.2734L262.313 78.2736L262.312 84.3656Z" fill="#FFB8B8"/>
<path d="M244.078 68.7026H212.925C211.73 68.7012 210.585 68.1899 209.741 67.281C208.896 66.3721 208.421 65.1397 208.419 63.8543V14.8171C208.421 13.5317 208.896 12.2993 209.741 11.3904C210.585 10.4815 211.73 9.97021 212.925 9.96875H244.078C245.272 9.97021 246.417 10.4815 247.262 11.3904C248.107 12.2993 248.582 13.5317 248.583 14.8171V63.8543C248.582 65.1397 248.107 66.3721 247.262 67.281C246.417 68.1899 245.272 68.7012 244.078 68.7026Z" fill="white"/>
<path d="M238.394 47.5431H218.177C216.112 47.5308 216.103 43.6695 218.177 43.6563L238.394 43.6562C240.457 43.6681 240.469 47.5298 238.394 47.5431Z" fill="#CCCCCC"/>
<path d="M238.394 21.6268H218.177C216.112 21.616 216.103 18.1836 218.177 18.1719L238.394 18.1719C240.457 18.1824 240.469 21.615 238.394 21.6268Z" fill="#CCCCCC"/>
<path d="M238.394 53.1559H218.177C216.112 53.1464 216.103 50.1431 218.177 50.1328L238.394 50.1328C240.457 50.142 240.469 53.1456 238.394 53.1559Z" fill="#CCCCCC"/>
<path d="M238.394 59.2049H218.177C216.112 59.1941 216.103 55.7618 218.177 55.75L238.394 55.75C240.457 55.7606 240.469 59.1931 238.394 59.2049Z" fill="#CCCCCC"/>
<path d="M237.952 40.2013H218.619C218.09 40.2007 217.583 39.9861 217.209 39.6048C216.836 39.2234 216.625 38.7063 216.625 38.167V27.1202C216.625 26.5809 216.836 26.0638 217.209 25.6824C217.583 25.3011 218.09 25.0865 218.619 25.0859H237.952C238.481 25.0865 238.987 25.3011 239.361 25.6824C239.735 26.0638 239.945 26.5809 239.946 27.1202V38.167C239.945 38.7063 239.735 39.2234 239.361 39.6048C238.987 39.9861 238.481 40.2007 237.952 40.2013Z" fill="#0972D3"/>
<path d="M244.078 68.7026H212.925C211.73 68.7012 210.585 68.1899 209.741 67.281C208.896 66.3721 208.421 65.1397 208.419 63.8543V14.8171C208.421 13.5317 208.896 12.2993 209.741 11.3904C210.585 10.4815 211.73 9.97021 212.925 9.96875H244.078C245.272 9.97021 246.417 10.4815 247.262 11.3904C248.107 12.2993 248.582 13.5317 248.583 14.8171V63.8543C248.582 65.1397 248.107 66.3721 247.262 67.281C246.417 68.1899 245.272 68.7012 244.078 68.7026ZM212.925 10.7999C211.935 10.8011 210.986 11.2247 210.286 11.9778C209.587 12.7309 209.193 13.752 209.192 14.8171V63.8543C209.193 64.9194 209.587 65.9405 210.286 66.6936C210.986 67.4467 211.935 67.8703 212.925 67.8715H244.078C245.067 67.8703 246.016 67.4467 246.716 66.6936C247.416 65.9404 247.81 64.9194 247.811 63.8543V14.8171C247.81 13.752 247.416 12.7309 246.716 11.9778C246.016 11.2247 245.067 10.8011 244.078 10.7999H212.925Z" fill="#E6E6E6"/>
<path d="M267.937 89.7756C267.715 89.4588 267.55 89.083 267.453 88.6747C267.355 88.2663 267.328 87.8353 267.374 87.4121C267.419 86.9888 267.536 86.5836 267.715 86.2249C267.895 85.8663 268.133 85.5629 268.413 85.3362L267.56 78.7487L270.529 77.1016L271.633 86.4263C271.896 87.06 271.971 87.7967 271.842 88.4966C271.714 89.1966 271.391 89.8112 270.935 90.224C270.48 90.6369 269.923 90.8193 269.37 90.7366C268.818 90.654 268.308 90.312 267.937 89.7756Z" fill="#FFB8B8"/>
<path d="M242.744 86.86C243.013 86.6619 243.233 86.4112 243.387 86.1257C243.541 85.8401 243.626 85.5267 243.635 85.2074C243.645 84.888 243.579 84.5706 243.443 84.2775C243.306 83.9844 243.102 83.7227 242.845 83.5108L244.595 78.7902L241.77 77.1016L239.4 83.8003C239.046 84.2255 238.872 84.7567 238.911 85.2933C238.95 85.8299 239.199 86.3346 239.611 86.7117C240.023 87.0889 240.57 87.3123 241.147 87.3396C241.725 87.3669 242.293 87.1963 242.744 86.86Z" fill="#FFB8B8"/>
<path d="M258.249 46.3838C262.02 46.3838 265.077 43.5819 265.077 40.1255C265.077 36.6691 262.02 33.8672 258.249 33.8672C254.479 33.8672 251.422 36.6691 251.422 40.1255C251.422 43.5819 254.479 46.3838 258.249 46.3838Z" fill="#FFB8B8"/>
<path d="M242.953 82.7953C242.848 82.7952 242.743 82.7788 242.642 82.7464L240.856 82.1772C240.571 82.0857 240.33 81.8727 240.185 81.5847C240.041 81.2966 240.005 80.9569 240.085 80.6397L243.772 66.1921L248.913 52.184C249.425 50.7914 250.493 49.8782 251.701 49.8007C252.253 49.7707 252.8 49.919 253.278 50.2276C253.755 50.5362 254.142 50.9918 254.391 51.5392C254.667 52.1251 254.819 52.7735 254.834 53.4347C254.85 54.0959 254.729 54.7523 254.48 55.3533L248.636 69.5373L243.99 82.0242C243.906 82.2523 243.762 82.4473 243.577 82.5845C243.393 82.7218 243.175 82.7951 242.953 82.7953Z" fill="#3F3D56"/>
<path d="M262.26 45.1826L258.742 45.2451C258.376 45.2523 258.013 45.1734 257.683 45.0147C257.352 44.8561 257.064 44.6221 256.841 44.3317C256.618 44.0413 256.466 43.7026 256.398 43.3428C256.33 42.9831 256.347 42.6124 256.449 42.2607C256.524 42.0066 256.581 41.7473 256.618 41.485C256.658 41.1989 256.665 40.9093 256.641 40.6214C256.619 40.3332 256.499 40.0611 256.302 39.8498C256.104 39.6384 255.841 39.5004 255.555 39.4582C255.268 39.4161 254.976 39.4723 254.726 39.6178C254.476 39.7632 254.283 39.9893 254.178 40.2588C253.587 40.2672 252.327 40.0746 251.735 40.083C250.479 36.8669 253.216 32.6585 256.162 31.0778C259.166 29.4664 263.064 31.1058 264.216 34.4644C265.813 34.4931 267.112 36.0672 267.318 37.8392C267.524 39.6112 266.794 41.4615 265.677 42.8197C264.561 44.1778 263.095 45.1678 262.26 45.1826Z" fill="#2F2E41"/>
<path d="M250.494 127.171C250.206 127.17 249.928 127.062 249.713 126.869C249.498 126.676 249.362 126.411 249.33 126.124L248.008 81.6562L264.654 82.8423L264.667 82.9494C268.429 114.468 267.143 125.379 267.13 125.485C267.12 125.646 267.078 125.804 267.005 125.948C266.932 126.092 266.831 126.22 266.706 126.323C266.582 126.426 266.438 126.502 266.283 126.547C266.128 126.592 265.965 126.604 265.805 126.583L262.126 126.671C261.848 126.64 261.589 126.509 261.398 126.303C261.207 126.097 261.096 125.83 261.085 125.549L257.648 93.3416C257.627 93.2579 257.577 93.1844 257.507 93.134C257.437 93.0835 257.352 93.0594 257.266 93.0657C257.177 93.0654 257.091 93.0959 257.023 93.152C256.954 93.2081 256.907 93.2863 256.89 93.3732L255.562 125.686C255.576 125.986 255.475 126.28 255.278 126.507C255.082 126.734 254.806 126.877 254.508 126.906L250.611 127.165C250.572 127.169 250.533 127.171 250.494 127.171Z" fill="#2F2E41"/>
<path d="M256.4 87.344C256.296 87.344 256.191 87.3425 256.087 87.3394C251.07 87.193 247.145 83.5157 246.062 82.3921C245.924 82.2488 245.825 82.0747 245.773 81.8853C245.722 81.6958 245.719 81.4969 245.766 81.3064L248.66 69.4441L247.892 59.1314C247.772 57.7001 247.966 56.2603 248.461 54.9068C248.956 53.5533 249.742 52.3168 250.766 51.2787C251.619 50.4052 252.656 49.7197 253.807 49.2687C254.958 48.8176 256.196 48.6115 257.436 48.6644C262.319 48.8901 266.172 53.1193 266.207 58.2923C266.261 66.3043 266.017 66.8547 265.937 67.0356C263.5 72.5467 264.831 80.2825 265.297 82.5222C265.339 82.7221 265.327 82.9289 265.263 83.1231C265.199 83.3173 265.085 83.4924 264.931 83.6319C262.251 86.0961 259.382 87.3439 256.4 87.344Z" fill="#3F3D56"/>
<path d="M268.707 83.9281C268.434 83.9279 268.169 83.8355 267.955 83.6661C267.741 83.4966 267.592 83.2601 267.531 82.9953L264.6 70.2989L260.671 55.7871C260.503 55.1718 260.48 54.5264 260.602 53.9005C260.724 53.2747 260.989 52.6851 261.377 52.177C261.729 51.7008 262.212 51.3362 262.768 51.1273C263.324 50.9183 263.928 50.874 264.509 50.9996C265.779 51.2869 266.766 52.3438 267.086 53.7581L270.296 67.9686L271.897 82.3693C271.931 82.6851 271.839 83.0017 271.639 83.25C271.44 83.4982 271.15 83.6581 270.833 83.6947L268.846 83.9201C268.8 83.9254 268.754 83.9281 268.707 83.9281Z" fill="#3F3D56"/>
</g>
<defs>
<clipPath id="clip0_14752_112890">
<rect width="87.2371" height="82.0547" fill="white" transform="translate(184.667 9.96875)"/>
</clipPath>
</defs>
</svg>
