<svg width="32" height="32" viewBox="0 0 32 32" fill="none" xmlns="http://www.w3.org/2000/svg">
<path d="M15.9987 1.33301C24.091 1.33301 30.6654 7.90734 30.6654 15.9997C30.6654 24.092 24.091 30.6663 15.9987 30.6663C7.90636 30.6663 1.33203 24.092 1.33203 15.9997C1.33203 7.90734 7.90636 1.33301 15.9987 1.33301ZM20.0045 22.9416C19.0686 23.4815 18.7487 24.6796 19.2886 25.6155C19.8285 26.5514 21.0266 26.8759 21.9671 26.3314C22.903 25.7915 23.2229 24.5934 22.6784 23.6575C22.1385 22.7216 20.945 22.3971 20.0045 22.9416ZM15.9987 21.7197C15.1389 21.7197 14.323 21.529 13.5879 21.1898L12.2275 23.6245C13.3688 24.1883 14.6484 24.5082 15.9996 24.5082C16.787 24.5082 17.5515 24.3982 18.272 24.1928C18.4013 23.41 18.8642 22.6886 19.6085 22.2541C20.3538 21.8242 21.2173 21.7811 21.9579 22.0634C23.409 20.6453 24.3495 18.7075 24.4879 16.5442L21.6949 16.5057C21.4373 19.428 18.9879 21.7197 15.9987 21.7197ZM10.2787 15.9997C10.2787 14.0664 11.2384 12.3568 12.7088 11.321L11.2815 8.92392C9.56278 10.0606 8.2932 11.8169 7.75786 13.851C8.37845 14.3478 8.77445 15.116 8.77445 15.9804C8.77445 16.8403 8.37845 17.5938 7.75786 18.1053C8.29228 20.1393 9.56278 21.9012 11.2815 23.0369L12.7088 20.6353C11.2384 19.6278 10.2787 17.9238 10.2787 15.9997ZM6.02536 14.0426C4.94186 14.0426 4.06828 14.9162 4.06828 15.9997C4.06828 17.0832 4.94186 17.9568 6.02536 17.9568C7.10886 17.9568 7.98245 17.0832 7.98245 15.9997C7.98245 14.9162 7.10886 14.0426 6.02536 14.0426ZM15.9987 10.2797C18.987 10.2797 21.4364 12.5713 21.6949 15.4937L24.4879 15.4506C24.3495 13.2928 23.4044 11.354 21.9579 9.93134C21.2127 10.2128 20.3538 10.1697 19.6085 9.74526C18.8688 9.31076 18.4004 8.59026 18.272 7.79734C17.546 7.60117 16.787 7.49209 15.9996 7.49209C14.6439 7.49209 13.3642 7.81201 12.2275 8.37576L13.5879 10.8104C14.323 10.4713 15.1398 10.2797 15.9987 10.2797ZM20.0045 9.05776C20.9404 9.59767 22.1385 9.27776 22.683 8.34184C23.2229 7.40592 22.903 6.20784 21.9625 5.66334C21.0266 5.12892 19.8285 5.44334 19.2886 6.38384C18.7487 7.31976 19.0686 8.51784 20.0045 9.05776Z" fill="#7D8998"/>
</svg>
